STARTFONT 2.1
COMMENT
COMMENT Converted from OpenType font "Catrinity-Regular.otf" by "otf2bdf 3.0".
COMMENT
FONT -FreeType-Catrinity-Medium-R-Normal--19-140-100-100-P-97-ISO10646-1
SIZE 14 100 100
FONTBOUNDINGBOX 44 26 -11 -8
STARTPROPERTIES 19
FOUNDRY "FreeType"
FAMILY_NAME "Catrinity"
WEIGHT_NAME "Medium"
SLANT "R"
SETWIDTH_NAME "Normal"
ADD_STYLE_NAME ""
PIXEL_SIZE 19
POINT_SIZE 140
RESOLUTION_X 100
RESOLUTION_Y 100
SPACING "P"
AVERAGE_WIDTH 97
CHARSET_REGISTRY "ISO10646"
CHARSET_ENCODING "1"
FONT_ASCENT 15
FONT_DESCENT 7
COPYRIGHT "Typeface © Alexander Lange. 2023. All Rights Reserved"
_OTF_FONTFILE "Catrinity-Regular.otf"
_OTF_PSNAME "Catrinity"
ENDPROPERTIES
CHARS 9984
STARTCHAR 0000
ENCODING 0
SWIDTH 0 0
DWIDTH 0 0
BBX 0 0 0 0
BITMAP
ENDCHAR
STARTCHAR 0008
ENCODING 8
SWIDTH 0 0
DWIDTH 0 0
BBX 0 0 0 0
BITMAP
ENDCHAR
STARTCHAR 0009
ENCODING 9
SWIDTH 205 0
DWIDTH 4 0
BBX 0 0 0 0
BITMAP
ENDCHAR
STARTCHAR 000D
ENCODING 13
SWIDTH 205 0
DWIDTH 4 0
BBX 0 0 0 0
BITMAP
ENDCHAR
STARTCHAR 001D
ENCODING 29
SWIDTH 0 0
DWIDTH 0 0
BBX 0 0 0 0
BITMAP
ENDCHAR
STARTCHAR 0020
ENCODING 32
SWIDTH 205 0
DWIDTH 4 0
BBX 0 0 0 0
BITMAP
ENDCHAR
STARTCHAR 0021
ENCODING 33
SWIDTH 154 0
DWIDTH 3 0
BBX 2 13 1 0
BITMAP
80
80
80
80
80
80
80
80
80
00
00
C0
C0
ENDCHAR
STARTCHAR 0022
ENCODING 34
SWIDTH 257 0
DWIDTH 5 0
BBX 4 4 1 9
BITMAP
B0
B0
B0
B0
ENDCHAR
STARTCHAR 0023
ENCODING 35
SWIDTH 668 0
DWIDTH 13 0
BBX 12 13 1 0
BITMAP
0840
0840
08C0
18C0
7FF0
1880
1080
1180
FFE0
FFE0
3100
2100
2100
ENDCHAR
STARTCHAR 0024
ENCODING 36
SWIDTH 462 0
DWIDTH 9 0
BBX 8 16 1 -2
BITMAP
10
18
7C
56
D2
50
70
38
1E
12
93
D2
76
3C
10
10
ENDCHAR
STARTCHAR 0025
ENCODING 37
SWIDTH 617 0
DWIDTH 12 0
BBX 10 13 1 0
BITMAP
3040
F8C0
8980
C900
FB00
2600
0400
0C00
1BC0
36C0
2640
6640
C3C0
ENDCHAR
STARTCHAR 0026
ENCODING 38
SWIDTH 514 0
DWIDTH 10 0
BBX 9 13 1 0
BITMAP
1800
7C00
4400
C000
4200
6200
7F80
C200
C200
8200
C200
6600
3F80
ENDCHAR
STARTCHAR 0027
ENCODING 39
SWIDTH 154 0
DWIDTH 3 0
BBX 1 4 1 9
BITMAP
80
80
80
80
ENDCHAR
STARTCHAR 0028
ENCODING 40
SWIDTH 257 0
DWIDTH 5 0
BBX 4 17 1 -4
BITMAP
30
20
60
40
C0
C0
C0
80
80
80
80
C0
C0
40
60
60
30
ENDCHAR
STARTCHAR 0029
ENCODING 41
SWIDTH 257 0
DWIDTH 5 0
BBX 4 17 1 -4
BITMAP
C0
40
60
60
20
20
30
30
30
30
30
30
20
20
60
40
C0
ENDCHAR
STARTCHAR 002A
ENCODING 42
SWIDTH 411 0
DWIDTH 8 0
BBX 6 7 1 6
BITMAP
10
10
DC
30
7C
94
10
ENDCHAR
STARTCHAR 002B
ENCODING 43
SWIDTH 514 0
DWIDTH 10 0
BBX 8 9 1 2
BITMAP
08
08
08
08
FF
08
08
08
08
ENDCHAR
STARTCHAR 002C
ENCODING 44
SWIDTH 154 0
DWIDTH 3 0
BBX 2 5 1 -3
BITMAP
C0
C0
40
40
80
ENDCHAR
STARTCHAR 002D
ENCODING 45
SWIDTH 308 0
DWIDTH 6 0
BBX 5 1 1 4
BITMAP
F8
ENDCHAR
STARTCHAR 002E
ENCODING 46
SWIDTH 154 0
DWIDTH 3 0
BBX 2 2 1 0
BITMAP
C0
C0
ENDCHAR
STARTCHAR 002F
ENCODING 47
SWIDTH 360 0
DWIDTH 7 0
BBX 6 13 1 0
BITMAP
04
0C
08
18
18
10
30
20
20
60
40
C0
C0
ENDCHAR
STARTCHAR 0030
ENCODING 48
SWIDTH 462 0
DWIDTH 9 0
BBX 8 13 1 0
BITMAP
18
3C
46
C2
C2
82
83
83
C2
C2
46
64
38
ENDCHAR
STARTCHAR 0031
ENCODING 49
SWIDTH 411 0
DWIDTH 8 0
BBX 6 13 1 0
BITMAP
30
30
F0
F0
30
30
30
30
30
30
30
30
FC
ENDCHAR
STARTCHAR 0032
ENCODING 50
SWIDTH 411 0
DWIDTH 8 0
BBX 7 13 1 0
BITMAP
30
7C
C4
86
06
0C
18
30
60
40
C0
80
FE
ENDCHAR
STARTCHAR 0033
ENCODING 51
SWIDTH 462 0
DWIDTH 9 0
BBX 7 13 1 0
BITMAP
38
7C
C4
86
06
0C
1C
06
06
02
86
CC
78
ENDCHAR
STARTCHAR 0034
ENCODING 52
SWIDTH 514 0
DWIDTH 10 0
BBX 9 13 1 0
BITMAP
0600
0E00
0E00
1E00
3600
2600
6600
C600
FF80
0600
0600
0600
0600
ENDCHAR
STARTCHAR 0035
ENCODING 53
SWIDTH 462 0
DWIDTH 9 0
BBX 7 13 1 0
BITMAP
7C
7C
40
C0
F8
FC
C6
02
02
02
86
CC
78
ENDCHAR
STARTCHAR 0036
ENCODING 54
SWIDTH 462 0
DWIDTH 9 0
BBX 8 13 1 0
BITMAP
18
3E
62
40
C0
80
FC
C6
C2
C3
C2
66
3C
ENDCHAR
STARTCHAR 0037
ENCODING 55
SWIDTH 462 0
DWIDTH 9 0
BBX 8 13 1 0
BITMAP
FF
FE
06
04
0C
08
18
18
10
30
30
30
20
ENDCHAR
STARTCHAR 0038
ENCODING 56
SWIDTH 462 0
DWIDTH 9 0
BBX 8 13 1 0
BITMAP
18
7C
46
C2
46
6E
7C
C6
C2
83
C2
66
3C
ENDCHAR
STARTCHAR 0039
ENCODING 57
SWIDTH 462 0
DWIDTH 9 0
BBX 8 13 1 0
BITMAP
38
7E
C2
83
83
C2
7E
3E
04
0C
08
08
18
ENDCHAR
STARTCHAR 003A
ENCODING 58
SWIDTH 154 0
DWIDTH 3 0
BBX 2 9 1 0
BITMAP
C0
C0
00
00
00
00
00
C0
C0
ENDCHAR
STARTCHAR 003B
ENCODING 59
SWIDTH 154 0
DWIDTH 3 0
BBX 2 12 1 -3
BITMAP
C0
C0
00
00
00
00
00
C0
C0
40
40
80
ENDCHAR
STARTCHAR 003C
ENCODING 60
SWIDTH 514 0
DWIDTH 10 0
BBX 8 7 1 2
BITMAP
01
0F
78
E0
F0
1E
07
ENDCHAR
STARTCHAR 003D
ENCODING 61
SWIDTH 514 0
DWIDTH 10 0
BBX 8 5 1 4
BITMAP
FF
FF
00
00
FF
ENDCHAR
STARTCHAR 003E
ENCODING 62
SWIDTH 514 0
DWIDTH 10 0
BBX 8 7 1 2
BITMAP
C0
F0
1E
03
0F
3C
E0
ENDCHAR
STARTCHAR 003F
ENCODING 63
SWIDTH 411 0
DWIDTH 8 0
BBX 7 13 1 0
BITMAP
30
7C
C4
86
06
0C
0C
18
10
10
00
30
30
ENDCHAR
STARTCHAR 0040
ENCODING 64
SWIDTH 925 0
DWIDTH 18 0
BBX 16 17 1 -4
BITMAP
0060
03FC
060E
1806
11FB
23FB
6631
4411
4C13
4C33
CC32
4666
47A4
6038
3000
3880
0F80
ENDCHAR
STARTCHAR 0041
ENCODING 65
SWIDTH 617 0
DWIDTH 12 0
BBX 10 13 1 0
BITMAP
0400
0C00
0E00
1A00
1A00
1300
3100
3F80
2180
6080
40C0
C040
C040
ENDCHAR
STARTCHAR 0042
ENCODING 66
SWIDTH 462 0
DWIDTH 9 0
BBX 8 13 1 0
BITMAP
F0
FE
82
82
82
86
FE
82
83
83
83
86
FC
ENDCHAR
STARTCHAR 0043
ENCODING 67
SWIDTH 565 0
DWIDTH 11 0
BBX 9 13 1 0
BITMAP
0E00
3F00
6180
4080
C000
8000
8000
8000
C000
C000
6080
3380
1F00
ENDCHAR
STARTCHAR 0044
ENCODING 68
SWIDTH 617 0
DWIDTH 12 0
BBX 10 13 1 0
BITMAP
FC00
FF00
6180
60C0
6040
6040
6040
6040
6040
60C0
6180
6380
FE00
ENDCHAR
STARTCHAR 0045
ENCODING 69
SWIDTH 462 0
DWIDTH 9 0
BBX 8 13 1 0
BITMAP
FF
FF
80
80
80
80
FE
80
80
80
80
80
FF
ENDCHAR
STARTCHAR 0046
ENCODING 70
SWIDTH 462 0
DWIDTH 9 0
BBX 8 13 1 0
BITMAP
FF
FF
80
80
80
80
FE
80
80
80
80
80
80
ENDCHAR
STARTCHAR 0047
ENCODING 71
SWIDTH 565 0
DWIDTH 11 0
BBX 10 13 1 0
BITMAP
0E00
3F00
6180
4080
C000
8000
87C0
87C0
C0C0
C0C0
6080
3380
1F00
ENDCHAR
STARTCHAR 0048
ENCODING 72
SWIDTH 462 0
DWIDTH 9 0
BBX 8 13 1 0
BITMAP
83
83
83
83
83
83
FF
83
83
83
83
83
83
ENDCHAR
STARTCHAR 0049
ENCODING 73
SWIDTH 308 0
DWIDTH 6 0
BBX 4 13 1 0
BITMAP
F0
F0
60
60
60
60
60
60
60
60
60
60
F0
ENDCHAR
STARTCHAR 004A
ENCODING 74
SWIDTH 360 0
DWIDTH 7 0
BBX 5 13 1 0
BITMAP
08
08
08
08
08
08
08
08
08
08
08
D8
70
ENDCHAR
STARTCHAR 004B
ENCODING 75
SWIDTH 514 0
DWIDTH 10 0
BBX 8 13 1 0
BITMAP
83
86
8C
88
98
B0
B0
F8
C8
8C
86
83
83
ENDCHAR
STARTCHAR 004C
ENCODING 76
SWIDTH 462 0
DWIDTH 9 0
BBX 8 13 1 0
BITMAP
80
80
80
80
80
80
80
80
80
80
80
80
FF
ENDCHAR
STARTCHAR 004D
ENCODING 77
SWIDTH 617 0
DWIDTH 12 0
BBX 11 13 1 0
BITMAP
8060
C060
C0E0
E0E0
E0E0
A1E0
B160
9160
9360
9A60
8E60
8E60
8C60
ENDCHAR
STARTCHAR 004E
ENCODING 78
SWIDTH 565 0
DWIDTH 11 0
BBX 10 13 1 0
BITMAP
80C0
C0C0
E0C0
B0C0
B0C0
98C0
8CC0
84C0
86C0
83C0
81C0
81C0
80C0
ENDCHAR
STARTCHAR 004F
ENCODING 79
SWIDTH 617 0
DWIDTH 12 0
BBX 10 13 1 0
BITMAP
0E00
3F00
6180
40C0
C040
8040
8040
8040
C040
C0C0
6080
3380
1F00
ENDCHAR
STARTCHAR 0050
ENCODING 80
SWIDTH 462 0
DWIDTH 9 0
BBX 7 13 1 0
BITMAP
F0
FC
86
82
82
86
FC
F8
80
80
80
80
80
ENDCHAR
STARTCHAR 0051
ENCODING 81
SWIDTH 617 0
DWIDTH 12 0
BBX 12 14 1 -1
BITMAP
0E00
3F00
6180
40C0
C040
8040
8040
8040
C040
DEC0
6380
3380
1F80
00F0
ENDCHAR
STARTCHAR 0052
ENCODING 82
SWIDTH 514 0
DWIDTH 10 0
BBX 8 13 1 0
BITMAP
F0
FC
86
82
82
86
FC
F8
8C
84
86
83
81
ENDCHAR
STARTCHAR 0053
ENCODING 83
SWIDTH 462 0
DWIDTH 9 0
BBX 8 13 1 0
BITMAP
18
7C
46
C2
40
60
38
0E
02
83
C2
66
3C
ENDCHAR
STARTCHAR 0054
ENCODING 84
SWIDTH 462 0
DWIDTH 9 0
BBX 8 13 1 0
BITMAP
FF
FF
18
18
18
18
18
18
18
18
18
18
18
ENDCHAR
STARTCHAR 0055
ENCODING 85
SWIDTH 565 0
DWIDTH 11 0
BBX 9 13 1 0
BITMAP
8080
8080
8080
8080
8080
8080
8080
8080
8080
C080
C180
6300
3E00
ENDCHAR
STARTCHAR 0056
ENCODING 86
SWIDTH 617 0
DWIDTH 12 0
BBX 11 13 1 0
BITMAP
8060
C040
40C0
6080
6080
2180
3100
1100
1300
1A00
0E00
0E00
0C00
ENDCHAR
STARTCHAR 0057
ENCODING 87
SWIDTH 822 0
DWIDTH 16 0
BBX 15 13 1 0
BITMAP
8106
C306
C384
4384
628C
668C
26C8
2448
3458
3C70
1870
1830
1830
ENDCHAR
STARTCHAR 0058
ENCODING 88
SWIDTH 617 0
DWIDTH 12 0
BBX 10 13 1 0
BITMAP
C040
40C0
6180
3100
1B00
1E00
0C00
0E00
1A00
3300
2180
6080
C0C0
ENDCHAR
STARTCHAR 0059
ENCODING 89
SWIDTH 617 0
DWIDTH 12 0
BBX 10 13 1 0
BITMAP
C040
40C0
6180
3100
1B00
1E00
0C00
0C00
0C00
0C00
0C00
0C00
0C00
ENDCHAR
STARTCHAR 005A
ENCODING 90
SWIDTH 514 0
DWIDTH 10 0
BBX 8 13 1 0
BITMAP
FF
FF
03
02
06
0C
08
18
30
60
40
C0
FF
ENDCHAR
STARTCHAR 005B
ENCODING 91
SWIDTH 257 0
DWIDTH 5 0
BBX 4 17 1 -4
BITMAP
F0
F0
80
80
80
80
80
80
80
80
80
80
80
80
80
F0
F0
ENDCHAR
STARTCHAR 005C
ENCODING 92
SWIDTH 360 0
DWIDTH 7 0
BBX 6 13 1 0
BITMAP
80
C0
40
60
60
20
30
10
10
18
08
08
0C
ENDCHAR
STARTCHAR 005D
ENCODING 93
SWIDTH 257 0
DWIDTH 5 0
BBX 4 17 1 -4
BITMAP
F0
F0
30
30
30
30
30
30
30
30
30
30
30
30
30
F0
F0
ENDCHAR
STARTCHAR 005E
ENCODING 94
SWIDTH 308 0
DWIDTH 6 0
BBX 4 4 1 9
BITMAP
60
60
70
F0
ENDCHAR
STARTCHAR 005F
ENCODING 95
SWIDTH 462 0
DWIDTH 9 0
BBX 8 1 1 -1
BITMAP
FF
ENDCHAR
STARTCHAR 0060
ENCODING 96
SWIDTH 257 0
DWIDTH 5 0
BBX 3 3 1 10
BITMAP
C0
40
20
ENDCHAR
STARTCHAR 0061
ENCODING 97
SWIDTH 360 0
DWIDTH 7 0
BBX 6 9 1 0
BITMAP
38
7C
0C
0C
7C
CC
8C
CC
7C
ENDCHAR
STARTCHAR 0062
ENCODING 98
SWIDTH 462 0
DWIDTH 9 0
BBX 8 13 1 0
BITMAP
80
80
80
80
B8
FE
C6
C2
83
82
C2
E6
BC
ENDCHAR
STARTCHAR 0063
ENCODING 99
SWIDTH 462 0
DWIDTH 9 0
BBX 7 9 1 0
BITMAP
38
7E
C6
C0
80
80
C2
66
3C
ENDCHAR
STARTCHAR 0064
ENCODING 100
SWIDTH 462 0
DWIDTH 9 0
BBX 8 13 1 0
BITMAP
03
03
03
03
3B
7F
C7
C3
83
83
C3
67
3F
ENDCHAR
STARTCHAR 0065
ENCODING 101
SWIDTH 462 0
DWIDTH 9 0
BBX 8 9 1 0
BITMAP
38
7E
C6
FE
FF
80
C2
66
3C
ENDCHAR
STARTCHAR 0066
ENCODING 102
SWIDTH 308 0
DWIDTH 6 0
BBX 6 13 1 0
BITMAP
18
3C
20
20
20
F8
20
20
20
20
20
20
20
ENDCHAR
STARTCHAR 0067
ENCODING 103
SWIDTH 462 0
DWIDTH 9 0
BBX 8 13 1 -4
BITMAP
3D
7F
C2
83
C2
7E
F8
C0
7E
02
83
E6
3C
ENDCHAR
STARTCHAR 0068
ENCODING 104
SWIDTH 462 0
DWIDTH 9 0
BBX 8 13 1 0
BITMAP
80
80
80
80
BC
FE
C2
C2
83
83
83
83
83
ENDCHAR
STARTCHAR 0069
ENCODING 105
SWIDTH 154 0
DWIDTH 3 0
BBX 2 12 1 0
BITMAP
C0
C0
00
80
80
80
80
80
80
80
80
80
ENDCHAR
STARTCHAR 006A
ENCODING 106
SWIDTH 154 0
DWIDTH 3 0
BBX 5 16 -2 -4
BITMAP
18
18
00
10
10
10
10
10
10
10
10
10
10
10
30
E0
ENDCHAR
STARTCHAR 006B
ENCODING 107
SWIDTH 411 0
DWIDTH 8 0
BBX 6 13 1 0
BITMAP
80
80
80
80
88
98
B0
A0
E0
F0
98
8C
84
ENDCHAR
STARTCHAR 006C
ENCODING 108
SWIDTH 205 0
DWIDTH 4 0
BBX 3 13 1 0
BITMAP
80
80
80
80
80
80
80
80
80
80
80
80
E0
ENDCHAR
STARTCHAR 006D
ENCODING 109
SWIDTH 565 0
DWIDTH 11 0
BBX 10 9 1 0
BITMAP
B380
FF80
CCC0
CCC0
8CC0
8CC0
8CC0
8CC0
8CC0
ENDCHAR
STARTCHAR 006E
ENCODING 110
SWIDTH 462 0
DWIDTH 9 0
BBX 8 9 1 0
BITMAP
BC
FE
C2
C2
83
83
83
83
83
ENDCHAR
STARTCHAR 006F
ENCODING 111
SWIDTH 462 0
DWIDTH 9 0
BBX 8 9 1 0
BITMAP
38
7E
C6
C2
83
82
C2
66
3C
ENDCHAR
STARTCHAR 0070
ENCODING 112
SWIDTH 462 0
DWIDTH 9 0
BBX 8 13 1 -4
BITMAP
B8
FE
C6
C2
83
82
C2
E6
BC
80
80
80
80
ENDCHAR
STARTCHAR 0071
ENCODING 113
SWIDTH 462 0
DWIDTH 9 0
BBX 8 13 1 -4
BITMAP
3B
7F
C7
C3
83
83
C3
67
3F
03
03
03
03
ENDCHAR
STARTCHAR 0072
ENCODING 114
SWIDTH 308 0
DWIDTH 6 0
BBX 5 9 1 0
BITMAP
B8
F0
C0
C0
80
80
80
80
80
ENDCHAR
STARTCHAR 0073
ENCODING 115
SWIDTH 360 0
DWIDTH 7 0
BBX 6 9 1 0
BITMAP
70
F8
C0
60
38
08
8C
C8
78
ENDCHAR
STARTCHAR 0074
ENCODING 116
SWIDTH 308 0
DWIDTH 6 0
BBX 5 11 1 0
BITMAP
20
20
F8
F8
20
20
20
20
20
20
38
ENDCHAR
STARTCHAR 0075
ENCODING 117
SWIDTH 462 0
DWIDTH 9 0
BBX 8 9 1 0
BITMAP
83
83
83
83
83
83
C7
4F
7F
ENDCHAR
STARTCHAR 0076
ENCODING 118
SWIDTH 462 0
DWIDTH 9 0
BBX 8 9 1 0
BITMAP
C3
C2
46
66
64
2C
3C
18
18
ENDCHAR
STARTCHAR 0077
ENCODING 119
SWIDTH 617 0
DWIDTH 12 0
BBX 11 9 1 0
BITMAP
C460
CC40
4E40
4AC0
6AC0
7B80
3380
3180
3180
ENDCHAR
STARTCHAR 0078
ENCODING 120
SWIDTH 462 0
DWIDTH 9 0
BBX 8 9 1 0
BITMAP
C3
66
24
3C
18
38
2C
66
C2
ENDCHAR
STARTCHAR 0079
ENCODING 121
SWIDTH 462 0
DWIDTH 9 0
BBX 8 13 1 -4
BITMAP
C3
C2
46
66
64
2C
3C
18
18
10
10
30
60
ENDCHAR
STARTCHAR 007A
ENCODING 122
SWIDTH 360 0
DWIDTH 7 0
BBX 6 9 1 0
BITMAP
FC
FC
08
18
30
60
40
C0
FC
ENDCHAR
STARTCHAR 007B
ENCODING 123
SWIDTH 257 0
DWIDTH 5 0
BBX 4 17 1 -4
BITMAP
10
30
60
60
60
60
60
40
C0
40
60
60
60
60
60
60
30
ENDCHAR
STARTCHAR 007C
ENCODING 124
SWIDTH 154 0
DWIDTH 3 0
BBX 1 17 1 -4
BITMAP
80
80
80
80
80
80
80
80
80
80
80
80
80
80
80
80
80
ENDCHAR
STARTCHAR 007D
ENCODING 125
SWIDTH 257 0
DWIDTH 5 0
BBX 4 17 1 -4
BITMAP
80
C0
60
60
60
60
60
60
30
60
60
60
60
60
60
C0
80
ENDCHAR
STARTCHAR 007E
ENCODING 126
SWIDTH 565 0
DWIDTH 11 0
BBX 9 3 1 5
BITMAP
7000
DC80
8F80
ENDCHAR
STARTCHAR 00A0
ENCODING 160
SWIDTH 205 0
DWIDTH 4 0
BBX 0 0 0 0
BITMAP
ENDCHAR
STARTCHAR 00A1
ENCODING 161
SWIDTH 154 0
DWIDTH 3 0
BBX 2 13 1 -4
BITMAP
80
C0
00
00
80
80
80
80
80
80
80
80
80
ENDCHAR
STARTCHAR 00A2
ENCODING 162
SWIDTH 462 0
DWIDTH 9 0
BBX 7 13 1 -2
BITMAP
06
04
3C
7E
CE
D8
90
B0
F2
66
7C
40
40
ENDCHAR
STARTCHAR 00A3
ENCODING 163
SWIDTH 462 0
DWIDTH 9 0
BBX 8 13 1 0
BITMAP
1C
3E
63
60
40
40
FC
20
20
20
60
60
FF
ENDCHAR
STARTCHAR 00A4
ENCODING 164
SWIDTH 514 0
DWIDTH 10 0
BBX 8 9 1 2
BITMAP
01
DB
7E
62
43
42
66
FF
81
ENDCHAR
STARTCHAR 00A5
ENCODING 165
SWIDTH 617 0
DWIDTH 12 0
BBX 10 13 1 0
BITMAP
C040
40C0
6180
3100
1B00
1E00
7F80
7F80
0C00
7F80
0C00
0C00
0C00
ENDCHAR
STARTCHAR 00A6
ENCODING 166
SWIDTH 154 0
DWIDTH 3 0
BBX 1 17 1 -4
BITMAP
80
80
80
80
80
80
80
00
00
00
80
80
80
80
80
80
80
ENDCHAR
STARTCHAR 00A7
ENCODING 167
SWIDTH 462 0
DWIDTH 9 0
BBX 8 17 1 -4
BITMAP
18
7C
46
C2
40
60
F8
8E
C2
63
3A
0E
06
02
46
6E
3C
ENDCHAR
STARTCHAR 00A8
ENCODING 168
SWIDTH 360 0
DWIDTH 7 0
BBX 5 2 1 10
BITMAP
D8
D8
ENDCHAR
STARTCHAR 00A9
ENCODING 169
SWIDTH 720 0
DWIDTH 14 0
BBX 13 13 1 0
BITMAP
0700
1FC0
3060
6030
C710
CD18
8818
8818
CF98
4710
6030
38E0
1F80
ENDCHAR
STARTCHAR 00AA
ENCODING 170
SWIDTH 257 0
DWIDTH 5 0
BBX 4 6 1 7
BITMAP
60
10
F0
F0
00
F0
ENDCHAR
STARTCHAR 00AB
ENCODING 171
SWIDTH 411 0
DWIDTH 8 0
BBX 6 7 1 1
BITMAP
14
28
58
B0
50
28
04
ENDCHAR
STARTCHAR 00AC
ENCODING 172
SWIDTH 514 0
DWIDTH 10 0
BBX 8 4 1 3
BITMAP
FF
01
01
01
ENDCHAR
STARTCHAR 00AD
ENCODING 173
SWIDTH 308 0
DWIDTH 6 0
BBX 5 1 1 4
BITMAP
F8
ENDCHAR
STARTCHAR 00AE
ENCODING 174
SWIDTH 720 0
DWIDTH 14 0
BBX 13 13 1 0
BITMAP
0700
1FC0
3060
6030
CF10
CD98
8F98
8F18
CD98
4D90
6030
38E0
1F80
ENDCHAR
STARTCHAR 00AF
ENCODING 175
SWIDTH 308 0
DWIDTH 6 0
BBX 5 2 1 10
BITMAP
F8
F8
ENDCHAR
STARTCHAR 00B0
ENCODING 176
SWIDTH 360 0
DWIDTH 7 0
BBX 5 6 1 7
BITMAP
30
F8
88
C8
F8
20
ENDCHAR
STARTCHAR 00B1
ENCODING 177
SWIDTH 514 0
DWIDTH 10 0
BBX 8 10 1 1
BITMAP
08
08
08
FF
FF
08
08
08
00
FF
ENDCHAR
STARTCHAR 00B2
ENCODING 178
SWIDTH 257 0
DWIDTH 5 0
BBX 4 6 1 9
BITMAP
E0
90
20
60
80
F0
ENDCHAR
STARTCHAR 00B3
ENCODING 179
SWIDTH 257 0
DWIDTH 5 0
BBX 4 6 1 8
BITMAP
E0
90
20
30
10
F0
ENDCHAR
STARTCHAR 00B4
ENCODING 180
SWIDTH 257 0
DWIDTH 5 0
BBX 3 3 1 10
BITMAP
60
40
80
ENDCHAR
STARTCHAR 00B5
ENCODING 181
SWIDTH 462 0
DWIDTH 9 0
BBX 8 13 1 -4
BITMAP
83
83
83
83
83
83
C3
E7
BF
80
80
80
80
ENDCHAR
STARTCHAR 00B6
ENCODING 182
SWIDTH 462 0
DWIDTH 9 0
BBX 7 17 1 -4
BITMAP
1E
7E
FA
FA
FA
FA
7A
0A
0A
0A
0A
0A
0A
0A
0A
0A
0A
ENDCHAR
STARTCHAR 00B7
ENCODING 183
SWIDTH 154 0
DWIDTH 3 0
BBX 2 2 1 5
BITMAP
C0
C0
ENDCHAR
STARTCHAR 00B8
ENCODING 184
SWIDTH 257 0
DWIDTH 5 0
BBX 4 4 1 -4
BITMAP
40
30
10
E0
ENDCHAR
STARTCHAR 00B9
ENCODING 185
SWIDTH 257 0
DWIDTH 5 0
BBX 3 6 1 9
BITMAP
40
C0
40
40
40
E0
ENDCHAR
STARTCHAR 00BA
ENCODING 186
SWIDTH 308 0
DWIDTH 6 0
BBX 5 6 1 7
BITMAP
70
90
90
70
00
F8
ENDCHAR
STARTCHAR 00BB
ENCODING 187
SWIDTH 411 0
DWIDTH 8 0
BBX 6 7 1 1
BITMAP
A0
50
28
34
28
50
80
ENDCHAR
STARTCHAR 00BC
ENCODING 188
SWIDTH 462 0
DWIDTH 9 0
BBX 8 16 1 -2
BITMAP
10
30
10
10
10
38
00
FF
00
08
18
38
28
7C
08
08
ENDCHAR
STARTCHAR 00BD
ENCODING 189
SWIDTH 462 0
DWIDTH 9 0
BBX 8 16 1 -2
BITMAP
10
30
10
10
10
38
00
FF
00
18
2C
0C
18
30
20
3C
ENDCHAR
STARTCHAR 00BE
ENCODING 190
SWIDTH 462 0
DWIDTH 9 0
BBX 8 16 1 -2
BITMAP
38
28
18
08
04
38
00
FF
00
08
18
38
28
7C
08
08
ENDCHAR
STARTCHAR 00BF
ENCODING 191
SWIDTH 411 0
DWIDTH 8 0
BBX 6 13 1 -4
BITMAP
30
30
00
00
30
30
60
40
C0
80
C4
EC
78
ENDCHAR
STARTCHAR 00C0
ENCODING 192
SWIDTH 617 0
DWIDTH 12 0
BBX 10 16 1 0
BITMAP
0800
0400
0000
0400
0C00
0E00
1A00
1A00
1300
3100
3F80
2180
6080
40C0
C040
C040
ENDCHAR
STARTCHAR 00C1
ENCODING 193
SWIDTH 617 0
DWIDTH 12 0
BBX 10 16 1 0
BITMAP
0600
0400
0800
0400
0C00
0E00
1A00
1A00
1300
3100
3F80
2180
6080
40C0
C040
C040
ENDCHAR
STARTCHAR 00C2
ENCODING 194
SWIDTH 617 0
DWIDTH 12 0
BBX 10 16 1 0
BITMAP
0E00
1200
0100
0400
0C00
0E00
1A00
1A00
1300
3100
3F80
2180
6080
40C0
C040
C040
ENDCHAR
STARTCHAR 00C3
ENCODING 195
SWIDTH 617 0
DWIDTH 12 0
BBX 10 16 1 0
BITMAP
3880
2700
0000
0400
0C00
0E00
1A00
1A00
1300
3100
3F80
2180
6080
40C0
C040
C040
ENDCHAR
STARTCHAR 00C4
ENCODING 196
SWIDTH 617 0
DWIDTH 12 0
BBX 10 16 1 0
BITMAP
1B00
1B00
0000
0400
0C00
0E00
1A00
1A00
1300
3100
3F80
2180
6080
40C0
C040
C040
ENDCHAR
STARTCHAR 00C5
ENCODING 197
SWIDTH 617 0
DWIDTH 12 0
BBX 10 17 1 0
BITMAP
0400
0A00
0A00
0C00
0400
0C00
0E00
1A00
1A00
1300
3100
3F80
2180
6080
40C0
C040
C040
ENDCHAR
STARTCHAR 00C6
ENCODING 198
SWIDTH 720 0
DWIDTH 14 0
BBX 12 13 1 0
BITMAP
07F0
0FF0
0B00
1B00
1B00
1300
3FE0
2300
2300
6300
4300
C300
C3F0
ENDCHAR
STARTCHAR 00C7
ENCODING 199
SWIDTH 565 0
DWIDTH 11 0
BBX 9 17 1 -4
BITMAP
0E00
3F00
6180
4080
C000
8000
8000
8000
C000
C000
6080
3380
1F00
0800
0600
0200
1C00
ENDCHAR
STARTCHAR 00C8
ENCODING 200
SWIDTH 462 0
DWIDTH 9 0
BBX 8 16 1 0
BITMAP
30
08
00
FF
FF
80
80
80
80
FE
80
80
80
80
80
FF
ENDCHAR
STARTCHAR 00C9
ENCODING 201
SWIDTH 462 0
DWIDTH 9 0
BBX 8 16 1 0
BITMAP
0C
10
00
FF
FF
80
80
80
80
FE
80
80
80
80
80
FF
ENDCHAR
STARTCHAR 00CA
ENCODING 202
SWIDTH 462 0
DWIDTH 9 0
BBX 8 16 1 0
BITMAP
18
24
00
FF
FF
80
80
80
80
FE
80
80
80
80
80
FF
ENDCHAR
STARTCHAR 00CB
ENCODING 203
SWIDTH 462 0
DWIDTH 9 0
BBX 8 16 1 0
BITMAP
64
66
00
FF
FF
80
80
80
80
FE
80
80
80
80
80
FF
ENDCHAR
STARTCHAR 00CC
ENCODING 204
SWIDTH 308 0
DWIDTH 6 0
BBX 4 16 1 0
BITMAP
C0
20
00
F0
F0
60
60
60
60
60
60
60
60
60
60
F0
ENDCHAR
STARTCHAR 00CD
ENCODING 205
SWIDTH 308 0
DWIDTH 6 0
BBX 4 16 1 0
BITMAP
30
40
00
F0
F0
60
60
60
60
60
60
60
60
60
60
F0
ENDCHAR
STARTCHAR 00CE
ENCODING 206
SWIDTH 308 0
DWIDTH 6 0
BBX 4 16 1 0
BITMAP
60
90
00
F0
F0
60
60
60
60
60
60
60
60
60
60
F0
ENDCHAR
STARTCHAR 00CF
ENCODING 207
SWIDTH 308 0
DWIDTH 6 0
BBX 6 16 0 0
BITMAP
C8
CC
00
78
78
30
30
30
30
30
30
30
30
30
30
78
ENDCHAR
STARTCHAR 00D0
ENCODING 208
SWIDTH 617 0
DWIDTH 12 0
BBX 10 13 1 0
BITMAP
FC00
FF00
6180
60C0
6040
6040
FC40
6040
6040
6040
6080
6380
FE00
ENDCHAR
STARTCHAR 00D1
ENCODING 209
SWIDTH 565 0
DWIDTH 11 0
BBX 10 16 1 0
BITMAP
3900
2700
0000
80C0
C0C0
E0C0
B0C0
B0C0
98C0
8CC0
84C0
86C0
83C0
81C0
81C0
80C0
ENDCHAR
STARTCHAR 00D2
ENCODING 210
SWIDTH 617 0
DWIDTH 12 0
BBX 10 16 1 0
BITMAP
1800
0400
0000
0E00
3F00
6180
40C0
C040
8040
8040
8040
C040
C0C0
6080
3380
1F00
ENDCHAR
STARTCHAR 00D3
ENCODING 211
SWIDTH 617 0
DWIDTH 12 0
BBX 10 16 1 0
BITMAP
0600
0400
0000
0E00
3F00
6180
40C0
C040
8040
8040
8040
C040
C0C0
6080
3380
1F00
ENDCHAR
STARTCHAR 00D4
ENCODING 212
SWIDTH 617 0
DWIDTH 12 0
BBX 10 16 1 0
BITMAP
0E00
1200
0100
0E00
3F00
6180
40C0
C040
8040
8040
8040
C040
C0C0
6080
3380
1F00
ENDCHAR
STARTCHAR 00D5
ENCODING 213
SWIDTH 617 0
DWIDTH 12 0
BBX 10 16 1 0
BITMAP
3900
2700
0000
0E00
3F00
6180
40C0
C040
8040
8040
8040
C040
C0C0
6080
3380
1F00
ENDCHAR
STARTCHAR 00D6
ENCODING 214
SWIDTH 617 0
DWIDTH 12 0
BBX 10 16 1 0
BITMAP
1300
1B00
0000
0E00
3F00
6180
40C0
C040
8040
8040
8040
C040
C0C0
6080
3380
1F00
ENDCHAR
STARTCHAR 00D7
ENCODING 215
SWIDTH 514 0
DWIDTH 10 0
BBX 6 7 2 3
BITMAP
84
CC
78
30
78
CC
84
ENDCHAR
STARTCHAR 00D8
ENCODING 216
SWIDTH 617 0
DWIDTH 12 0
BBX 10 13 1 -1
BITMAP
0E40
3FC0
6180
41C0
C340
8640
8C40
8C40
D840
F0C0
6080
7380
DF00
ENDCHAR
STARTCHAR 00D9
ENCODING 217
SWIDTH 565 0
DWIDTH 11 0
BBX 9 16 1 0
BITMAP
1800
0800
0400
8080
8080
8080
8080
8080
8080
8080
8080
8080
C080
C180
6300
3E00
ENDCHAR
STARTCHAR 00DA
ENCODING 218
SWIDTH 565 0
DWIDTH 11 0
BBX 9 16 1 0
BITMAP
0400
0800
0000
8080
8080
8080
8080
8080
8080
8080
8080
8080
C080
C180
6300
3E00
ENDCHAR
STARTCHAR 00DB
ENCODING 219
SWIDTH 565 0
DWIDTH 11 0
BBX 9 16 1 0
BITMAP
1C00
1200
2000
8080
8080
8080
8080
8080
8080
8080
8080
8080
C080
C180
6300
3E00
ENDCHAR
STARTCHAR 00DC
ENCODING 220
SWIDTH 565 0
DWIDTH 11 0
BBX 9 16 1 0
BITMAP
3600
3600
0000
8080
8080
8080
8080
8080
8080
8080
8080
8080
C080
C180
6300
3E00
ENDCHAR
STARTCHAR 00DD
ENCODING 221
SWIDTH 617 0
DWIDTH 12 0
BBX 10 16 1 0
BITMAP
0600
0400
0800
C040
40C0
6180
3100
1B00
1E00
0C00
0C00
0C00
0C00
0C00
0C00
0C00
ENDCHAR
STARTCHAR 00DE
ENCODING 222
SWIDTH 462 0
DWIDTH 9 0
BBX 7 13 1 0
BITMAP
80
80
80
F0
FE
82
82
82
86
FC
80
80
80
ENDCHAR
STARTCHAR 00DF
ENCODING 223
SWIDTH 462 0
DWIDTH 9 0
BBX 8 17 1 -4
BITMAP
38
7C
C6
86
86
8C
8C
86
82
83
82
86
BC
80
80
80
80
ENDCHAR
STARTCHAR 00E0
ENCODING 224
SWIDTH 360 0
DWIDTH 7 0
BBX 6 13 1 0
BITMAP
60
20
10
00
38
7C
0C
0C
7C
CC
8C
CC
7C
ENDCHAR
STARTCHAR 00E1
ENCODING 225
SWIDTH 360 0
DWIDTH 7 0
BBX 6 13 1 0
BITMAP
18
10
20
00
38
7C
0C
0C
7C
CC
8C
CC
7C
ENDCHAR
STARTCHAR 00E2
ENCODING 226
SWIDTH 360 0
DWIDTH 7 0
BBX 6 13 1 0
BITMAP
30
70
48
00
38
7C
0C
0C
7C
CC
8C
CC
7C
ENDCHAR
STARTCHAR 00E3
ENCODING 227
SWIDTH 360 0
DWIDTH 7 0
BBX 6 12 1 0
BITMAP
E4
9C
00
38
7C
0C
0C
7C
CC
8C
CC
7C
ENDCHAR
STARTCHAR 00E4
ENCODING 228
SWIDTH 360 0
DWIDTH 7 0
BBX 6 12 1 0
BITMAP
CC
C8
00
38
7C
0C
0C
7C
CC
8C
CC
7C
ENDCHAR
STARTCHAR 00E5
ENCODING 229
SWIDTH 360 0
DWIDTH 7 0
BBX 6 13 1 0
BITMAP
30
28
28
10
38
7C
0C
0C
7C
CC
8C
CC
7C
ENDCHAR
STARTCHAR 00E6
ENCODING 230
SWIDTH 720 0
DWIDTH 14 0
BBX 12 9 1 0
BITMAP
39C0
7FE0
0E30
0FF0
7FF0
CC00
8C20
CE60
7BC0
ENDCHAR
STARTCHAR 00E7
ENCODING 231
SWIDTH 462 0
DWIDTH 9 0
BBX 7 13 1 -4
BITMAP
38
7E
C6
C0
80
80
C2
66
3C
10
0C
04
38
ENDCHAR
STARTCHAR 00E8
ENCODING 232
SWIDTH 462 0
DWIDTH 9 0
BBX 8 13 1 0
BITMAP
20
10
10
00
38
7E
C6
FE
FF
80
C2
66
3C
ENDCHAR
STARTCHAR 00E9
ENCODING 233
SWIDTH 462 0
DWIDTH 9 0
BBX 8 13 1 0
BITMAP
0C
08
10
00
38
7E
C6
FE
FF
80
C2
66
3C
ENDCHAR
STARTCHAR 00EA
ENCODING 234
SWIDTH 462 0
DWIDTH 9 0
BBX 8 13 1 0
BITMAP
18
38
24
00
38
7E
C6
FE
FF
80
C2
66
3C
ENDCHAR
STARTCHAR 00EB
ENCODING 235
SWIDTH 462 0
DWIDTH 9 0
BBX 8 12 1 0
BITMAP
6C
64
00
38
7E
C6
FE
FF
80
C2
66
3C
ENDCHAR
STARTCHAR 00EC
ENCODING 236
SWIDTH 154 0
DWIDTH 3 0
BBX 3 13 -1 0
BITMAP
C0
20
20
00
20
20
20
20
20
20
20
20
20
ENDCHAR
STARTCHAR 00ED
ENCODING 237
SWIDTH 154 0
DWIDTH 3 0
BBX 3 13 1 0
BITMAP
60
C0
80
00
80
80
80
80
80
80
80
80
80
ENDCHAR
STARTCHAR 00EE
ENCODING 238
SWIDTH 154 0
DWIDTH 3 0
BBX 4 13 0 0
BITMAP
60
E0
90
00
40
40
40
40
40
40
40
40
40
ENDCHAR
STARTCHAR 00EF
ENCODING 239
SWIDTH 154 0
DWIDTH 3 0
BBX 5 12 -1 0
BITMAP
D8
D8
00
20
20
20
20
20
20
20
20
20
ENDCHAR
STARTCHAR 00F0
ENCODING 240
SWIDTH 462 0
DWIDTH 9 0
BBX 8 13 1 0
BITMAP
39
3F
0E
0A
3B
7F
C7
C3
83
83
C2
66
3C
ENDCHAR
STARTCHAR 00F1
ENCODING 241
SWIDTH 462 0
DWIDTH 9 0
BBX 8 12 1 0
BITMAP
72
8E
00
BC
FE
C2
C2
83
83
83
83
83
ENDCHAR
STARTCHAR 00F2
ENCODING 242
SWIDTH 462 0
DWIDTH 9 0
BBX 8 13 1 0
BITMAP
20
10
10
00
38
7E
C6
C2
83
82
C2
66
3C
ENDCHAR
STARTCHAR 00F3
ENCODING 243
SWIDTH 462 0
DWIDTH 9 0
BBX 8 13 1 0
BITMAP
0C
08
10
00
38
7E
C6
C2
83
82
C2
66
3C
ENDCHAR
STARTCHAR 00F4
ENCODING 244
SWIDTH 462 0
DWIDTH 9 0
BBX 8 13 1 0
BITMAP
18
38
24
00
38
7E
C6
C2
83
82
C2
66
3C
ENDCHAR
STARTCHAR 00F5
ENCODING 245
SWIDTH 462 0
DWIDTH 9 0
BBX 8 12 1 0
BITMAP
72
8E
00
38
7E
C6
C2
83
82
C2
66
3C
ENDCHAR
STARTCHAR 00F6
ENCODING 246
SWIDTH 462 0
DWIDTH 9 0
BBX 8 12 1 0
BITMAP
6C
64
00
38
7E
C6
C2
83
82
C2
66
3C
ENDCHAR
STARTCHAR 00F7
ENCODING 247
SWIDTH 514 0
DWIDTH 10 0
BBX 8 8 1 2
BITMAP
18
18
00
FF
00
00
18
08
ENDCHAR
STARTCHAR 00F8
ENCODING 248
SWIDTH 462 0
DWIDTH 9 0
BBX 8 11 1 -1
BITMAP
02
3B
7E
CE
CA
9B
B2
E2
66
FC
80
ENDCHAR
STARTCHAR 00F9
ENCODING 249
SWIDTH 462 0
DWIDTH 9 0
BBX 8 13 1 0
BITMAP
20
10
10
00
83
83
83
83
83
83
C7
4F
7F
ENDCHAR
STARTCHAR 00FA
ENCODING 250
SWIDTH 462 0
DWIDTH 9 0
BBX 8 13 1 0
BITMAP
0C
08
10
00
83
83
83
83
83
83
C7
4F
7F
ENDCHAR
STARTCHAR 00FB
ENCODING 251
SWIDTH 462 0
DWIDTH 9 0
BBX 8 13 1 0
BITMAP
18
38
24
00
83
83
83
83
83
83
C7
4F
7F
ENDCHAR
STARTCHAR 00FC
ENCODING 252
SWIDTH 462 0
DWIDTH 9 0
BBX 8 12 1 0
BITMAP
6C
64
00
83
83
83
83
83
83
C7
4F
7F
ENDCHAR
STARTCHAR 00FD
ENCODING 253
SWIDTH 462 0
DWIDTH 9 0
BBX 8 17 1 -4
BITMAP
0C
08
10
00
C3
C2
46
66
64
2C
3C
18
18
10
10
30
60
ENDCHAR
STARTCHAR 00FE
ENCODING 254
SWIDTH 462 0
DWIDTH 9 0
BBX 8 17 1 -4
BITMAP
80
80
80
80
B8
FE
C6
C2
83
82
C2
E6
BC
80
80
80
80
ENDCHAR
STARTCHAR 00FF
ENCODING 255
SWIDTH 462 0
DWIDTH 9 0
BBX 8 16 1 -4
BITMAP
66
24
00
C3
C2
46
66
64
2C
3C
18
18
10
10
30
60
ENDCHAR
STARTCHAR 0100
ENCODING 256
SWIDTH 617 0
DWIDTH 12 0
BBX 10 15 1 0
BITMAP
1F00
0000
0400
0C00
0E00
1A00
1A00
1300
3100
3F80
2180
6080
40C0
C040
C040
ENDCHAR
STARTCHAR 0101
ENCODING 257
SWIDTH 360 0
DWIDTH 7 0
BBX 6 12 1 0
BITMAP
7C
7C
00
38
7C
0C
0C
7C
CC
8C
CC
7C
ENDCHAR
STARTCHAR 0102
ENCODING 258
SWIDTH 617 0
DWIDTH 12 0
BBX 10 16 1 0
BITMAP
1100
1E00
0000
0400
0C00
0E00
1A00
1A00
1300
3100
3F80
2180
6080
40C0
C040
C040
ENDCHAR
STARTCHAR 0103
ENCODING 259
SWIDTH 360 0
DWIDTH 7 0
BBX 6 13 1 0
BITMAP
8C
C8
78
00
38
7C
0C
0C
7C
CC
8C
CC
7C
ENDCHAR
STARTCHAR 0104
ENCODING 260
SWIDTH 617 0
DWIDTH 12 0
BBX 12 17 1 -4
BITMAP
0400
0C00
0E00
1A00
1A00
1300
3100
3F80
2180
6080
40C0
C040
C040
0080
00C0
0060
0030
ENDCHAR
STARTCHAR 0105
ENCODING 261
SWIDTH 360 0
DWIDTH 7 0
BBX 8 13 1 -4
BITMAP
38
7C
0C
0C
7C
CC
8C
CC
7C
08
08
0E
01
ENDCHAR
STARTCHAR 0106
ENCODING 262
SWIDTH 565 0
DWIDTH 11 0
BBX 9 16 1 0
BITMAP
0400
0800
0000
0E00
3F00
6180
4080
C000
8000
8000
8000
C000
C000
6080
3380
1F00
ENDCHAR
STARTCHAR 0107
ENCODING 263
SWIDTH 462 0
DWIDTH 9 0
BBX 7 13 1 0
BITMAP
0C
18
10
00
38
7E
C6
C0
80
80
C2
66
3C
ENDCHAR
STARTCHAR 0108
ENCODING 264
SWIDTH 565 0
DWIDTH 11 0
BBX 9 16 1 0
BITMAP
1C00
1200
2000
0E00
3F00
6180
4080
C000
8000
8000
8000
C000
C000
6080
3380
1F00
ENDCHAR
STARTCHAR 0109
ENCODING 265
SWIDTH 462 0
DWIDTH 9 0
BBX 7 13 1 0
BITMAP
10
28
48
00
38
7E
C6
C0
80
80
C2
66
3C
ENDCHAR
STARTCHAR 010A
ENCODING 266
SWIDTH 565 0
DWIDTH 11 0
BBX 9 16 1 0
BITMAP
0C00
0C00
0000
0E00
3F00
6180
4080
C000
8000
8000
8000
C000
C000
6080
3380
1F00
ENDCHAR
STARTCHAR 010B
ENCODING 267
SWIDTH 462 0
DWIDTH 9 0
BBX 7 12 1 0
BITMAP
10
10
00
38
7E
C6
C0
80
80
C2
66
3C
ENDCHAR
STARTCHAR 010C
ENCODING 268
SWIDTH 565 0
DWIDTH 11 0
BBX 9 16 1 0
BITMAP
1200
1C00
0C00
0E00
3F00
6180
4080
C000
8000
8000
8000
C000
C000
6080
3380
1F00
ENDCHAR
STARTCHAR 010D
ENCODING 269
SWIDTH 462 0
DWIDTH 9 0
BBX 7 13 1 0
BITMAP
44
28
38
00
38
7E
C6
C0
80
80
C2
66
3C
ENDCHAR
STARTCHAR 010E
ENCODING 270
SWIDTH 617 0
DWIDTH 12 0
BBX 10 16 1 0
BITMAP
1200
0E00
0C00
FC00
FF00
6180
60C0
6040
6040
6040
6040
6040
60C0
6180
6380
FE00
ENDCHAR
STARTCHAR 010F
ENCODING 271
SWIDTH 617 0
DWIDTH 12 0
BBX 11 13 1 0
BITMAP
0340
03E0
0320
0320
3B40
7F00
C700
C300
8300
8300
C300
6700
3F00
ENDCHAR
STARTCHAR 0110
ENCODING 272
SWIDTH 617 0
DWIDTH 12 0
BBX 10 13 1 0
BITMAP
FC00
FF00
6180
60C0
6040
6040
FC40
6040
6040
6040
6080
6380
FE00
ENDCHAR
STARTCHAR 0111
ENCODING 273
SWIDTH 462 0
DWIDTH 9 0
BBX 9 13 1 0
BITMAP
0300
0300
0F80
0300
3B00
7F00
C700
C300
8300
8300
C300
6700
3F00
ENDCHAR
STARTCHAR 0112
ENCODING 274
SWIDTH 462 0
DWIDTH 9 0
BBX 8 15 1 0
BITMAP
3C
00
FF
FF
80
80
80
80
FE
80
80
80
80
80
FF
ENDCHAR
STARTCHAR 0113
ENCODING 275
SWIDTH 462 0
DWIDTH 9 0
BBX 8 12 1 0
BITMAP
7C
7C
00
38
7E
C6
FE
FF
80
C2
66
3C
ENDCHAR
STARTCHAR 0114
ENCODING 276
SWIDTH 462 0
DWIDTH 9 0
BBX 8 16 1 0
BITMAP
64
3C
00
FF
FF
80
80
80
80
FE
80
80
80
80
80
FF
ENDCHAR
STARTCHAR 0115
ENCODING 277
SWIDTH 462 0
DWIDTH 9 0
BBX 8 13 1 0
BITMAP
44
64
38
00
38
7E
C6
FE
FF
80
C2
66
3C
ENDCHAR
STARTCHAR 0116
ENCODING 278
SWIDTH 462 0
DWIDTH 9 0
BBX 8 16 1 0
BITMAP
18
18
00
FF
FF
80
80
80
80
FE
80
80
80
80
80
FF
ENDCHAR
STARTCHAR 0117
ENCODING 279
SWIDTH 462 0
DWIDTH 9 0
BBX 8 12 1 0
BITMAP
18
18
00
38
7E
C6
FE
FF
80
C2
66
3C
ENDCHAR
STARTCHAR 0118
ENCODING 280
SWIDTH 462 0
DWIDTH 9 0
BBX 9 17 1 -4
BITMAP
FF00
FF00
8000
8000
8000
8000
FE00
8000
8000
8000
8000
8000
FF00
0400
0400
0680
0100
ENDCHAR
STARTCHAR 0119
ENCODING 281
SWIDTH 462 0
DWIDTH 9 0
BBX 8 13 1 -4
BITMAP
38
7E
C6
FE
FF
80
C2
66
3C
10
10
1C
02
ENDCHAR
STARTCHAR 011A
ENCODING 282
SWIDTH 462 0
DWIDTH 9 0
BBX 8 16 1 0
BITMAP
24
38
18
FF
FF
80
80
80
80
FE
80
80
80
80
80
FF
ENDCHAR
STARTCHAR 011B
ENCODING 283
SWIDTH 462 0
DWIDTH 9 0
BBX 8 13 1 0
BITMAP
40
24
38
00
38
7E
C6
FE
FF
80
C2
66
3C
ENDCHAR
STARTCHAR 011C
ENCODING 284
SWIDTH 565 0
DWIDTH 11 0
BBX 10 16 1 0
BITMAP
1C00
1200
2000
0E00
3F00
6180
4080
C000
8000
87C0
87C0
C0C0
C0C0
6080
3380
1F00
ENDCHAR
STARTCHAR 011D
ENCODING 285
SWIDTH 462 0
DWIDTH 9 0
BBX 8 17 1 -4
BITMAP
18
38
24
00
3D
7F
C2
83
C2
7E
F8
C0
7E
02
83
E6
3C
ENDCHAR
STARTCHAR 011E
ENCODING 286
SWIDTH 565 0
DWIDTH 11 0
BBX 10 16 1 0
BITMAP
2200
1E00
0000
0E00
3F00
6180
4080
C000
8000
87C0
87C0
C0C0
C0C0
6080
3380
1F00
ENDCHAR
STARTCHAR 011F
ENCODING 287
SWIDTH 462 0
DWIDTH 9 0
BBX 8 17 1 -4
BITMAP
44
64
38
00
3D
7F
C2
83
C2
7E
F8
C0
7E
02
83
E6
3C
ENDCHAR
STARTCHAR 0120
ENCODING 288
SWIDTH 565 0
DWIDTH 11 0
BBX 10 16 1 0
BITMAP
0C00
0C00
0000
0E00
3F00
6180
4080
C000
8000
87C0
87C0
C0C0
C0C0
6080
3380
1F00
ENDCHAR
STARTCHAR 0121
ENCODING 289
SWIDTH 462 0
DWIDTH 9 0
BBX 8 16 1 -4
BITMAP
18
18
00
3D
7F
C2
83
C2
7E
F8
C0
7E
02
83
E6
3C
ENDCHAR
STARTCHAR 0122
ENCODING 290
SWIDTH 565 0
DWIDTH 11 0
BBX 10 17 1 -4
BITMAP
0E00
3F00
6180
4080
C000
8000
87C0
87C0
C0C0
C0C0
6080
3380
1F00
0800
0600
0200
1C00
ENDCHAR
STARTCHAR 0123
ENCODING 291
SWIDTH 462 0
DWIDTH 9 0
BBX 8 18 1 -4
BITMAP
18
20
20
18
10
3D
7F
C2
83
C2
7E
F8
C0
7E
02
83
E6
3C
ENDCHAR
STARTCHAR 0124
ENCODING 292
SWIDTH 462 0
DWIDTH 9 0
BBX 8 16 1 0
BITMAP
18
24
00
83
83
83
83
83
83
FF
83
83
83
83
83
83
ENDCHAR
STARTCHAR 0125
ENCODING 293
SWIDTH 462 0
DWIDTH 9 0
BBX 8 16 1 0
BITMAP
38
24
40
80
80
80
80
BC
FE
C2
C2
83
83
83
83
83
ENDCHAR
STARTCHAR 0126
ENCODING 294
SWIDTH 617 0
DWIDTH 12 0
BBX 11 13 1 0
BITMAP
6080
6080
FFE0
FFE0
6080
6080
7F80
6080
6080
6080
6080
6080
6080
ENDCHAR
STARTCHAR 0127
ENCODING 295
SWIDTH 514 0
DWIDTH 10 0
BBX 9 13 1 0
BITMAP
6000
6000
FF00
6000
6E00
7F00
7180
6180
6080
6080
6080
6080
6080
ENDCHAR
STARTCHAR 0128
ENCODING 296
SWIDTH 308 0
DWIDTH 6 0
BBX 6 16 0 0
BITMAP
E4
9C
00
78
78
30
30
30
30
30
30
30
30
30
30
78
ENDCHAR
STARTCHAR 0129
ENCODING 297
SWIDTH 154 0
DWIDTH 3 0
BBX 7 12 -2 0
BITMAP
72
8C
00
10
10
10
10
10
10
10
10
10
ENDCHAR
STARTCHAR 012A
ENCODING 298
SWIDTH 308 0
DWIDTH 6 0
BBX 4 15 1 0
BITMAP
F0
00
F0
F0
60
60
60
60
60
60
60
60
60
60
F0
ENDCHAR
STARTCHAR 012B
ENCODING 299
SWIDTH 154 0
DWIDTH 3 0
BBX 5 12 -1 0
BITMAP
F8
F8
00
20
20
20
20
20
20
20
20
20
ENDCHAR
STARTCHAR 012C
ENCODING 300
SWIDTH 308 0
DWIDTH 6 0
BBX 5 16 1 0
BITMAP
98
F0
00
F0
F0
60
60
60
60
60
60
60
60
60
60
F0
ENDCHAR
STARTCHAR 012D
ENCODING 301
SWIDTH 154 0
DWIDTH 3 0
BBX 5 13 -1 0
BITMAP
88
88
70
00
20
20
20
20
20
20
20
20
20
ENDCHAR
STARTCHAR 012E
ENCODING 302
SWIDTH 308 0
DWIDTH 6 0
BBX 6 17 1 -4
BITMAP
F0
F0
60
60
60
60
60
60
60
60
60
60
F0
40
20
34
08
ENDCHAR
STARTCHAR 012F
ENCODING 303
SWIDTH 154 0
DWIDTH 3 0
BBX 4 16 1 -4
BITMAP
C0
C0
00
80
80
80
80
80
80
80
80
80
80
80
E0
10
ENDCHAR
STARTCHAR 0130
ENCODING 304
SWIDTH 308 0
DWIDTH 6 0
BBX 4 16 1 0
BITMAP
60
60
00
F0
F0
60
60
60
60
60
60
60
60
60
60
F0
ENDCHAR
STARTCHAR 0131
ENCODING 305
SWIDTH 154 0
DWIDTH 3 0
BBX 1 9 1 0
BITMAP
80
80
80
80
80
80
80
80
80
ENDCHAR
STARTCHAR 0132
ENCODING 306
SWIDTH 617 0
DWIDTH 12 0
BBX 10 13 1 0
BITMAP
F040
F040
6040
6040
6040
6040
6040
6040
6040
6040
6040
6640
F3C0
ENDCHAR
STARTCHAR 0133
ENCODING 307
SWIDTH 308 0
DWIDTH 6 0
BBX 5 16 1 -4
BITMAP
D8
D8
00
98
98
98
98
98
98
98
98
98
18
18
70
70
ENDCHAR
STARTCHAR 0134
ENCODING 308
SWIDTH 360 0
DWIDTH 7 0
BBX 7 16 1 0
BITMAP
1C
14
22
08
08
08
08
08
08
08
08
08
08
08
D8
70
ENDCHAR
STARTCHAR 0135
ENCODING 309
SWIDTH 154 0
DWIDTH 3 0
BBX 6 17 -2 -4
BITMAP
18
28
44
00
10
10
10
10
10
10
10
10
10
10
10
30
E0
ENDCHAR
STARTCHAR 0136
ENCODING 310
SWIDTH 514 0
DWIDTH 10 0
BBX 8 17 1 -4
BITMAP
83
86
8C
88
98
B0
B0
F8
C8
8C
86
83
83
10
08
04
38
ENDCHAR
STARTCHAR 0137
ENCODING 311
SWIDTH 411 0
DWIDTH 8 0
BBX 6 17 1 -4
BITMAP
80
80
80
80
88
98
B0
A0
E0
F0
98
8C
84
20
18
08
70
ENDCHAR
STARTCHAR 0138
ENCODING 312
SWIDTH 411 0
DWIDTH 8 0
BBX 6 9 1 0
BITMAP
88
98
B0
A0
E0
F0
98
8C
84
ENDCHAR
STARTCHAR 0139
ENCODING 313
SWIDTH 462 0
DWIDTH 9 0
BBX 8 16 1 0
BITMAP
0C
10
00
80
80
80
80
80
80
80
80
80
80
80
80
FF
ENDCHAR
STARTCHAR 013A
ENCODING 314
SWIDTH 205 0
DWIDTH 4 0
BBX 3 16 1 0
BITMAP
60
80
00
80
80
80
80
80
80
80
80
80
80
80
80
E0
ENDCHAR
STARTCHAR 013B
ENCODING 315
SWIDTH 462 0
DWIDTH 9 0
BBX 8 17 1 -4
BITMAP
80
80
80
80
80
80
80
80
80
80
80
80
FF
10
0C
04
38
ENDCHAR
STARTCHAR 013C
ENCODING 316
SWIDTH 205 0
DWIDTH 4 0
BBX 3 17 1 -4
BITMAP
80
80
80
80
80
80
80
80
80
80
80
80
E0
40
20
20
E0
ENDCHAR
STARTCHAR 013D
ENCODING 317
SWIDTH 462 0
DWIDTH 9 0
BBX 8 13 1 0
BITMAP
90
98
88
88
90
80
80
80
80
80
80
80
FF
ENDCHAR
STARTCHAR 013E
ENCODING 318
SWIDTH 205 0
DWIDTH 4 0
BBX 5 13 1 0
BITMAP
90
B8
88
88
90
80
80
80
80
80
80
80
E0
ENDCHAR
STARTCHAR 013F
ENCODING 319
SWIDTH 462 0
DWIDTH 9 0
BBX 8 13 1 0
BITMAP
80
80
80
80
80
80
98
88
80
80
80
80
FF
ENDCHAR
STARTCHAR 0140
ENCODING 320
SWIDTH 308 0
DWIDTH 6 0
BBX 5 13 1 0
BITMAP
80
80
80
80
80
80
98
98
80
80
80
80
E0
ENDCHAR
STARTCHAR 0141
ENCODING 321
SWIDTH 565 0
DWIDTH 11 0
BBX 10 13 1 0
BITMAP
2000
2000
2000
2000
2000
2800
7800
E000
2000
2000
2000
2000
3FC0
ENDCHAR
STARTCHAR 0142
ENCODING 322
SWIDTH 360 0
DWIDTH 7 0
BBX 5 13 1 0
BITMAP
20
20
20
20
20
28
78
E0
20
20
20
20
38
ENDCHAR
STARTCHAR 0143
ENCODING 323
SWIDTH 565 0
DWIDTH 11 0
BBX 10 16 1 0
BITMAP
0600
0800
0000
80C0
C0C0
E0C0
B0C0
B0C0
98C0
8CC0
84C0
86C0
83C0
81C0
81C0
80C0
ENDCHAR
STARTCHAR 0144
ENCODING 324
SWIDTH 462 0
DWIDTH 9 0
BBX 8 13 1 0
BITMAP
0C
08
10
00
BC
FE
C2
C2
83
83
83
83
83
ENDCHAR
STARTCHAR 0145
ENCODING 325
SWIDTH 565 0
DWIDTH 11 0
BBX 10 17 1 -4
BITMAP
80C0
C0C0
E0C0
B0C0
B0C0
98C0
8CC0
84C0
86C0
83C0
81C0
81C0
80C0
0800
0600
0200
1C00
ENDCHAR
STARTCHAR 0146
ENCODING 326
SWIDTH 462 0
DWIDTH 9 0
BBX 8 13 1 -4
BITMAP
BC
FE
C2
C2
83
83
83
83
83
10
0C
04
38
ENDCHAR
STARTCHAR 0147
ENCODING 327
SWIDTH 565 0
DWIDTH 11 0
BBX 10 16 1 0
BITMAP
1200
1C00
0C00
80C0
C0C0
E0C0
B0C0
B0C0
98C0
8CC0
84C0
86C0
83C0
81C0
81C0
80C0
ENDCHAR
STARTCHAR 0148
ENCODING 328
SWIDTH 462 0
DWIDTH 9 0
BBX 8 13 1 0
BITMAP
40
24
38
00
BC
FE
C2
C2
83
83
83
83
83
ENDCHAR
STARTCHAR 0149
ENCODING 329
SWIDTH 565 0
DWIDTH 11 0
BBX 9 13 1 0
BITMAP
C000
C000
4000
4000
AF00
3F80
3080
2080
2080
2080
2080
2080
2080
ENDCHAR
STARTCHAR 014A
ENCODING 330
SWIDTH 514 0
DWIDTH 10 0
BBX 9 13 1 0
BITMAP
8C00
BF00
E100
C180
C180
8080
8080
8080
8080
8080
8080
8180
8700
ENDCHAR
STARTCHAR 014B
ENCODING 331
SWIDTH 462 0
DWIDTH 9 0
BBX 8 13 1 -4
BITMAP
BC
FE
C2
C2
83
83
83
83
83
03
03
06
1C
ENDCHAR
STARTCHAR 014C
ENCODING 332
SWIDTH 617 0
DWIDTH 12 0
BBX 10 15 1 0
BITMAP
1F00
0000
0E00
3F00
6180
40C0
C040
8040
8040
8040
C040
C0C0
6080
3380
1F00
ENDCHAR
STARTCHAR 014D
ENCODING 333
SWIDTH 462 0
DWIDTH 9 0
BBX 8 12 1 0
BITMAP
7C
7C
00
38
7E
C6
C2
83
82
C2
66
3C
ENDCHAR
STARTCHAR 014E
ENCODING 334
SWIDTH 617 0
DWIDTH 12 0
BBX 10 16 1 0
BITMAP
1300
1E00
0000
0E00
3F00
6180
40C0
C040
8040
8040
8040
C040
C0C0
6080
3380
1F00
ENDCHAR
STARTCHAR 014F
ENCODING 335
SWIDTH 462 0
DWIDTH 9 0
BBX 8 13 1 0
BITMAP
44
64
38
00
38
7E
C6
C2
83
82
C2
66
3C
ENDCHAR
STARTCHAR 0150
ENCODING 336
SWIDTH 617 0
DWIDTH 12 0
BBX 10 16 1 0
BITMAP
0D80
1200
0000
0E00
3F00
6180
40C0
C040
8040
8040
8040
C040
C0C0
6080
3380
1F00
ENDCHAR
STARTCHAR 0151
ENCODING 337
SWIDTH 462 0
DWIDTH 9 0
BBX 8 13 1 0
BITMAP
1B
16
24
00
38
7E
C6
C2
83
82
C2
66
3C
ENDCHAR
STARTCHAR 0152
ENCODING 338
SWIDTH 925 0
DWIDTH 18 0
BBX 17 13 1 0
BITMAP
0E7F80
3F7F80
61C000
40C000
C04000
804000
807F00
804000
C04000
C0C000
60C000
33C000
1F7F80
ENDCHAR
STARTCHAR 0153
ENCODING 339
SWIDTH 771 0
DWIDTH 15 0
BBX 14 9 1 0
BITMAP
38F0
7FF8
C708
C3FC
83FC
8300
C308
6798
3CF0
ENDCHAR
STARTCHAR 0154
ENCODING 340
SWIDTH 514 0
DWIDTH 10 0
BBX 8 16 1 0
BITMAP
08
10
00
F0
FC
86
82
82
86
FC
F8
8C
84
86
83
81
ENDCHAR
STARTCHAR 0155
ENCODING 341
SWIDTH 308 0
DWIDTH 6 0
BBX 5 13 1 0
BITMAP
10
20
40
00
B8
F0
C0
C0
80
80
80
80
80
ENDCHAR
STARTCHAR 0156
ENCODING 342
SWIDTH 462 0
DWIDTH 9 0
BBX 8 17 1 -4
BITMAP
F0
FC
86
82
82
86
FC
F8
8C
84
86
83
81
10
0C
04
38
ENDCHAR
STARTCHAR 0157
ENCODING 343
SWIDTH 308 0
DWIDTH 6 0
BBX 6 13 0 -4
BITMAP
5C
78
60
60
40
40
40
40
40
40
20
10
E0
ENDCHAR
STARTCHAR 0158
ENCODING 344
SWIDTH 514 0
DWIDTH 10 0
BBX 8 16 1 0
BITMAP
24
38
18
F0
FC
86
82
82
86
FC
F8
8C
84
86
83
81
ENDCHAR
STARTCHAR 0159
ENCODING 345
SWIDTH 308 0
DWIDTH 6 0
BBX 5 13 1 0
BITMAP
08
90
70
00
B8
F0
C0
C0
80
80
80
80
80
ENDCHAR
STARTCHAR 015A
ENCODING 346
SWIDTH 462 0
DWIDTH 9 0
BBX 8 16 1 0
BITMAP
08
10
00
18
7C
46
C2
40
60
38
0E
02
83
C2
66
3C
ENDCHAR
STARTCHAR 015B
ENCODING 347
SWIDTH 360 0
DWIDTH 7 0
BBX 6 13 1 0
BITMAP
18
10
20
00
70
F8
C0
60
38
08
8C
C8
78
ENDCHAR
STARTCHAR 015C
ENCODING 348
SWIDTH 462 0
DWIDTH 9 0
BBX 8 16 1 0
BITMAP
38
24
40
18
7C
46
C2
40
60
38
0E
02
83
C2
66
3C
ENDCHAR
STARTCHAR 015D
ENCODING 349
SWIDTH 360 0
DWIDTH 7 0
BBX 6 13 1 0
BITMAP
30
70
48
00
70
F8
C0
60
38
08
8C
C8
78
ENDCHAR
STARTCHAR 015E
ENCODING 350
SWIDTH 462 0
DWIDTH 9 0
BBX 8 17 1 -4
BITMAP
18
7C
46
C2
40
60
38
0E
02
83
C2
66
3C
10
08
04
38
ENDCHAR
STARTCHAR 015F
ENCODING 351
SWIDTH 360 0
DWIDTH 7 0
BBX 6 13 1 -4
BITMAP
70
F8
C8
E0
38
08
8C
C8
78
20
18
08
70
ENDCHAR
STARTCHAR 0160
ENCODING 352
SWIDTH 462 0
DWIDTH 9 0
BBX 8 16 1 0
BITMAP
24
38
18
18
7C
46
C2
40
60
38
0E
02
83
C2
66
3C
ENDCHAR
STARTCHAR 0161
ENCODING 353
SWIDTH 360 0
DWIDTH 7 0
BBX 6 13 1 0
BITMAP
80
48
70
00
70
F8
C0
60
38
08
8C
C8
78
ENDCHAR
STARTCHAR 0162
ENCODING 354
SWIDTH 462 0
DWIDTH 9 0
BBX 8 17 1 -4
BITMAP
FF
FF
18
18
18
18
18
18
18
18
18
18
18
10
0C
04
38
ENDCHAR
STARTCHAR 0163
ENCODING 355
SWIDTH 308 0
DWIDTH 6 0
BBX 5 15 1 -4
BITMAP
20
20
F8
F8
20
20
20
20
20
20
38
20
18
08
70
ENDCHAR
STARTCHAR 0164
ENCODING 356
SWIDTH 462 0
DWIDTH 9 0
BBX 8 16 1 0
BITMAP
24
38
18
FF
FF
18
18
18
18
18
18
18
18
18
18
18
ENDCHAR
STARTCHAR 0165
ENCODING 357
SWIDTH 462 0
DWIDTH 9 0
BBX 8 13 1 0
BITMAP
02
07
21
22
FA
F8
20
20
20
20
20
20
38
ENDCHAR
STARTCHAR 0166
ENCODING 358
SWIDTH 462 0
DWIDTH 9 0
BBX 8 13 1 0
BITMAP
FF
FF
18
18
18
18
7E
18
18
18
18
18
18
ENDCHAR
STARTCHAR 0167
ENCODING 359
SWIDTH 308 0
DWIDTH 6 0
BBX 5 11 1 0
BITMAP
20
20
F8
F8
20
20
F8
20
20
20
38
ENDCHAR
STARTCHAR 0168
ENCODING 360
SWIDTH 565 0
DWIDTH 11 0
BBX 9 16 1 0
BITMAP
3900
4F00
0000
8080
8080
8080
8080
8080
8080
8080
8080
8080
C080
C180
6300
3E00
ENDCHAR
STARTCHAR 0169
ENCODING 361
SWIDTH 462 0
DWIDTH 9 0
BBX 8 12 1 0
BITMAP
72
8E
00
83
83
83
83
83
83
C7
4F
7F
ENDCHAR
STARTCHAR 016A
ENCODING 362
SWIDTH 565 0
DWIDTH 11 0
BBX 9 15 1 0
BITMAP
3E00
0000
8080
8080
8080
8080
8080
8080
8080
8080
8080
C080
C180
6300
3E00
ENDCHAR
STARTCHAR 016B
ENCODING 363
SWIDTH 462 0
DWIDTH 9 0
BBX 8 12 1 0
BITMAP
7C
7C
00
83
83
83
83
83
83
C7
4F
7F
ENDCHAR
STARTCHAR 016C
ENCODING 364
SWIDTH 565 0
DWIDTH 11 0
BBX 9 16 1 0
BITMAP
2200
1E00
0000
8080
8080
8080
8080
8080
8080
8080
8080
8080
C080
C180
6300
3E00
ENDCHAR
STARTCHAR 016D
ENCODING 365
SWIDTH 462 0
DWIDTH 9 0
BBX 8 13 1 0
BITMAP
44
64
38
00
83
83
83
83
83
83
C7
4F
7F
ENDCHAR
STARTCHAR 016E
ENCODING 366
SWIDTH 565 0
DWIDTH 11 0
BBX 9 17 1 0
BITMAP
0800
1400
1400
0C00
8080
8080
8080
8080
8080
8080
8080
8080
8080
C080
C180
6300
3E00
ENDCHAR
STARTCHAR 016F
ENCODING 367
SWIDTH 462 0
DWIDTH 9 0
BBX 8 13 1 0
BITMAP
18
28
28
10
83
83
83
83
83
83
C7
4F
7F
ENDCHAR
STARTCHAR 0170
ENCODING 368
SWIDTH 565 0
DWIDTH 11 0
BBX 9 16 1 0
BITMAP
0B00
1200
0400
8080
8080
8080
8080
8080
8080
8080
8080
8080
C080
C180
6300
3E00
ENDCHAR
STARTCHAR 0171
ENCODING 369
SWIDTH 462 0
DWIDTH 9 0
BBX 8 13 1 0
BITMAP
1B
16
24
00
83
83
83
83
83
83
C7
4F
7F
ENDCHAR
STARTCHAR 0172
ENCODING 370
SWIDTH 565 0
DWIDTH 11 0
BBX 9 17 1 -4
BITMAP
8080
8080
8080
8080
8080
8080
8080
8080
8080
C080
C180
6300
3E00
0800
0800
0E00
0100
ENDCHAR
STARTCHAR 0173
ENCODING 371
SWIDTH 462 0
DWIDTH 9 0
BBX 9 13 1 -4
BITMAP
8300
8300
8300
8300
8300
8300
C700
4F00
7F00
0400
0600
0300
0180
ENDCHAR
STARTCHAR 0174
ENCODING 372
SWIDTH 822 0
DWIDTH 16 0
BBX 15 16 1 0
BITMAP
0380
0480
0040
8106
C306
C384
4384
628C
668C
26C8
2448
3458
3C70
1870
1830
1830
ENDCHAR
STARTCHAR 0175
ENCODING 373
SWIDTH 617 0
DWIDTH 12 0
BBX 11 13 1 0
BITMAP
0C00
0A00
1200
0000
C460
CC40
4E40
4AC0
6AC0
7B80
3380
3180
3180
ENDCHAR
STARTCHAR 0176
ENCODING 374
SWIDTH 617 0
DWIDTH 12 0
BBX 10 16 1 0
BITMAP
0E00
1200
0100
C040
40C0
6180
3100
1B00
1E00
0C00
0C00
0C00
0C00
0C00
0C00
0C00
ENDCHAR
STARTCHAR 0177
ENCODING 375
SWIDTH 462 0
DWIDTH 9 0
BBX 8 17 1 -4
BITMAP
18
38
24
00
C3
C2
46
66
64
2C
3C
18
18
10
10
30
60
ENDCHAR
STARTCHAR 0178
ENCODING 376
SWIDTH 617 0
DWIDTH 12 0
BBX 10 16 1 0
BITMAP
1300
1B00
0000
C040
40C0
6180
3100
1B00
1E00
0C00
0C00
0C00
0C00
0C00
0C00
0C00
ENDCHAR
STARTCHAR 0179
ENCODING 377
SWIDTH 514 0
DWIDTH 10 0
BBX 8 16 1 0
BITMAP
0C
08
10
FF
FF
03
02
06
0C
08
18
30
60
40
C0
FF
ENDCHAR
STARTCHAR 017A
ENCODING 378
SWIDTH 360 0
DWIDTH 7 0
BBX 6 13 1 0
BITMAP
18
10
20
00
FC
FC
08
18
30
60
40
C0
FC
ENDCHAR
STARTCHAR 017B
ENCODING 379
SWIDTH 514 0
DWIDTH 10 0
BBX 8 16 1 0
BITMAP
18
18
00
FF
FF
03
02
06
0C
08
18
30
60
40
C0
FF
ENDCHAR
STARTCHAR 017C
ENCODING 380
SWIDTH 360 0
DWIDTH 7 0
BBX 6 12 1 0
BITMAP
30
30
00
FC
FC
08
18
30
60
40
C0
FC
ENDCHAR
STARTCHAR 017D
ENCODING 381
SWIDTH 514 0
DWIDTH 10 0
BBX 8 16 1 0
BITMAP
24
1C
18
FF
FF
03
02
06
0C
08
18
30
60
40
C0
FF
ENDCHAR
STARTCHAR 017E
ENCODING 382
SWIDTH 360 0
DWIDTH 7 0
BBX 6 12 1 1
BITMAP
48
30
00
FC
FC
08
18
30
60
40
C0
FC
ENDCHAR
STARTCHAR 017F
ENCODING 383
SWIDTH 154 0
DWIDTH 3 0
BBX 4 17 1 -4
BITMAP
30
F0
80
80
80
80
80
80
80
80
80
80
80
80
80
80
80
ENDCHAR
STARTCHAR 0180
ENCODING 384
SWIDTH 462 0
DWIDTH 9 0
BBX 9 13 0 0
BITMAP
4000
4000
F000
4000
5C00
7F00
6300
6100
4180
4100
6100
7300
5E00
ENDCHAR
STARTCHAR 0181
ENCODING 385
SWIDTH 668 0
DWIDTH 13 0
BBX 12 13 1 0
BITMAP
3F00
7FC0
C860
8820
8820
0860
0FC0
0860
0830
0830
0830
0860
0FC0
ENDCHAR
STARTCHAR 0182
ENCODING 386
SWIDTH 462 0
DWIDTH 9 0
BBX 8 13 1 0
BITMAP
FE
FE
80
80
80
80
FE
82
83
83
83
86
FC
ENDCHAR
STARTCHAR 0183
ENCODING 387
SWIDTH 462 0
DWIDTH 9 0
BBX 8 13 1 0
BITMAP
FE
FE
80
80
B8
FE
C6
C2
83
82
C2
E6
BC
ENDCHAR
STARTCHAR 0184
ENCODING 388
SWIDTH 668 0
DWIDTH 13 0
BBX 11 13 1 0
BITMAP
1800
3800
7800
D800
1800
1800
1FC0
1860
1820
1820
1820
18E0
1F80
ENDCHAR
STARTCHAR 0185
ENCODING 389
SWIDTH 514 0
DWIDTH 10 0
BBX 8 9 1 0
BITMAP
30
70
F0
38
3E
33
31
33
3E
ENDCHAR
STARTCHAR 0186
ENCODING 390
SWIDTH 565 0
DWIDTH 11 0
BBX 10 13 1 0
BITMAP
1C00
7E00
C300
8180
0080
0080
00C0
00C0
0080
0080
C180
6300
3E00
ENDCHAR
STARTCHAR 0187
ENCODING 391
SWIDTH 565 0
DWIDTH 11 0
BBX 12 16 1 0
BITMAP
0030
0070
00C0
0EC0
3FC0
61C0
4080
C000
8000
8000
8000
C000
C000
6080
3380
1F00
ENDCHAR
STARTCHAR 0188
ENCODING 392
SWIDTH 462 0
DWIDTH 9 0
BBX 10 13 1 0
BITMAP
0080
03C0
0200
0200
3A00
7E00
C600
C000
8000
8000
C200
6600
3C00
ENDCHAR
STARTCHAR 0189
ENCODING 393
SWIDTH 617 0
DWIDTH 12 0
BBX 10 13 1 0
BITMAP
FC00
FF00
6180
60C0
6040
6040
FC40
6040
6040
6040
6080
6380
FE00
ENDCHAR
STARTCHAR 018A
ENCODING 394
SWIDTH 720 0
DWIDTH 14 0
BBX 13 13 1 0
BITMAP
3F00
7FC0
C860
8830
8810
0818
0818
0818
0818
0810
0830
08E0
3FC0
ENDCHAR
STARTCHAR 018B
ENCODING 395
SWIDTH 462 0
DWIDTH 9 0
BBX 8 13 1 0
BITMAP
7F
7F
03
03
03
03
7F
C3
C3
83
C3
63
3F
ENDCHAR
STARTCHAR 018C
ENCODING 396
SWIDTH 462 0
DWIDTH 9 0
BBX 8 13 1 0
BITMAP
7F
7F
03
03
3B
7F
C7
C3
83
83
C3
67
3F
ENDCHAR
STARTCHAR 018D
ENCODING 397
SWIDTH 462 0
DWIDTH 9 0
BBX 8 13 1 -4
BITMAP
38
7E
C6
C2
83
C2
C2
66
3C
18
08
F8
70
ENDCHAR
STARTCHAR 018E
ENCODING 398
SWIDTH 462 0
DWIDTH 9 0
BBX 8 13 1 0
BITMAP
FF
FF
03
03
03
03
7F
03
03
03
03
03
FF
ENDCHAR
STARTCHAR 018F
ENCODING 399
SWIDTH 617 0
DWIDTH 12 0
BBX 10 13 1 0
BITMAP
0E00
3F00
2180
00C0
0040
0040
FFC0
8040
C040
C0C0
6080
3380
1F00
ENDCHAR
STARTCHAR 0190
ENCODING 400
SWIDTH 462 0
DWIDTH 9 0
BBX 9 13 0 0
BITMAP
1C00
3F00
6100
4180
6000
3000
3C00
6000
4000
C080
4180
6300
3E00
ENDCHAR
STARTCHAR 0191
ENCODING 401
SWIDTH 462 0
DWIDTH 9 0
BBX 11 17 -2 -4
BITMAP
1FE0
1FE0
1000
1000
1000
1000
1FC0
1000
1000
1000
1000
1000
1000
1000
1000
3000
E000
ENDCHAR
STARTCHAR 0192
ENCODING 402
SWIDTH 308 0
DWIDTH 6 0
BBX 7 17 0 -4
BITMAP
0C
1E
10
10
10
7C
10
10
10
10
10
10
10
10
10
B0
E0
ENDCHAR
STARTCHAR 0193
ENCODING 403
SWIDTH 565 0
DWIDTH 11 0
BBX 12 16 1 0
BITMAP
0030
0070
00C0
0EC0
3FC0
61C0
4080
C000
8000
87C0
87C0
C0C0
C0C0
6080
3380
1F00
ENDCHAR
STARTCHAR 0194
ENCODING 404
SWIDTH 617 0
DWIDTH 12 0
BBX 11 17 1 -4
BITMAP
8060
C040
40C0
6080
6080
2180
3100
1100
1300
1A00
0E00
0E00
0C00
0E00
0E00
0E00
0C00
ENDCHAR
STARTCHAR 0195
ENCODING 405
SWIDTH 668 0
DWIDTH 13 0
BBX 12 13 1 0
BITMAP
8000
8000
8000
8000
BC30
FE30
C230
C230
8330
8330
8330
8330
81E0
ENDCHAR
STARTCHAR 0196
ENCODING 406
SWIDTH 360 0
DWIDTH 7 0
BBX 5 13 1 0
BITMAP
80
80
80
80
80
80
80
80
80
80
80
D8
70
ENDCHAR
STARTCHAR 0197
ENCODING 407
SWIDTH 308 0
DWIDTH 6 0
BBX 4 13 1 0
BITMAP
F0
F0
60
60
60
60
F0
60
60
60
60
60
F0
ENDCHAR
STARTCHAR 0198
ENCODING 408
SWIDTH 514 0
DWIDTH 10 0
BBX 8 16 1 0
BITMAP
70
F0
80
83
86
8C
88
98
B0
B0
F8
C8
8C
86
83
83
ENDCHAR
STARTCHAR 0199
ENCODING 409
SWIDTH 411 0
DWIDTH 8 0
BBX 6 16 1 0
BITMAP
70
F0
80
80
80
80
80
88
98
B0
A0
E0
F0
98
8C
84
ENDCHAR
STARTCHAR 019A
ENCODING 410
SWIDTH 308 0
DWIDTH 6 0
BBX 4 13 1 0
BITMAP
60
60
60
60
60
60
F0
60
60
60
60
60
30
ENDCHAR
STARTCHAR 019B
ENCODING 411
SWIDTH 462 0
DWIDTH 9 0
BBX 8 13 1 0
BITMAP
C0
74
3C
F0
18
18
38
2C
24
66
46
C2
C3
ENDCHAR
STARTCHAR 019C
ENCODING 412
SWIDTH 565 0
DWIDTH 11 0
BBX 10 13 1 0
BITMAP
8CC0
8CC0
8CC0
8CC0
8CC0
8CC0
8CC0
8CC0
8CC0
8CC0
8CC0
DDC0
77C0
ENDCHAR
STARTCHAR 019D
ENCODING 413
SWIDTH 565 0
DWIDTH 11 0
BBX 13 17 -2 -4
BITMAP
1018
1818
1C18
1618
1618
1318
1198
1098
10D8
1078
1038
1038
1018
1000
1000
3000
E000
ENDCHAR
STARTCHAR 019E
ENCODING 414
SWIDTH 462 0
DWIDTH 9 0
BBX 8 13 1 -4
BITMAP
BC
FE
C2
C2
83
83
83
83
83
03
03
03
03
ENDCHAR
STARTCHAR 019F
ENCODING 415
SWIDTH 617 0
DWIDTH 12 0
BBX 10 13 1 0
BITMAP
0E00
3F00
6180
40C0
C040
8040
FFC0
8040
C040
C0C0
6080
3380
1F00
ENDCHAR
STARTCHAR 01A0
ENCODING 416
SWIDTH 668 0
DWIDTH 13 0
BBX 13 13 1 0
BITMAP
0E10
3F38
6188
40D0
C050
8060
8040
8040
C040
C0C0
6080
3380
1F00
ENDCHAR
STARTCHAR 01A1
ENCODING 417
SWIDTH 514 0
DWIDTH 10 0
BBX 9 11 1 0
BITMAP
0180
0180
3880
7E80
C700
C200
8300
8200
C200
6600
3C00
ENDCHAR
STARTCHAR 01A2
ENCODING 418
SWIDTH 668 0
DWIDTH 13 0
BBX 12 17 1 -4
BITMAP
0EF0
3FF0
61B0
40B0
C0B0
80B0
80B0
80B0
C0B0
C0B0
60B0
33B0
1F30
0030
0030
0030
0030
ENDCHAR
STARTCHAR 01A3
ENCODING 419
SWIDTH 514 0
DWIDTH 10 0
BBX 9 13 1 -4
BITMAP
3F80
7F80
C480
C480
8480
8480
C480
6480
3C80
0080
0080
0080
0080
ENDCHAR
STARTCHAR 01A4
ENCODING 420
SWIDTH 668 0
DWIDTH 13 0
BBX 11 13 1 0
BITMAP
3F00
7FC0
C860
8820
8820
0860
0FC0
0F00
0800
0800
0800
0800
0800
ENDCHAR
STARTCHAR 01A5
ENCODING 421
SWIDTH 462 0
DWIDTH 9 0
BBX 8 17 1 -4
BITMAP
30
F0
80
80
B8
FE
C6
C2
83
82
C2
E6
BC
80
80
80
80
ENDCHAR
STARTCHAR 01A6
ENCODING 422
SWIDTH 462 0
DWIDTH 9 0
BBX 8 16 1 -3
BITMAP
80
80
80
F8
FE
82
82
82
FE
FC
8C
84
86
02
02
03
ENDCHAR
STARTCHAR 01A7
ENCODING 423
SWIDTH 462 0
DWIDTH 9 0
BBX 8 13 1 0
BITMAP
18
7C
46
C2
06
0C
38
60
C0
83
C2
E6
7C
ENDCHAR
STARTCHAR 01A8
ENCODING 424
SWIDTH 360 0
DWIDTH 7 0
BBX 6 9 1 0
BITMAP
70
F8
C8
18
70
C0
8C
C8
78
ENDCHAR
STARTCHAR 01A9
ENCODING 425
SWIDTH 462 0
DWIDTH 9 0
BBX 8 13 1 0
BITMAP
FF
FF
C0
60
30
30
18
18
30
60
40
C0
FF
ENDCHAR
STARTCHAR 01AA
ENCODING 426
SWIDTH 360 0
DWIDTH 7 0
BBX 8 17 1 -4
BITMAP
30
F8
88
C8
F8
28
08
08
08
08
08
08
08
08
08
0C
07
ENDCHAR
STARTCHAR 01AB
ENCODING 427
SWIDTH 308 0
DWIDTH 6 0
BBX 5 15 1 -4
BITMAP
20
20
F8
F8
20
20
20
20
20
20
38
18
10
30
E0
ENDCHAR
STARTCHAR 01AC
ENCODING 428
SWIDTH 565 0
DWIDTH 11 0
BBX 9 13 1 0
BITMAP
3F80
7F80
C400
8400
8400
0400
0400
0400
0400
0400
0400
0400
0400
ENDCHAR
STARTCHAR 01AD
ENCODING 429
SWIDTH 308 0
DWIDTH 6 0
BBX 6 13 1 0
BITMAP
18
3C
20
20
F8
F8
20
20
20
20
20
20
38
ENDCHAR
STARTCHAR 01AE
ENCODING 430
SWIDTH 462 0
DWIDTH 9 0
BBX 8 17 1 -4
BITMAP
FF
FF
18
18
18
18
18
18
18
18
18
18
18
18
18
1A
0E
ENDCHAR
STARTCHAR 01AF
ENCODING 431
SWIDTH 668 0
DWIDTH 13 0
BBX 12 13 1 0
BITMAP
80A0
80B0
8090
8090
80A0
80C0
8080
8080
8080
C080
C180
6300
3E00
ENDCHAR
STARTCHAR 01B0
ENCODING 432
SWIDTH 565 0
DWIDTH 11 0
BBX 10 11 1 0
BITMAP
0080
00C0
8340
8340
8380
8300
8300
8300
C700
4F00
7F00
ENDCHAR
STARTCHAR 01B1
ENCODING 433
SWIDTH 617 0
DWIDTH 12 0
BBX 10 13 1 0
BITMAP
F3C0
F3C0
6180
40C0
C040
8040
8040
8040
C040
C0C0
6080
3380
1F00
ENDCHAR
STARTCHAR 01B2
ENCODING 434
SWIDTH 565 0
DWIDTH 11 0
BBX 9 13 1 0
BITMAP
8300
C380
4080
6080
6080
2180
3100
1100
1300
1A00
0E00
0E00
0C00
ENDCHAR
STARTCHAR 01B3
ENCODING 435
SWIDTH 617 0
DWIDTH 12 0
BBX 12 13 1 0
BITMAP
C060
40F0
6190
3100
1B00
1E00
0C00
0C00
0C00
0C00
0C00
0C00
0C00
ENDCHAR
STARTCHAR 01B4
ENCODING 436
SWIDTH 617 0
DWIDTH 12 0
BBX 10 13 1 -4
BITMAP
C1C0
C3C0
4600
6600
6400
2C00
3C00
1800
1800
1000
1000
3000
6000
ENDCHAR
STARTCHAR 01B5
ENCODING 437
SWIDTH 514 0
DWIDTH 10 0
BBX 8 13 1 0
BITMAP
FF
FF
03
02
06
0C
7F
18
30
60
40
C0
FF
ENDCHAR
STARTCHAR 01B6
ENCODING 438
SWIDTH 360 0
DWIDTH 7 0
BBX 6 9 1 0
BITMAP
FC
FC
08
18
78
60
40
C0
FC
ENDCHAR
STARTCHAR 01B7
ENCODING 439
SWIDTH 514 0
DWIDTH 10 0
BBX 8 13 1 0
BITMAP
FF
FF
03
02
06
0C
07
03
01
01
C1
67
3E
ENDCHAR
STARTCHAR 01B8
ENCODING 440
SWIDTH 514 0
DWIDTH 10 0
BBX 8 13 1 0
BITMAP
FF
FF
C0
60
30
30
70
C0
80
80
C1
67
3E
ENDCHAR
STARTCHAR 01B9
ENCODING 441
SWIDTH 411 0
DWIDTH 8 0
BBX 7 13 1 -4
BITMAP
FE
FE
40
60
30
70
C0
C0
80
80
C0
6E
3C
ENDCHAR
STARTCHAR 01BA
ENCODING 442
SWIDTH 360 0
DWIDTH 7 0
BBX 6 13 1 -4
BITMAP
FC
FC
08
18
38
18
08
18
70
C0
CC
D8
70
ENDCHAR
STARTCHAR 01BB
ENCODING 443
SWIDTH 411 0
DWIDTH 8 0
BBX 7 13 1 0
BITMAP
30
7C
C4
86
06
0C
FE
30
60
40
C0
80
FE
ENDCHAR
STARTCHAR 01BC
ENCODING 444
SWIDTH 462 0
DWIDTH 9 0
BBX 7 13 1 0
BITMAP
FE
FE
40
C0
F8
FC
C6
02
02
02
86
CC
78
ENDCHAR
STARTCHAR 01BD
ENCODING 445
SWIDTH 360 0
DWIDTH 7 0
BBX 6 9 1 0
BITMAP
F8
F8
40
78
C8
0C
CC
C8
78
ENDCHAR
STARTCHAR 01BE
ENCODING 446
SWIDTH 462 0
DWIDTH 9 0
BBX 7 11 1 0
BITMAP
20
20
F8
F8
20
30
1C
06
62
26
3C
ENDCHAR
STARTCHAR 01BF
ENCODING 447
SWIDTH 411 0
DWIDTH 8 0
BBX 7 13 1 -4
BITMAP
B8
FC
C4
86
84
8C
98
B0
E0
C0
C0
80
80
ENDCHAR
STARTCHAR 01C0
ENCODING 448
SWIDTH 154 0
DWIDTH 3 0
BBX 1 17 1 -4
BITMAP
80
80
80
80
80
80
80
80
80
80
80
80
80
80
80
80
80
ENDCHAR
STARTCHAR 01C1
ENCODING 449
SWIDTH 308 0
DWIDTH 6 0
BBX 4 17 1 -4
BITMAP
90
90
90
90
90
90
90
90
90
90
90
90
90
90
90
90
90
ENDCHAR
STARTCHAR 01C2
ENCODING 450
SWIDTH 411 0
DWIDTH 8 0
BBX 7 13 1 0
BITMAP
10
10
10
10
FE
FE
10
10
FE
10
10
10
10
ENDCHAR
STARTCHAR 01C3
ENCODING 451
SWIDTH 154 0
DWIDTH 3 0
BBX 2 13 1 0
BITMAP
80
80
80
80
80
80
80
80
80
00
00
C0
C0
ENDCHAR
STARTCHAR 01C4
ENCODING 452
SWIDTH 1131 0
DWIDTH 22 0
BBX 21 16 1 0
BITMAP
000220
000140
000080
FC0FF8
FF0FF8
618010
60C030
604060
604040
6040C0
604180
604300
60C200
618600
638C00
FE0FF8
ENDCHAR
STARTCHAR 01C5
ENCODING 453
SWIDTH 1028 0
DWIDTH 20 0
BBX 18 13 1 0
BITMAP
FC0040
FF0480
618380
60C000
604FC0
604FC0
6040C0
604180
604300
60C200
618600
638C00
FE0FC0
ENDCHAR
STARTCHAR 01C6
ENCODING 454
SWIDTH 874 0
DWIDTH 17 0
BBX 15 13 1 0
BITMAP
0302
0324
031C
0300
3B7E
7F7E
C706
C30C
8308
8318
C330
6760
3F7E
ENDCHAR
STARTCHAR 01C7
ENCODING 455
SWIDTH 874 0
DWIDTH 17 0
BBX 15 13 1 0
BITMAP
8002
8002
8002
8002
8002
8002
8002
8002
8002
8002
8002
8036
FF1C
ENDCHAR
STARTCHAR 01C8
ENCODING 456
SWIDTH 668 0
DWIDTH 13 0
BBX 12 17 1 -4
BITMAP
8000
8030
8030
8000
8020
8020
8020
8020
8020
8020
8020
8020
FF20
0020
0020
0060
01C0
ENDCHAR
STARTCHAR 01C9
ENCODING 457
SWIDTH 411 0
DWIDTH 8 0
BBX 6 17 1 -4
BITMAP
80
8C
84
80
84
84
84
84
84
84
84
84
E4
04
04
2C
38
ENDCHAR
STARTCHAR 01CA
ENCODING 458
SWIDTH 977 0
DWIDTH 19 0
BBX 17 13 1 0
BITMAP
80C080
C0C080
E0C080
B0C080
B0C080
98C080
8CC080
84C080
86C080
83C080
81C080
81CD80
80C700
ENDCHAR
STARTCHAR 01CB
ENCODING 459
SWIDTH 771 0
DWIDTH 15 0
BBX 14 17 1 -4
BITMAP
80C0
C0CC
E0CC
B0C0
B0C8
98C8
8CC8
84C8
86C8
83C8
81C8
81C8
80C8
0008
0008
0018
0070
ENDCHAR
STARTCHAR 01CC
ENCODING 460
SWIDTH 668 0
DWIDTH 13 0
BBX 11 16 1 -4
BITMAP
0060
0060
0000
BC20
FE20
C220
C220
8320
8320
8320
8320
8320
0020
0020
0160
01C0
ENDCHAR
STARTCHAR 01CD
ENCODING 461
SWIDTH 617 0
DWIDTH 12 0
BBX 10 16 1 0
BITMAP
1200
0E00
0C00
0400
0C00
0E00
1A00
1A00
1300
3100
3F80
2180
6080
40C0
C040
C040
ENDCHAR
STARTCHAR 01CE
ENCODING 462
SWIDTH 360 0
DWIDTH 7 0
BBX 6 12 1 1
BITMAP
48
30
00
38
7C
0C
0C
7C
CC
8C
CC
7C
ENDCHAR
STARTCHAR 01CF
ENCODING 463
SWIDTH 308 0
DWIDTH 6 0
BBX 4 16 1 0
BITMAP
90
70
60
F0
F0
60
60
60
60
60
60
60
60
60
60
F0
ENDCHAR
STARTCHAR 01D0
ENCODING 464
SWIDTH 154 0
DWIDTH 3 0
BBX 5 13 -1 0
BITMAP
80
48
70
00
20
20
20
20
20
20
20
20
20
ENDCHAR
STARTCHAR 01D1
ENCODING 465
SWIDTH 617 0
DWIDTH 12 0
BBX 10 16 1 0
BITMAP
1200
0E00
0C00
0E00
3F00
6180
40C0
C040
8040
8040
8040
C040
C0C0
6080
3380
1F00
ENDCHAR
STARTCHAR 01D2
ENCODING 466
SWIDTH 462 0
DWIDTH 9 0
BBX 8 13 1 0
BITMAP
40
24
38
00
38
7E
C6
C2
83
82
C2
66
3C
ENDCHAR
STARTCHAR 01D3
ENCODING 467
SWIDTH 565 0
DWIDTH 11 0
BBX 9 16 1 0
BITMAP
1200
1C00
0C00
8080
8080
8080
8080
8080
8080
8080
8080
8080
C080
C180
6300
3E00
ENDCHAR
STARTCHAR 01D4
ENCODING 468
SWIDTH 462 0
DWIDTH 9 0
BBX 8 13 1 0
BITMAP
40
24
38
00
83
83
83
83
83
83
C7
4F
7F
ENDCHAR
STARTCHAR 01D5
ENCODING 469
SWIDTH 565 0
DWIDTH 11 0
BBX 9 16 1 0
BITMAP
3E00
3200
3600
8080
8080
8080
8080
8080
8080
8080
8080
8080
C080
C180
6300
3E00
ENDCHAR
STARTCHAR 01D6
ENCODING 470
SWIDTH 462 0
DWIDTH 9 0
BBX 8 15 1 0
BITMAP
7C
7C
00
6C
64
00
83
83
83
83
83
83
C7
4F
7F
ENDCHAR
STARTCHAR 01D7
ENCODING 471
SWIDTH 565 0
DWIDTH 11 0
BBX 9 16 1 0
BITMAP
0400
1000
1600
8080
8080
8080
8080
8080
8080
8080
8080
8080
C080
C180
6300
3E00
ENDCHAR
STARTCHAR 01D8
ENCODING 472
SWIDTH 462 0
DWIDTH 9 0
BBX 8 16 1 0
BITMAP
0C
08
10
00
6C
64
00
83
83
83
83
83
83
C7
4F
7F
ENDCHAR
STARTCHAR 01D9
ENCODING 473
SWIDTH 565 0
DWIDTH 11 0
BBX 9 16 1 0
BITMAP
1400
0C00
1600
8080
8080
8080
8080
8080
8080
8080
8080
8080
C080
C180
6300
3E00
ENDCHAR
STARTCHAR 01DA
ENCODING 474
SWIDTH 462 0
DWIDTH 9 0
BBX 8 16 1 0
BITMAP
40
2C
38
00
6C
64
00
83
83
83
83
83
83
C7
4F
7F
ENDCHAR
STARTCHAR 01DB
ENCODING 475
SWIDTH 565 0
DWIDTH 11 0
BBX 9 16 1 0
BITMAP
1000
1800
1600
8080
8080
8080
8080
8080
8080
8080
8080
8080
C080
C180
6300
3E00
ENDCHAR
STARTCHAR 01DC
ENCODING 476
SWIDTH 462 0
DWIDTH 9 0
BBX 8 16 1 0
BITMAP
20
10
08
00
6C
64
00
83
83
83
83
83
83
C7
4F
7F
ENDCHAR
STARTCHAR 01DD
ENCODING 477
SWIDTH 462 0
DWIDTH 9 0
BBX 8 9 1 0
BITMAP
38
7E
C6
02
FF
FE
C2
66
3C
ENDCHAR
STARTCHAR 01DE
ENCODING 478
SWIDTH 617 0
DWIDTH 12 0
BBX 10 16 1 0
BITMAP
1F00
1300
1B00
0400
0C00
0E00
1A00
1A00
1300
3100
3F80
2180
6080
40C0
C040
C040
ENDCHAR
STARTCHAR 01DF
ENCODING 479
SWIDTH 360 0
DWIDTH 7 0
BBX 6 15 1 0
BITMAP
78
78
00
CC
C8
00
38
7C
0C
0C
7C
CC
8C
CC
7C
ENDCHAR
STARTCHAR 01E0
ENCODING 480
SWIDTH 617 0
DWIDTH 12 0
BBX 10 16 1 0
BITMAP
1F00
0C00
0C00
0400
0C00
0E00
1A00
1A00
1300
3100
3F80
2180
6080
40C0
C040
C040
ENDCHAR
STARTCHAR 01E1
ENCODING 481
SWIDTH 360 0
DWIDTH 7 0
BBX 6 15 1 0
BITMAP
78
78
00
30
30
00
38
7C
0C
0C
7C
CC
8C
CC
7C
ENDCHAR
STARTCHAR 01E2
ENCODING 482
SWIDTH 720 0
DWIDTH 14 0
BBX 12 15 1 0
BITMAP
03C0
0000
07F0
0FF0
0B00
1B00
1B00
1300
3FE0
2300
2300
6300
4300
C300
C3F0
ENDCHAR
STARTCHAR 01E3
ENCODING 483
SWIDTH 720 0
DWIDTH 14 0
BBX 12 12 1 0
BITMAP
0F00
0F00
0000
39C0
7FE0
0E30
0FF0
7FF0
CC00
8C20
CE60
7BC0
ENDCHAR
STARTCHAR 01E4
ENCODING 484
SWIDTH 617 0
DWIDTH 12 0
BBX 11 13 1 0
BITMAP
0E00
3F00
6180
4080
C000
8000
87C0
87C0
C0C0
C1E0
6080
3380
1F00
ENDCHAR
STARTCHAR 01E5
ENCODING 485
SWIDTH 462 0
DWIDTH 9 0
BBX 10 13 0 -4
BITMAP
1E80
3F80
6100
4180
6100
3F00
7C00
6000
1F00
FFC0
FFC0
7700
1E00
ENDCHAR
STARTCHAR 01E6
ENCODING 486
SWIDTH 565 0
DWIDTH 11 0
BBX 10 16 1 0
BITMAP
1200
1C00
0C00
0E00
3F00
6180
4080
C000
8000
87C0
87C0
C0C0
C0C0
6080
3380
1F00
ENDCHAR
STARTCHAR 01E7
ENCODING 487
SWIDTH 462 0
DWIDTH 9 0
BBX 8 17 1 -4
BITMAP
40
24
38
00
3D
7F
C2
83
C2
7E
F8
C0
7E
02
83
E6
3C
ENDCHAR
STARTCHAR 01E8
ENCODING 488
SWIDTH 514 0
DWIDTH 10 0
BBX 8 16 1 0
BITMAP
24
1C
18
83
86
8C
88
98
B0
B0
F8
C8
8C
86
83
83
ENDCHAR
STARTCHAR 01E9
ENCODING 489
SWIDTH 411 0
DWIDTH 8 0
BBX 6 16 1 0
BITMAP
48
28
30
80
80
80
80
88
98
B0
A0
E0
F0
98
8C
84
ENDCHAR
STARTCHAR 01EA
ENCODING 490
SWIDTH 617 0
DWIDTH 12 0
BBX 10 17 1 -4
BITMAP
0E00
3F00
6180
40C0
C040
8040
8040
8040
C040
C0C0
6080
3380
1F00
0800
0400
0680
0100
ENDCHAR
STARTCHAR 01EB
ENCODING 491
SWIDTH 462 0
DWIDTH 9 0
BBX 8 13 1 -4
BITMAP
38
7E
C6
C2
83
82
C2
66
3C
10
10
1C
02
ENDCHAR
STARTCHAR 01EC
ENCODING 492
SWIDTH 617 0
DWIDTH 12 0
BBX 10 19 1 -4
BITMAP
1F00
0000
0E00
3F00
6180
40C0
C040
8040
8040
8040
C040
C0C0
6080
3380
1F00
0800
0400
0680
0100
ENDCHAR
STARTCHAR 01ED
ENCODING 493
SWIDTH 462 0
DWIDTH 9 0
BBX 8 16 1 -4
BITMAP
7C
7C
00
38
7E
C6
C2
83
82
C2
66
3C
10
10
1C
02
ENDCHAR
STARTCHAR 01EE
ENCODING 494
SWIDTH 514 0
DWIDTH 10 0
BBX 8 16 1 0
BITMAP
24
1C
18
FF
FF
03
02
06
0C
07
03
01
01
C1
67
3E
ENDCHAR
STARTCHAR 01EF
ENCODING 495
SWIDTH 411 0
DWIDTH 8 0
BBX 7 17 1 -4
BITMAP
04
48
38
00
FE
FE
0C
08
18
38
0C
04
06
06
04
DC
78
ENDCHAR
STARTCHAR 01F0
ENCODING 496
SWIDTH 154 0
DWIDTH 3 0
BBX 6 17 -2 -4
BITMAP
40
24
38
00
10
10
10
10
10
10
10
10
10
10
10
30
E0
ENDCHAR
STARTCHAR 01F1
ENCODING 497
SWIDTH 1131 0
DWIDTH 22 0
BBX 21 13 1 0
BITMAP
FC0FF8
FF0FF8
618010
60C030
604060
604040
6040C0
604180
604300
60C200
618600
638C00
FE0FF8
ENDCHAR
STARTCHAR 01F2
ENCODING 498
SWIDTH 1028 0
DWIDTH 20 0
BBX 18 13 1 0
BITMAP
FC0000
FF0000
618000
60C000
604FC0
604FC0
6040C0
604180
604300
60C200
618600
638C00
FE0FC0
ENDCHAR
STARTCHAR 01F3
ENCODING 499
SWIDTH 874 0
DWIDTH 17 0
BBX 15 13 1 0
BITMAP
0300
0300
0300
0300
3B7E
7F7E
C706
C30C
8308
8318
C330
6760
3F7E
ENDCHAR
STARTCHAR 01F4
ENCODING 500
SWIDTH 565 0
DWIDTH 11 0
BBX 10 16 1 0
BITMAP
0400
0800
0000
0E00
3F00
6180
4080
C000
8000
87C0
87C0
C0C0
C0C0
6080
3380
1F00
ENDCHAR
STARTCHAR 01F5
ENCODING 501
SWIDTH 462 0
DWIDTH 9 0
BBX 8 17 1 -4
BITMAP
0C
08
10
00
3D
7F
C2
83
C2
7E
F8
C0
7E
02
83
E6
3C
ENDCHAR
STARTCHAR 01F6
ENCODING 502
SWIDTH 822 0
DWIDTH 16 0
BBX 14 13 1 0
BITMAP
8300
8300
8300
8300
8304
8304
FF04
8304
8304
8104
810C
8198
80F0
ENDCHAR
STARTCHAR 01F7
ENCODING 503
SWIDTH 411 0
DWIDTH 8 0
BBX 7 17 1 -4
BITMAP
B0
FC
C4
86
86
8C
98
B0
E0
C0
C0
80
80
80
80
80
80
ENDCHAR
STARTCHAR 01F8
ENCODING 504
SWIDTH 565 0
DWIDTH 11 0
BBX 10 16 1 0
BITMAP
1800
0800
0400
80C0
C0C0
E0C0
B0C0
B0C0
98C0
8CC0
84C0
86C0
83C0
81C0
81C0
80C0
ENDCHAR
STARTCHAR 01F9
ENCODING 505
SWIDTH 462 0
DWIDTH 9 0
BBX 8 13 1 0
BITMAP
20
10
10
00
BC
FE
C2
C2
83
83
83
83
83
ENDCHAR
STARTCHAR 01FA
ENCODING 506
SWIDTH 617 0
DWIDTH 12 0
BBX 10 16 1 0
BITMAP
0400
0000
0E00
0A00
0E00
0E00
1A00
1A00
1300
3100
3F80
2180
6080
40C0
4040
C040
ENDCHAR
STARTCHAR 01FB
ENCODING 507
SWIDTH 360 0
DWIDTH 7 0
BBX 6 16 1 0
BITMAP
08
10
20
30
28
28
10
38
7C
0C
0C
7C
CC
8C
CC
7C
ENDCHAR
STARTCHAR 01FC
ENCODING 508
SWIDTH 720 0
DWIDTH 14 0
BBX 12 16 1 0
BITMAP
0180
0200
0000
07F0
0FF0
0B00
1B00
1B00
1300
3FE0
2300
2300
6300
4300
C300
C3F0
ENDCHAR
STARTCHAR 01FD
ENCODING 509
SWIDTH 720 0
DWIDTH 14 0
BBX 12 13 1 0
BITMAP
0300
0200
0400
0000
39C0
7FE0
0E30
0FF0
7FF0
CC00
8C20
CE60
7BC0
ENDCHAR
STARTCHAR 01FE
ENCODING 510
SWIDTH 617 0
DWIDTH 12 0
BBX 10 16 1 -1
BITMAP
0600
0400
0000
0E40
3FC0
6180
41C0
C340
8640
8C40
8C40
D840
F0C0
6080
7380
DF00
ENDCHAR
STARTCHAR 01FF
ENCODING 511
SWIDTH 462 0
DWIDTH 9 0
BBX 8 14 1 -1
BITMAP
0C
08
10
02
3B
7E
CE
CA
9B
B2
E2
66
FC
80
ENDCHAR
STARTCHAR 0200
ENCODING 512
SWIDTH 617 0
DWIDTH 12 0
BBX 10 16 1 0
BITMAP
6C00
1200
0000
0400
0C00
0E00
1A00
1A00
1300
3100
3F80
2180
6080
40C0
C040
C040
ENDCHAR
STARTCHAR 0201
ENCODING 513
SWIDTH 360 0
DWIDTH 7 0
BBX 7 13 0 0
BITMAP
D8
48
24
00
1C
3E
06
06
3E
66
46
66
3E
ENDCHAR
STARTCHAR 0202
ENCODING 514
SWIDTH 617 0
DWIDTH 12 0
BBX 10 16 1 0
BITMAP
1E00
1100
0000
0400
0C00
0E00
1A00
1A00
1300
3100
3F80
2180
6080
40C0
C040
C040
ENDCHAR
STARTCHAR 0203
ENCODING 515
SWIDTH 360 0
DWIDTH 7 0
BBX 6 12 1 1
BITMAP
78
CC
00
38
7C
0C
0C
7C
CC
8C
CC
7C
ENDCHAR
STARTCHAR 0204
ENCODING 516
SWIDTH 462 0
DWIDTH 9 0
BBX 8 16 1 0
BITMAP
D8
24
00
FF
FF
80
80
80
80
FE
80
80
80
80
80
FF
ENDCHAR
STARTCHAR 0205
ENCODING 517
SWIDTH 462 0
DWIDTH 9 0
BBX 8 13 1 0
BITMAP
58
2C
24
00
38
7E
C6
FE
FF
80
C2
66
3C
ENDCHAR
STARTCHAR 0206
ENCODING 518
SWIDTH 462 0
DWIDTH 9 0
BBX 8 16 1 0
BITMAP
3C
64
00
FF
FF
80
80
80
80
FE
80
80
80
80
80
FF
ENDCHAR
STARTCHAR 0207
ENCODING 519
SWIDTH 462 0
DWIDTH 9 0
BBX 8 13 1 0
BITMAP
10
3C
44
00
38
7E
C6
FE
FF
80
C2
66
3C
ENDCHAR
STARTCHAR 0208
ENCODING 520
SWIDTH 308 0
DWIDTH 6 0
BBX 5 16 0 0
BITMAP
B0
48
00
78
78
30
30
30
30
30
30
30
30
30
30
78
ENDCHAR
STARTCHAR 0209
ENCODING 521
SWIDTH 154 0
DWIDTH 3 0
BBX 5 13 -2 0
BITMAP
90
48
28
00
10
10
10
10
10
10
10
10
10
ENDCHAR
STARTCHAR 020A
ENCODING 522
SWIDTH 308 0
DWIDTH 6 0
BBX 5 16 1 0
BITMAP
F0
98
00
F0
F0
60
60
60
60
60
60
60
60
60
60
F0
ENDCHAR
STARTCHAR 020B
ENCODING 523
SWIDTH 154 0
DWIDTH 3 0
BBX 5 13 -1 0
BITMAP
20
78
88
00
20
20
20
20
20
20
20
20
20
ENDCHAR
STARTCHAR 020C
ENCODING 524
SWIDTH 617 0
DWIDTH 12 0
BBX 10 16 1 0
BITMAP
6C00
1200
0000
0E00
3F00
6180
40C0
C040
8040
8040
8040
C040
C0C0
6080
3380
1F00
ENDCHAR
STARTCHAR 020D
ENCODING 525
SWIDTH 462 0
DWIDTH 9 0
BBX 8 13 1 0
BITMAP
D8
48
24
00
38
7E
C6
C2
83
82
C2
66
3C
ENDCHAR
STARTCHAR 020E
ENCODING 526
SWIDTH 617 0
DWIDTH 12 0
BBX 10 16 1 0
BITMAP
1E00
1300
0000
0E00
3F00
6180
40C0
C040
8040
8040
8040
C040
C0C0
6080
3380
1F00
ENDCHAR
STARTCHAR 020F
ENCODING 527
SWIDTH 462 0
DWIDTH 9 0
BBX 8 13 1 0
BITMAP
10
3C
44
00
38
7E
C6
C2
83
82
C2
66
3C
ENDCHAR
STARTCHAR 0210
ENCODING 528
SWIDTH 514 0
DWIDTH 10 0
BBX 8 16 1 0
BITMAP
D8
48
24
F0
FC
86
82
82
86
FC
F8
8C
84
86
83
81
ENDCHAR
STARTCHAR 0211
ENCODING 529
SWIDTH 308 0
DWIDTH 6 0
BBX 7 13 -1 0
BITMAP
D8
6C
24
00
2E
3C
30
30
20
20
20
20
20
ENDCHAR
STARTCHAR 0212
ENCODING 530
SWIDTH 514 0
DWIDTH 10 0
BBX 8 16 1 0
BITMAP
78
44
00
F0
FC
86
82
82
86
FC
F8
8C
84
86
83
81
ENDCHAR
STARTCHAR 0213
ENCODING 531
SWIDTH 308 0
DWIDTH 6 0
BBX 5 13 1 0
BITMAP
20
F0
88
00
B8
F0
C0
C0
80
80
80
80
80
ENDCHAR
STARTCHAR 0214
ENCODING 532
SWIDTH 565 0
DWIDTH 11 0
BBX 9 16 1 0
BITMAP
6C00
1200
0000
8080
8080
8080
8080
8080
8080
8080
8080
8080
C080
C180
6300
3E00
ENDCHAR
STARTCHAR 0215
ENCODING 533
SWIDTH 462 0
DWIDTH 9 0
BBX 8 13 1 0
BITMAP
D8
48
24
00
83
83
83
83
83
83
C7
4F
7F
ENDCHAR
STARTCHAR 0216
ENCODING 534
SWIDTH 565 0
DWIDTH 11 0
BBX 9 16 1 0
BITMAP
1E00
2200
0000
8080
8080
8080
8080
8080
8080
8080
8080
8080
C080
C180
6300
3E00
ENDCHAR
STARTCHAR 0217
ENCODING 535
SWIDTH 462 0
DWIDTH 9 0
BBX 8 13 1 0
BITMAP
10
3C
44
00
83
83
83
83
83
83
C7
4F
7F
ENDCHAR
STARTCHAR 0218
ENCODING 536
SWIDTH 462 0
DWIDTH 9 0
BBX 8 19 1 -6
BITMAP
18
7C
46
C2
40
60
38
0E
02
83
C2
66
3C
00
18
18
08
08
10
ENDCHAR
STARTCHAR 0219
ENCODING 537
SWIDTH 360 0
DWIDTH 7 0
BBX 6 15 1 -6
BITMAP
70
F8
C0
60
38
08
8C
C8
78
00
30
30
10
10
20
ENDCHAR
STARTCHAR 021A
ENCODING 538
SWIDTH 462 0
DWIDTH 9 0
BBX 8 19 1 -6
BITMAP
FF
FF
18
18
18
18
18
18
18
18
18
18
18
00
18
18
08
08
10
ENDCHAR
STARTCHAR 021B
ENCODING 539
SWIDTH 308 0
DWIDTH 6 0
BBX 5 17 1 -6
BITMAP
20
20
F8
F8
20
20
20
20
20
20
38
00
60
70
10
20
40
ENDCHAR
STARTCHAR 021C
ENCODING 540
SWIDTH 462 0
DWIDTH 9 0
BBX 7 13 1 0
BITMAP
38
7E
C2
02
02
06
1E
7A
02
02
06
1C
70
ENDCHAR
STARTCHAR 021D
ENCODING 541
SWIDTH 462 0
DWIDTH 9 0
BBX 7 13 1 -4
BITMAP
3C
FE
02
02
02
06
3E
72
02
02
06
3C
70
ENDCHAR
STARTCHAR 021E
ENCODING 542
SWIDTH 462 0
DWIDTH 9 0
BBX 8 16 1 0
BITMAP
24
38
18
83
83
83
83
83
83
FF
83
83
83
83
83
83
ENDCHAR
STARTCHAR 021F
ENCODING 543
SWIDTH 462 0
DWIDTH 9 0
BBX 8 16 1 0
BITMAP
24
38
18
80
80
80
80
BC
FE
C2
C2
83
83
83
83
83
ENDCHAR
STARTCHAR 0220
ENCODING 544
SWIDTH 565 0
DWIDTH 11 0
BBX 9 17 1 -4
BITMAP
9C00
BF00
E180
C080
8080
8080
8080
8080
8080
8080
8080
8080
8080
0080
0080
0080
0080
ENDCHAR
STARTCHAR 0221
ENCODING 545
SWIDTH 668 0
DWIDTH 13 0
BBX 12 17 1 -4
BITMAP
0300
0300
0300
0300
3B00
7F00
C700
C300
8300
8330
C350
6760
3DC0
0040
0080
0280
0300
ENDCHAR
STARTCHAR 0222
ENCODING 546
SWIDTH 462 0
DWIDTH 9 0
BBX 8 13 1 0
BITMAP
83
83
C2
46
7C
7E
C6
C2
83
82
C2
66
3C
ENDCHAR
STARTCHAR 0223
ENCODING 547
SWIDTH 411 0
DWIDTH 8 0
BBX 7 13 1 0
BITMAP
C4
86
86
C4
CC
78
6C
C4
86
86
C4
4C
78
ENDCHAR
STARTCHAR 0224
ENCODING 548
SWIDTH 514 0
DWIDTH 10 0
BBX 8 17 1 -4
BITMAP
FF
FF
03
02
06
0C
08
18
30
60
40
C0
FF
01
01
03
0E
ENDCHAR
STARTCHAR 0225
ENCODING 549
SWIDTH 360 0
DWIDTH 7 0
BBX 6 13 1 -4
BITMAP
FC
FC
08
18
30
60
40
C0
FC
0C
0C
2C
38
ENDCHAR
STARTCHAR 0226
ENCODING 550
SWIDTH 617 0
DWIDTH 12 0
BBX 10 16 1 0
BITMAP
0C00
0C00
0000
0400
0C00
0E00
1A00
1A00
1300
3100
3F80
2180
6080
40C0
C040
C040
ENDCHAR
STARTCHAR 0227
ENCODING 551
SWIDTH 360 0
DWIDTH 7 0
BBX 6 12 1 0
BITMAP
30
30
00
38
7C
0C
0C
7C
CC
8C
CC
7C
ENDCHAR
STARTCHAR 0228
ENCODING 552
SWIDTH 462 0
DWIDTH 9 0
BBX 8 17 1 -4
BITMAP
FF
FF
80
80
80
80
FE
80
80
80
80
80
FF
10
0C
04
38
ENDCHAR
STARTCHAR 0229
ENCODING 553
SWIDTH 462 0
DWIDTH 9 0
BBX 8 13 1 -4
BITMAP
38
7E
C6
FE
FF
80
C2
66
3C
10
0C
04
38
ENDCHAR
STARTCHAR 022A
ENCODING 554
SWIDTH 617 0
DWIDTH 12 0
BBX 10 16 1 0
BITMAP
1F00
1200
1B00
0E00
3F00
6180
40C0
C040
8040
8040
8040
C040
C0C0
6080
3380
1F00
ENDCHAR
STARTCHAR 022B
ENCODING 555
SWIDTH 462 0
DWIDTH 9 0
BBX 8 15 1 0
BITMAP
7C
7C
00
6C
64
00
38
7E
C6
C2
83
82
C2
66
3C
ENDCHAR
STARTCHAR 022C
ENCODING 556
SWIDTH 617 0
DWIDTH 12 0
BBX 10 16 1 0
BITMAP
1F00
3900
2700
0E00
3F00
6180
40C0
C040
8040
8040
8040
C040
C0C0
6080
3380
1F00
ENDCHAR
STARTCHAR 022D
ENCODING 557
SWIDTH 462 0
DWIDTH 9 0
BBX 8 15 1 0
BITMAP
7C
7C
00
72
8E
00
38
7E
C6
C2
83
82
C2
66
3C
ENDCHAR
STARTCHAR 022E
ENCODING 558
SWIDTH 617 0
DWIDTH 12 0
BBX 10 16 1 0
BITMAP
0C00
0C00
0000
0E00
3F00
6180
40C0
C040
8040
8040
8040
C040
C0C0
6080
3380
1F00
ENDCHAR
STARTCHAR 022F
ENCODING 559
SWIDTH 462 0
DWIDTH 9 0
BBX 8 12 1 0
BITMAP
18
18
00
38
7E
C6
C2
83
82
C2
66
3C
ENDCHAR
STARTCHAR 0230
ENCODING 560
SWIDTH 617 0
DWIDTH 12 0
BBX 10 16 1 0
BITMAP
1F00
0C00
0C00
0E00
3F00
6180
40C0
C040
8040
8040
8040
C040
C0C0
6080
3380
1F00
ENDCHAR
STARTCHAR 0231
ENCODING 561
SWIDTH 462 0
DWIDTH 9 0
BBX 8 15 1 0
BITMAP
7C
7C
00
18
18
00
38
7E
C6
C2
83
82
C2
66
3C
ENDCHAR
STARTCHAR 0232
ENCODING 562
SWIDTH 617 0
DWIDTH 12 0
BBX 10 15 1 0
BITMAP
1F00
0000
C040
40C0
6180
3100
1B00
1E00
0C00
0C00
0C00
0C00
0C00
0C00
0C00
ENDCHAR
STARTCHAR 0233
ENCODING 563
SWIDTH 462 0
DWIDTH 9 0
BBX 8 16 1 -4
BITMAP
3C
3C
00
C3
C2
46
66
64
2C
3C
18
18
10
10
30
60
ENDCHAR
STARTCHAR 0234
ENCODING 564
SWIDTH 360 0
DWIDTH 7 0
BBX 6 17 0 -4
BITMAP
40
40
40
40
40
40
40
40
40
4C
4C
4C
78
10
10
D0
60
ENDCHAR
STARTCHAR 0235
ENCODING 565
SWIDTH 668 0
DWIDTH 13 0
BBX 12 13 1 -4
BITMAP
BC00
FE00
C200
C200
8300
8330
8350
8360
81C0
0040
0080
0280
0300
ENDCHAR
STARTCHAR 0236
ENCODING 566
SWIDTH 462 0
DWIDTH 9 0
BBX 7 15 1 -4
BITMAP
20
20
F8
F8
20
20
20
26
26
2A
3C
08
08
48
30
ENDCHAR
STARTCHAR 0237
ENCODING 567
SWIDTH 154 0
DWIDTH 3 0
BBX 4 13 -2 -4
BITMAP
10
10
10
10
10
10
10
10
10
10
10
30
E0
ENDCHAR
STARTCHAR 0238
ENCODING 568
SWIDTH 771 0
DWIDTH 15 0
BBX 14 13 1 0
BITMAP
0300
0300
0300
0300
3BF0
7FF8
C708
C30C
830C
830C
C308
6798
3FF0
ENDCHAR
STARTCHAR 0239
ENCODING 569
SWIDTH 771 0
DWIDTH 15 0
BBX 14 13 1 -4
BITMAP
3BF0
7FF8
C708
C30C
830C
830C
C308
6798
3FF0
0300
0300
0300
0300
ENDCHAR
STARTCHAR 023A
ENCODING 570
SWIDTH 617 0
DWIDTH 12 0
BBX 11 13 1 -1
BITMAP
0460
0CC0
0F80
1B00
1B00
1700
3500
3F80
3980
7080
60C0
E040
C040
ENDCHAR
STARTCHAR 023B
ENCODING 571
SWIDTH 565 0
DWIDTH 11 0
BBX 10 13 1 -1
BITMAP
0E40
3FC0
6180
4180
C300
8600
8C00
8800
D800
F000
6080
7380
DF00
ENDCHAR
STARTCHAR 023C
ENCODING 572
SWIDTH 462 0
DWIDTH 9 0
BBX 8 11 1 -1
BITMAP
02
3B
7E
CE
C8
98
B0
E2
66
FC
80
ENDCHAR
STARTCHAR 023D
ENCODING 573
SWIDTH 565 0
DWIDTH 11 0
BBX 9 13 1 0
BITMAP
6000
6000
6000
6000
6000
6000
F800
6000
6000
6000
6000
6000
7F80
ENDCHAR
STARTCHAR 023E
ENCODING 574
SWIDTH 462 0
DWIDTH 9 0
BBX 10 14 0 -1
BITMAP
7FC0
7F80
0D80
0F00
0E00
0E00
0C00
0C00
1C00
3C00
6C00
4C00
CC00
8000
ENDCHAR
STARTCHAR 023F
ENCODING 575
SWIDTH 360 0
DWIDTH 7 0
BBX 9 14 1 -5
BITMAP
7000
F800
C800
E000
3800
0800
8C00
C800
7800
0800
0C00
0400
0780
0100
ENDCHAR
STARTCHAR 0240
ENCODING 576
SWIDTH 360 0
DWIDTH 7 0
BBX 9 13 1 -4
BITMAP
FC00
FC00
0800
1800
3000
6000
4000
C000
F000
1800
0800
0C00
0780
ENDCHAR
STARTCHAR 0241
ENCODING 577
SWIDTH 462 0
DWIDTH 9 0
BBX 8 13 1 0
BITMAP
18
7C
C6
C2
83
03
02
06
1C
10
10
10
10
ENDCHAR
STARTCHAR 0242
ENCODING 578
SWIDTH 360 0
DWIDTH 7 0
BBX 5 9 1 0
BITMAP
70
F8
88
08
18
30
20
20
20
ENDCHAR
STARTCHAR 0243
ENCODING 579
SWIDTH 565 0
DWIDTH 11 0
BBX 9 13 1 0
BITMAP
7C00
7F00
6180
6180
6180
6300
7F00
6180
6080
F880
6080
6380
7E00
ENDCHAR
STARTCHAR 0244
ENCODING 580
SWIDTH 668 0
DWIDTH 13 0
BBX 11 13 1 0
BITMAP
4040
4040
4040
4040
4040
4040
FFE0
4040
4040
4040
60C0
3180
1F00
ENDCHAR
STARTCHAR 0245
ENCODING 581
SWIDTH 617 0
DWIDTH 12 0
BBX 10 13 1 0
BITMAP
0400
0C00
0E00
1A00
1A00
1300
3100
2180
2180
6080
40C0
C040
C040
ENDCHAR
STARTCHAR 0246
ENCODING 582
SWIDTH 462 0
DWIDTH 9 0
BBX 10 14 0 -1
BITMAP
7FC0
7F80
4180
4300
4200
4600
7F00
4800
5800
7000
6000
4000
FF80
8000
ENDCHAR
STARTCHAR 0247
ENCODING 583
SWIDTH 462 0
DWIDTH 9 0
BBX 8 11 1 -1
BITMAP
02
3B
7E
CE
FE
FF
B0
E2
66
FC
80
ENDCHAR
STARTCHAR 0248
ENCODING 584
SWIDTH 411 0
DWIDTH 8 0
BBX 7 13 1 0
BITMAP
08
08
08
08
08
08
3E
08
08
08
08
D8
70
ENDCHAR
STARTCHAR 0249
ENCODING 585
SWIDTH 308 0
DWIDTH 6 0
BBX 6 16 0 -4
BITMAP
10
10
00
10
10
10
10
7C
10
10
10
10
10
10
30
E0
ENDCHAR
STARTCHAR 024A
ENCODING 586
SWIDTH 617 0
DWIDTH 12 0
BBX 13 17 1 -4
BITMAP
0E40
3F40
61C0
40C0
C040
8040
8040
8040
C040
C0C0
60C0
33C0
1F40
0040
0040
0068
0038
ENDCHAR
STARTCHAR 024B
ENCODING 587
SWIDTH 462 0
DWIDTH 9 0
BBX 10 13 1 -4
BITMAP
3B00
7F00
C700
C300
8300
8300
C300
6700
3F00
0300
0300
0340
01C0
ENDCHAR
STARTCHAR 024C
ENCODING 588
SWIDTH 565 0
DWIDTH 11 0
BBX 10 13 1 0
BITMAP
7C00
7F00
6180
6180
6180
6180
FF00
FE00
6200
6300
6100
6180
60C0
ENDCHAR
STARTCHAR 024D
ENCODING 589
SWIDTH 411 0
DWIDTH 8 0
BBX 6 9 1 0
BITMAP
6C
7C
70
60
F8
60
60
60
60
ENDCHAR
STARTCHAR 024E
ENCODING 590
SWIDTH 617 0
DWIDTH 12 0
BBX 10 13 1 0
BITMAP
C040
40C0
FFC0
FFC0
1B00
1E00
0C00
0C00
0C00
0C00
0C00
0C00
0C00
ENDCHAR
STARTCHAR 024F
ENCODING 591
SWIDTH 462 0
DWIDTH 9 0
BBX 8 13 1 -4
BITMAP
C3
C2
46
66
FF
2C
3C
18
18
10
10
30
60
ENDCHAR
STARTCHAR 0250
ENCODING 592
SWIDTH 360 0
DWIDTH 7 0
BBX 6 9 1 0
BITMAP
F8
FC
8C
8C
F8
B0
80
C8
78
ENDCHAR
STARTCHAR 0251
ENCODING 593
SWIDTH 462 0
DWIDTH 9 0
BBX 8 9 1 0
BITMAP
3B
7F
C7
C3
83
83
C3
67
3F
ENDCHAR
STARTCHAR 0252
ENCODING 594
SWIDTH 462 0
DWIDTH 9 0
BBX 8 9 1 0
BITMAP
B8
FE
C6
C2
83
82
C2
E6
BC
ENDCHAR
STARTCHAR 0253
ENCODING 595
SWIDTH 462 0
DWIDTH 9 0
BBX 8 13 1 0
BITMAP
30
F0
80
80
B8
FE
C6
C2
83
82
C2
E6
BC
ENDCHAR
STARTCHAR 0254
ENCODING 596
SWIDTH 462 0
DWIDTH 9 0
BBX 7 9 1 0
BITMAP
38
7C
C6
06
02
02
86
CC
78
ENDCHAR
STARTCHAR 0255
ENCODING 597
SWIDTH 462 0
DWIDTH 9 0
BBX 7 13 1 -4
BITMAP
38
7E
C6
C0
80
86
C6
6A
3C
08
08
48
30
ENDCHAR
STARTCHAR 0256
ENCODING 598
SWIDTH 462 0
DWIDTH 9 0
BBX 10 17 1 -4
BITMAP
0300
0300
0300
0300
3B00
7F00
C700
C300
8300
8300
C300
6700
3F00
0300
0300
0340
01C0
ENDCHAR
STARTCHAR 0257
ENCODING 599
SWIDTH 462 0
DWIDTH 9 0
BBX 10 13 1 0
BITMAP
00C0
01C0
0300
0300
3B00
7F00
C700
C300
8300
8300
C300
6700
3F00
ENDCHAR
STARTCHAR 0258
ENCODING 600
SWIDTH 462 0
DWIDTH 9 0
BBX 8 9 1 0
BITMAP
38
7E
C6
FE
FF
02
42
66
3C
ENDCHAR
STARTCHAR 0259
ENCODING 601
SWIDTH 462 0
DWIDTH 9 0
BBX 8 9 1 0
BITMAP
38
7E
C6
02
FF
FE
C2
66
3C
ENDCHAR
STARTCHAR 025A
ENCODING 602
SWIDTH 668 0
DWIDTH 13 0
BBX 12 9 1 0
BITMAP
3800
7E00
C600
0220
FF90
FEA0
C240
6600
3C00
ENDCHAR
STARTCHAR 025B
ENCODING 603
SWIDTH 360 0
DWIDTH 7 0
BBX 6 9 1 0
BITMAP
70
78
C8
60
60
C0
8C
C8
78
ENDCHAR
STARTCHAR 025C
ENCODING 604
SWIDTH 360 0
DWIDTH 7 0
BBX 6 9 1 0
BITMAP
70
78
C8
38
38
0C
8C
C8
78
ENDCHAR
STARTCHAR 025D
ENCODING 605
SWIDTH 565 0
DWIDTH 11 0
BBX 9 9 1 0
BITMAP
7000
7880
CE80
3A80
3900
0C00
8C00
C800
7800
ENDCHAR
STARTCHAR 025E
ENCODING 606
SWIDTH 411 0
DWIDTH 8 0
BBX 7 9 1 0
BITMAP
38
7C
C4
DC
9C
84
C6
64
3C
ENDCHAR
STARTCHAR 025F
ENCODING 607
SWIDTH 308 0
DWIDTH 6 0
BBX 6 13 0 -4
BITMAP
10
10
10
10
10
10
10
7C
10
10
10
B0
E0
ENDCHAR
STARTCHAR 0260
ENCODING 608
SWIDTH 462 0
DWIDTH 9 0
BBX 10 17 1 -4
BITMAP
0080
01C0
0300
0300
3B00
7F00
C700
C300
8300
8300
C300
6700
3F00
0300
4200
6E00
3C00
ENDCHAR
STARTCHAR 0261
ENCODING 609
SWIDTH 462 0
DWIDTH 9 0
BBX 8 13 1 -4
BITMAP
3B
7F
C7
C3
83
83
C3
67
3F
03
42
6E
3C
ENDCHAR
STARTCHAR 0262
ENCODING 610
SWIDTH 462 0
DWIDTH 9 0
BBX 7 9 1 0
BITMAP
38
7E
C6
C0
8E
8E
C2
66
3C
ENDCHAR
STARTCHAR 0263
ENCODING 611
SWIDTH 462 0
DWIDTH 9 0
BBX 8 13 1 -4
BITMAP
C3
C2
46
66
64
2C
3C
18
18
18
38
3C
18
ENDCHAR
STARTCHAR 0264
ENCODING 612
SWIDTH 617 0
DWIDTH 12 0
BBX 10 9 1 0
BITMAP
71C0
FBC0
0E00
0E00
0C00
0C00
0E00
0A00
0E00
ENDCHAR
STARTCHAR 0265
ENCODING 613
SWIDTH 462 0
DWIDTH 9 0
BBX 8 13 1 -4
BITMAP
83
83
83
83
83
83
C7
4F
7F
03
03
03
03
ENDCHAR
STARTCHAR 0266
ENCODING 614
SWIDTH 462 0
DWIDTH 9 0
BBX 8 13 1 0
BITMAP
30
F0
80
80
BC
FE
C2
C2
83
83
83
83
83
ENDCHAR
STARTCHAR 0267
ENCODING 615
SWIDTH 462 0
DWIDTH 9 0
BBX 8 17 1 -4
BITMAP
30
F0
80
80
BC
FE
C2
C2
83
83
83
83
83
03
03
06
1C
ENDCHAR
STARTCHAR 0268
ENCODING 616
SWIDTH 308 0
DWIDTH 6 0
BBX 4 12 1 0
BITMAP
60
60
00
60
60
60
60
F0
60
60
60
60
ENDCHAR
STARTCHAR 0269
ENCODING 617
SWIDTH 205 0
DWIDTH 4 0
BBX 3 9 1 0
BITMAP
80
80
80
80
80
80
80
80
E0
ENDCHAR
STARTCHAR 026A
ENCODING 618
SWIDTH 308 0
DWIDTH 6 0
BBX 4 9 1 0
BITMAP
F0
F0
60
60
60
60
60
60
F0
ENDCHAR
STARTCHAR 026B
ENCODING 619
SWIDTH 411 0
DWIDTH 8 0
BBX 6 13 1 0
BITMAP
10
10
10
10
10
10
F4
9C
10
10
10
10
18
ENDCHAR
STARTCHAR 026C
ENCODING 620
SWIDTH 411 0
DWIDTH 8 0
BBX 7 13 1 0
BITMAP
10
10
10
70
F0
96
D4
7C
30
10
10
10
1C
ENDCHAR
STARTCHAR 026D
ENCODING 621
SWIDTH 154 0
DWIDTH 3 0
BBX 4 17 1 -4
BITMAP
80
80
80
80
80
80
80
80
80
80
80
80
80
80
80
D0
70
ENDCHAR
STARTCHAR 026E
ENCODING 622
SWIDTH 462 0
DWIDTH 9 0
BBX 8 17 1 -4
BITMAP
80
80
80
80
FF
FF
86
84
8C
9C
86
82
83
02
02
6E
3C
ENDCHAR
STARTCHAR 026F
ENCODING 623
SWIDTH 565 0
DWIDTH 11 0
BBX 10 9 1 0
BITMAP
8CC0
8CC0
8CC0
8CC0
8CC0
8CC0
8CC0
DDC0
77C0
ENDCHAR
STARTCHAR 0270
ENCODING 624
SWIDTH 565 0
DWIDTH 11 0
BBX 10 13 1 -4
BITMAP
8CC0
8CC0
8CC0
8CC0
8CC0
8CC0
8CC0
DDC0
77C0
00C0
00C0
00C0
0040
ENDCHAR
STARTCHAR 0271
ENCODING 625
SWIDTH 565 0
DWIDTH 11 0
BBX 10 13 1 -4
BITMAP
B380
FF80
CCC0
CCC0
8CC0
8CC0
8CC0
8CC0
8CC0
00C0
00C0
02C0
0380
ENDCHAR
STARTCHAR 0272
ENCODING 626
SWIDTH 462 0
DWIDTH 9 0
BBX 11 13 -2 -4
BITMAP
1780
1FC0
1840
1840
1060
1060
1060
1060
1060
1000
1000
3000
E000
ENDCHAR
STARTCHAR 0273
ENCODING 627
SWIDTH 462 0
DWIDTH 9 0
BBX 10 13 1 -4
BITMAP
BC00
FE00
C200
C200
8300
8300
8300
8300
8300
0300
0300
0340
01C0
ENDCHAR
STARTCHAR 0274
ENCODING 628
SWIDTH 462 0
DWIDTH 9 0
BBX 7 9 1 0
BITMAP
C2
C2
E2
B2
92
9A
8E
86
86
ENDCHAR
STARTCHAR 0275
ENCODING 629
SWIDTH 462 0
DWIDTH 9 0
BBX 8 9 1 0
BITMAP
38
7E
C6
C2
FF
82
C2
66
3C
ENDCHAR
STARTCHAR 0276
ENCODING 630
SWIDTH 720 0
DWIDTH 14 0
BBX 12 9 1 0
BITMAP
3BF0
7FF0
C700
C300
83E0
8300
C300
6700
3FF0
ENDCHAR
STARTCHAR 0277
ENCODING 631
SWIDTH 565 0
DWIDTH 11 0
BBX 10 9 1 0
BITMAP
3F00
7F80
C0C0
80C0
80C0
8CC0
CCC0
5C80
7380
ENDCHAR
STARTCHAR 0278
ENCODING 632
SWIDTH 462 0
DWIDTH 9 0
BBX 8 17 1 -4
BITMAP
10
10
10
10
38
7E
D6
D2
93
92
D2
76
3C
10
10
10
10
ENDCHAR
STARTCHAR 0279
ENCODING 633
SWIDTH 308 0
DWIDTH 6 0
BBX 5 9 1 0
BITMAP
18
18
18
18
18
18
18
38
F8
ENDCHAR
STARTCHAR 027A
ENCODING 634
SWIDTH 308 0
DWIDTH 6 0
BBX 5 13 1 0
BITMAP
18
18
18
18
18
18
18
18
18
18
18
38
F8
ENDCHAR
STARTCHAR 027B
ENCODING 635
SWIDTH 308 0
DWIDTH 6 0
BBX 7 13 1 -4
BITMAP
18
18
18
18
18
18
18
38
F8
18
18
0E
0E
ENDCHAR
STARTCHAR 027C
ENCODING 636
SWIDTH 308 0
DWIDTH 6 0
BBX 5 13 1 -4
BITMAP
B8
F0
C0
C0
80
80
80
80
80
80
80
80
80
ENDCHAR
STARTCHAR 027D
ENCODING 637
SWIDTH 308 0
DWIDTH 6 0
BBX 5 13 1 -4
BITMAP
B8
F0
C0
C0
80
80
80
80
80
80
80
D0
70
ENDCHAR
STARTCHAR 027E
ENCODING 638
SWIDTH 308 0
DWIDTH 6 0
BBX 4 9 1 0
BITMAP
70
F0
80
80
80
80
80
80
80
ENDCHAR
STARTCHAR 027F
ENCODING 639
SWIDTH 308 0
DWIDTH 6 0
BBX 4 13 1 -4
BITMAP
E0
70
10
10
10
10
10
10
10
10
10
10
10
ENDCHAR
STARTCHAR 0280
ENCODING 640
SWIDTH 411 0
DWIDTH 8 0
BBX 6 9 1 0
BITMAP
F0
F8
88
88
F8
F0
98
88
8C
ENDCHAR
STARTCHAR 0281
ENCODING 641
SWIDTH 411 0
DWIDTH 8 0
BBX 6 9 1 0
BITMAP
8C
88
98
90
F0
98
88
98
F0
ENDCHAR
STARTCHAR 0282
ENCODING 642
SWIDTH 360 0
DWIDTH 7 0
BBX 6 13 1 -4
BITMAP
70
F8
C8
E0
38
08
8C
C8
F8
80
80
D0
70
ENDCHAR
STARTCHAR 0283
ENCODING 643
SWIDTH 154 0
DWIDTH 3 0
BBX 7 17 -2 -4
BITMAP
06
1E
10
10
10
10
10
10
10
10
10
10
10
10
10
30
E0
ENDCHAR
STARTCHAR 0284
ENCODING 644
SWIDTH 154 0
DWIDTH 3 0
BBX 7 17 -2 -4
BITMAP
06
1E
10
10
10
10
10
10
10
10
10
10
7E
10
10
30
E0
ENDCHAR
STARTCHAR 0285
ENCODING 645
SWIDTH 308 0
DWIDTH 6 0
BBX 7 13 1 -4
BITMAP
E0
70
10
10
10
10
10
10
10
10
10
1A
0E
ENDCHAR
STARTCHAR 0286
ENCODING 646
SWIDTH 411 0
DWIDTH 8 0
BBX 7 17 0 -4
BITMAP
06
0E
18
18
18
18
18
18
18
18
18
18
7C
5E
DA
58
70
ENDCHAR
STARTCHAR 0287
ENCODING 647
SWIDTH 308 0
DWIDTH 6 0
BBX 5 11 1 -2
BITMAP
C0
E0
20
20
20
20
20
20
F8
20
20
ENDCHAR
STARTCHAR 0288
ENCODING 648
SWIDTH 308 0
DWIDTH 6 0
BBX 6 15 1 -4
BITMAP
20
20
F8
F8
20
20
20
20
20
20
20
20
20
30
1C
ENDCHAR
STARTCHAR 0289
ENCODING 649
SWIDTH 617 0
DWIDTH 12 0
BBX 10 9 1 0
BITMAP
6080
6080
6080
6080
FFC0
6180
2180
3380
1E80
ENDCHAR
STARTCHAR 028A
ENCODING 650
SWIDTH 462 0
DWIDTH 9 0
BBX 8 9 1 0
BITMAP
E7
E7
C6
C2
83
82
C2
66
3C
ENDCHAR
STARTCHAR 028B
ENCODING 651
SWIDTH 411 0
DWIDTH 8 0
BBX 7 9 1 0
BITMAP
DC
CC
46
66
64
2C
3C
18
18
ENDCHAR
STARTCHAR 028C
ENCODING 652
SWIDTH 462 0
DWIDTH 9 0
BBX 8 9 1 0
BITMAP
18
18
38
2C
24
66
46
C2
C3
ENDCHAR
STARTCHAR 028D
ENCODING 653
SWIDTH 617 0
DWIDTH 12 0
BBX 11 9 1 0
BITMAP
3180
3180
3380
7B80
7AC0
4AC0
4E40
CE40
C460
ENDCHAR
STARTCHAR 028E
ENCODING 654
SWIDTH 462 0
DWIDTH 9 0
BBX 8 13 1 0
BITMAP
06
0E
08
18
18
18
38
2C
24
66
46
C2
C3
ENDCHAR
STARTCHAR 028F
ENCODING 655
SWIDTH 462 0
DWIDTH 9 0
BBX 8 9 1 0
BITMAP
C3
66
24
3C
18
18
18
18
18
ENDCHAR
STARTCHAR 0290
ENCODING 656
SWIDTH 360 0
DWIDTH 7 0
BBX 9 13 1 -4
BITMAP
FC00
FC00
0800
1800
3000
6000
4000
C000
FC00
0C00
0C00
0700
0380
ENDCHAR
STARTCHAR 0291
ENCODING 657
SWIDTH 411 0
DWIDTH 8 0
BBX 7 13 1 -4
BITMAP
FC
FC
08
18
30
66
4C
CC
F8
08
10
D0
60
ENDCHAR
STARTCHAR 0292
ENCODING 658
SWIDTH 411 0
DWIDTH 8 0
BBX 7 13 1 -4
BITMAP
FE
FE
0C
08
18
38
0C
04
06
06
04
DC
78
ENDCHAR
STARTCHAR 0293
ENCODING 659
SWIDTH 411 0
DWIDTH 8 0
BBX 8 17 0 -8
BITMAP
7F
7F
06
04
0C
1C
06
02
03
C3
C2
6E
3C
20
20
24
18
ENDCHAR
STARTCHAR 0294
ENCODING 660
SWIDTH 411 0
DWIDTH 8 0
BBX 7 13 1 0
BITMAP
30
7C
C4
86
06
04
0C
18
10
10
10
10
10
ENDCHAR
STARTCHAR 0295
ENCODING 661
SWIDTH 411 0
DWIDTH 8 0
BBX 7 13 1 0
BITMAP
30
7C
C4
86
80
C0
60
30
30
10
10
10
10
ENDCHAR
STARTCHAR 0296
ENCODING 662
SWIDTH 411 0
DWIDTH 8 0
BBX 7 13 1 0
BITMAP
10
10
10
10
10
10
18
0C
04
06
86
CC
78
ENDCHAR
STARTCHAR 0297
ENCODING 663
SWIDTH 462 0
DWIDTH 9 0
BBX 7 13 1 -4
BITMAP
38
7E
46
C0
C0
80
80
80
C0
C0
42
6E
38
ENDCHAR
STARTCHAR 0298
ENCODING 664
SWIDTH 462 0
DWIDTH 9 0
BBX 8 13 1 0
BITMAP
18
3C
46
C2
C2
82
9B
93
C2
C2
46
64
38
ENDCHAR
STARTCHAR 0299
ENCODING 665
SWIDTH 411 0
DWIDTH 8 0
BBX 6 9 1 0
BITMAP
F0
F8
8C
FC
F8
8C
84
8C
F8
ENDCHAR
STARTCHAR 029A
ENCODING 666
SWIDTH 411 0
DWIDTH 8 0
BBX 7 9 1 0
BITMAP
70
7C
C4
64
66
C6
84
CC
78
ENDCHAR
STARTCHAR 029B
ENCODING 667
SWIDTH 462 0
DWIDTH 9 0
BBX 10 13 1 0
BITMAP
0180
03C0
0200
0200
3A00
7E00
C600
C000
8E00
8E00
C200
6600
3C00
ENDCHAR
STARTCHAR 029C
ENCODING 668
SWIDTH 411 0
DWIDTH 8 0
BBX 7 9 1 0
BITMAP
86
86
86
86
FE
86
86
86
86
ENDCHAR
STARTCHAR 029D
ENCODING 669
SWIDTH 411 0
DWIDTH 8 0
BBX 7 16 1 -4
BITMAP
18
10
00
10
10
10
10
10
10
10
10
7C
D4
96
F0
60
ENDCHAR
STARTCHAR 029E
ENCODING 670
SWIDTH 411 0
DWIDTH 8 0
BBX 7 13 1 -4
BITMAP
C6
66
26
36
1E
1E
16
36
66
06
06
06
06
ENDCHAR
STARTCHAR 029F
ENCODING 671
SWIDTH 360 0
DWIDTH 7 0
BBX 5 9 1 0
BITMAP
80
80
80
80
80
80
80
80
F8
ENDCHAR
STARTCHAR 02A0
ENCODING 672
SWIDTH 462 0
DWIDTH 9 0
BBX 10 17 1 -4
BITMAP
0080
01C0
0300
0300
3B00
7F00
C700
C300
8300
8300
C300
6700
3F00
0300
0300
0300
0300
ENDCHAR
STARTCHAR 02A1
ENCODING 673
SWIDTH 411 0
DWIDTH 8 0
BBX 7 13 1 0
BITMAP
30
7C
C4
86
06
04
0C
18
7C
10
10
10
10
ENDCHAR
STARTCHAR 02A2
ENCODING 674
SWIDTH 411 0
DWIDTH 8 0
BBX 7 13 1 0
BITMAP
30
7C
C4
86
80
C0
60
30
7C
10
10
10
10
ENDCHAR
STARTCHAR 02A3
ENCODING 675
SWIDTH 771 0
DWIDTH 15 0
BBX 13 13 1 0
BITMAP
0300
0300
0300
0300
3BF8
7FF8
C718
C330
8320
8360
C3C0
6780
3FF8
ENDCHAR
STARTCHAR 02A4
ENCODING 676
SWIDTH 771 0
DWIDTH 15 0
BBX 13 17 1 -4
BITMAP
0300
0300
0300
0300
3BF8
7FF8
C718
C330
8320
8370
C318
6708
3F08
0008
0018
01B0
00E0
ENDCHAR
STARTCHAR 02A5
ENCODING 677
SWIDTH 822 0
DWIDTH 16 0
BBX 14 17 1 -4
BITMAP
0300
0300
0300
0300
3BF8
7FF8
C718
C330
8320
836C
C3CC
6794
3FF8
0010
0010
0090
0060
ENDCHAR
STARTCHAR 02A6
ENCODING 678
SWIDTH 617 0
DWIDTH 12 0
BBX 10 11 1 0
BITMAP
2000
2000
FB80
FFC0
2440
2600
2380
20C0
2040
20C0
3F80
ENDCHAR
STARTCHAR 02A7
ENCODING 679
SWIDTH 462 0
DWIDTH 9 0
BBX 10 17 1 -4
BITMAP
0180
03C0
2200
2200
FA00
FA00
2200
2200
2200
2200
2200
2200
3E00
0200
0200
1600
1C00
ENDCHAR
STARTCHAR 02A8
ENCODING 680
SWIDTH 668 0
DWIDTH 13 0
BBX 12 15 1 -4
BITMAP
2000
2000
F9C0
FBE0
2630
2400
2400
2430
2650
2350
3FE0
0040
0040
0280
0380
ENDCHAR
STARTCHAR 02A9
ENCODING 681
SWIDTH 720 0
DWIDTH 14 0
BBX 12 17 1 -4
BITMAP
1800
3C00
2000
2000
25C0
FFE0
2630
2410
2410
2410
2410
2410
2410
0010
0010
0030
00E0
ENDCHAR
STARTCHAR 02AA
ENCODING 682
SWIDTH 462 0
DWIDTH 9 0
BBX 8 13 1 0
BITMAP
80
80
80
80
9C
BE
B2
B0
8E
82
83
86
FC
ENDCHAR
STARTCHAR 02AB
ENCODING 683
SWIDTH 514 0
DWIDTH 10 0
BBX 8 13 1 0
BITMAP
80
80
80
80
9F
9F
83
86
86
8C
98
90
FF
ENDCHAR
STARTCHAR 02AC
ENCODING 684
SWIDTH 360 0
DWIDTH 7 0
BBX 6 9 1 0
BITMAP
B8
F8
78
58
A4
B8
78
78
58
ENDCHAR
STARTCHAR 02AD
ENCODING 685
SWIDTH 411 0
DWIDTH 8 0
BBX 7 9 1 0
BITMAP
FE
FE
86
00
00
00
FE
FE
86
ENDCHAR
STARTCHAR 02AE
ENCODING 686
SWIDTH 617 0
DWIDTH 12 0
BBX 11 13 1 -4
BITMAP
E060
7060
1060
1060
1060
1060
18E0
09E0
0F60
0060
0060
0060
0060
ENDCHAR
STARTCHAR 02AF
ENCODING 687
SWIDTH 617 0
DWIDTH 12 0
BBX 13 13 1 -4
BITMAP
E060
7060
1060
1060
1060
1060
18E0
09E0
0F60
0060
0060
0068
0038
ENDCHAR
STARTCHAR 02B0
ENCODING 688
SWIDTH 257 0
DWIDTH 5 0
BBX 4 6 1 9
BITMAP
80
80
F0
90
90
90
ENDCHAR
STARTCHAR 02B1
ENCODING 689
SWIDTH 257 0
DWIDTH 5 0
BBX 4 6 1 9
BITMAP
C0
80
F0
90
90
90
ENDCHAR
STARTCHAR 02B2
ENCODING 690
SWIDTH 205 0
DWIDTH 4 0
BBX 3 8 1 7
BITMAP
60
00
60
60
60
60
60
C0
ENDCHAR
STARTCHAR 02B3
ENCODING 691
SWIDTH 205 0
DWIDTH 4 0
BBX 2 4 1 9
BITMAP
C0
80
80
80
ENDCHAR
STARTCHAR 02B4
ENCODING 692
SWIDTH 205 0
DWIDTH 4 0
BBX 3 5 1 8
BITMAP
20
20
20
60
80
ENDCHAR
STARTCHAR 02B5
ENCODING 693
SWIDTH 308 0
DWIDTH 6 0
BBX 4 6 1 7
BITMAP
20
20
20
60
A0
30
ENDCHAR
STARTCHAR 02B6
ENCODING 694
SWIDTH 257 0
DWIDTH 5 0
BBX 3 4 1 9
BITMAP
A0
C0
E0
E0
ENDCHAR
STARTCHAR 02B7
ENCODING 695
SWIDTH 360 0
DWIDTH 7 0
BBX 6 4 1 9
BITMAP
B4
B8
78
58
ENDCHAR
STARTCHAR 02B8
ENCODING 696
SWIDTH 308 0
DWIDTH 6 0
BBX 4 6 1 7
BITMAP
90
50
60
60
20
C0
ENDCHAR
STARTCHAR 02B9
ENCODING 697
SWIDTH 205 0
DWIDTH 4 0
BBX 2 5 1 8
BITMAP
40
C0
C0
80
80
ENDCHAR
STARTCHAR 02BA
ENCODING 698
SWIDTH 360 0
DWIDTH 7 0
BBX 5 5 1 8
BITMAP
58
D8
D0
90
90
ENDCHAR
STARTCHAR 02BB
ENCODING 699
SWIDTH 154 0
DWIDTH 3 0
BBX 3 4 0 9
BITMAP
40
80
A0
60
ENDCHAR
STARTCHAR 02BC
ENCODING 700
SWIDTH 154 0
DWIDTH 3 0
BBX 2 5 1 8
BITMAP
C0
C0
40
40
80
ENDCHAR
STARTCHAR 02BD
ENCODING 701
SWIDTH 154 0
DWIDTH 3 0
BBX 3 5 0 8
BITMAP
60
60
80
80
40
ENDCHAR
STARTCHAR 02BE
ENCODING 702
SWIDTH 154 0
DWIDTH 3 0
BBX 2 3 1 9
BITMAP
80
40
80
ENDCHAR
STARTCHAR 02BF
ENCODING 703
SWIDTH 154 0
DWIDTH 3 0
BBX 2 4 1 9
BITMAP
40
80
80
40
ENDCHAR
STARTCHAR 02C0
ENCODING 704
SWIDTH 257 0
DWIDTH 5 0
BBX 4 6 1 9
BITMAP
E0
90
20
60
40
40
ENDCHAR
STARTCHAR 02C1
ENCODING 705
SWIDTH 257 0
DWIDTH 5 0
BBX 4 6 1 9
BITMAP
E0
90
80
40
40
40
ENDCHAR
STARTCHAR 02C2
ENCODING 706
SWIDTH 360 0
DWIDTH 7 0
BBX 5 7 1 2
BITMAP
08
18
30
F0
70
18
08
ENDCHAR
STARTCHAR 02C3
ENCODING 707
SWIDTH 360 0
DWIDTH 7 0
BBX 5 7 1 2
BITMAP
80
40
70
38
70
60
80
ENDCHAR
STARTCHAR 02C4
ENCODING 708
SWIDTH 462 0
DWIDTH 9 0
BBX 7 6 1 3
BITMAP
10
18
38
7C
46
80
ENDCHAR
STARTCHAR 02C5
ENCODING 709
SWIDTH 462 0
DWIDTH 9 0
BBX 7 5 1 3
BITMAP
82
6C
3C
38
10
ENDCHAR
STARTCHAR 02C6
ENCODING 710
SWIDTH 308 0
DWIDTH 6 0
BBX 4 3 1 10
BITMAP
60
70
90
ENDCHAR
STARTCHAR 02C7
ENCODING 711
SWIDTH 308 0
DWIDTH 6 0
BBX 5 3 1 10
BITMAP
08
90
70
ENDCHAR
STARTCHAR 02C8
ENCODING 712
SWIDTH 102 0
DWIDTH 2 0
BBX 1 4 1 10
BITMAP
80
80
80
80
ENDCHAR
STARTCHAR 02C9
ENCODING 713
SWIDTH 308 0
DWIDTH 6 0
BBX 5 2 1 10
BITMAP
F8
F8
ENDCHAR
STARTCHAR 02CA
ENCODING 714
SWIDTH 257 0
DWIDTH 5 0
BBX 3 3 1 10
BITMAP
60
40
80
ENDCHAR
STARTCHAR 02CB
ENCODING 715
SWIDTH 257 0
DWIDTH 5 0
BBX 3 3 1 10
BITMAP
C0
40
20
ENDCHAR
STARTCHAR 02CC
ENCODING 716
SWIDTH 102 0
DWIDTH 2 0
BBX 1 5 1 -6
BITMAP
80
80
80
80
80
ENDCHAR
STARTCHAR 02CD
ENCODING 717
SWIDTH 308 0
DWIDTH 6 0
BBX 5 1 1 -3
BITMAP
F8
ENDCHAR
STARTCHAR 02CE
ENCODING 718
SWIDTH 257 0
DWIDTH 5 0
BBX 3 2 1 -4
BITMAP
C0
20
ENDCHAR
STARTCHAR 02CF
ENCODING 719
SWIDTH 257 0
DWIDTH 5 0
BBX 3 3 1 -4
BITMAP
60
40
80
ENDCHAR
STARTCHAR 02D0
ENCODING 720
SWIDTH 205 0
DWIDTH 4 0
BBX 3 9 1 0
BITMAP
E0
40
40
00
00
00
40
40
E0
ENDCHAR
STARTCHAR 02D1
ENCODING 721
SWIDTH 205 0
DWIDTH 4 0
BBX 3 3 1 6
BITMAP
E0
40
40
ENDCHAR
STARTCHAR 02D2
ENCODING 722
SWIDTH 154 0
DWIDTH 3 0
BBX 2 3 1 5
BITMAP
80
40
80
ENDCHAR
STARTCHAR 02D3
ENCODING 723
SWIDTH 154 0
DWIDTH 3 0
BBX 2 3 1 5
BITMAP
C0
80
C0
ENDCHAR
STARTCHAR 02D4
ENCODING 724
SWIDTH 411 0
DWIDTH 8 0
BBX 7 4 1 6
BITMAP
10
10
10
FE
ENDCHAR
STARTCHAR 02D5
ENCODING 725
SWIDTH 411 0
DWIDTH 8 0
BBX 7 4 1 3
BITMAP
FE
10
10
10
ENDCHAR
STARTCHAR 02D6
ENCODING 726
SWIDTH 411 0
DWIDTH 8 0
BBX 7 7 1 3
BITMAP
10
10
10
FE
10
10
10
ENDCHAR
STARTCHAR 02D7
ENCODING 727
SWIDTH 411 0
DWIDTH 8 0
BBX 7 1 1 6
BITMAP
FE
ENDCHAR
STARTCHAR 02D8
ENCODING 728
SWIDTH 360 0
DWIDTH 7 0
BBX 5 3 1 10
BITMAP
88
88
70
ENDCHAR
STARTCHAR 02D9
ENCODING 729
SWIDTH 154 0
DWIDTH 3 0
BBX 2 2 1 10
BITMAP
C0
C0
ENDCHAR
STARTCHAR 02DA
ENCODING 730
SWIDTH 257 0
DWIDTH 5 0
BBX 3 4 1 9
BITMAP
60
A0
A0
40
ENDCHAR
STARTCHAR 02DB
ENCODING 731
SWIDTH 308 0
DWIDTH 6 0
BBX 4 4 1 -3
BITMAP
80
80
E0
10
ENDCHAR
STARTCHAR 02DC
ENCODING 732
SWIDTH 411 0
DWIDTH 8 0
BBX 7 2 1 10
BITMAP
F2
9C
ENDCHAR
STARTCHAR 02DD
ENCODING 733
SWIDTH 411 0
DWIDTH 8 0
BBX 6 3 1 10
BITMAP
6C
48
90
ENDCHAR
STARTCHAR 02DE
ENCODING 734
SWIDTH 257 0
DWIDTH 5 0
BBX 4 4 0 2
BITMAP
10
D0
50
20
ENDCHAR
STARTCHAR 02DF
ENCODING 735
SWIDTH 308 0
DWIDTH 6 0
BBX 4 4 1 9
BITMAP
D0
60
70
10
ENDCHAR
STARTCHAR 02E0
ENCODING 736
SWIDTH 308 0
DWIDTH 6 0
BBX 4 6 1 7
BITMAP
90
50
60
60
60
60
ENDCHAR
STARTCHAR 02E1
ENCODING 737
SWIDTH 154 0
DWIDTH 3 0
BBX 2 6 1 9
BITMAP
80
80
80
80
80
C0
ENDCHAR
STARTCHAR 02E2
ENCODING 738
SWIDTH 257 0
DWIDTH 5 0
BBX 3 5 1 8
BITMAP
E0
C0
20
A0
40
ENDCHAR
STARTCHAR 02E3
ENCODING 739
SWIDTH 308 0
DWIDTH 6 0
BBX 4 4 1 9
BITMAP
D0
60
60
D0
ENDCHAR
STARTCHAR 02E4
ENCODING 740
SWIDTH 257 0
DWIDTH 5 0
BBX 4 6 1 9
BITMAP
E0
90
80
40
40
40
ENDCHAR
STARTCHAR 02E5
ENCODING 741
SWIDTH 308 0
DWIDTH 6 0
BBX 5 13 1 0
BITMAP
F8
F8
18
18
18
18
18
18
18
18
18
18
18
ENDCHAR
STARTCHAR 02E6
ENCODING 742
SWIDTH 308 0
DWIDTH 6 0
BBX 5 13 1 0
BITMAP
18
18
18
F8
F8
18
18
18
18
18
18
18
18
ENDCHAR
STARTCHAR 02E7
ENCODING 743
SWIDTH 308 0
DWIDTH 6 0
BBX 5 13 1 0
BITMAP
18
18
18
18
18
18
F8
18
18
18
18
18
18
ENDCHAR
STARTCHAR 02E8
ENCODING 744
SWIDTH 308 0
DWIDTH 6 0
BBX 5 13 1 0
BITMAP
18
18
18
18
18
18
18
18
18
F8
18
18
18
ENDCHAR
STARTCHAR 02E9
ENCODING 745
SWIDTH 308 0
DWIDTH 6 0
BBX 5 13 1 0
BITMAP
18
18
18
18
18
18
18
18
18
18
18
18
F8
ENDCHAR
STARTCHAR 02EA
ENCODING 746
SWIDTH 308 0
DWIDTH 6 0
BBX 4 9 1 0
BITMAP
80
80
80
80
80
80
80
80
F0
ENDCHAR
STARTCHAR 02EB
ENCODING 747
SWIDTH 308 0
DWIDTH 6 0
BBX 4 9 1 0
BITMAP
80
80
80
80
F0
80
80
80
80
ENDCHAR
STARTCHAR 02EC
ENCODING 748
SWIDTH 308 0
DWIDTH 6 0
BBX 4 3 1 -4
BITMAP
90
50
60
ENDCHAR
STARTCHAR 02ED
ENCODING 749
SWIDTH 308 0
DWIDTH 6 0
BBX 5 2 1 11
BITMAP
F8
F8
ENDCHAR
STARTCHAR 02EE
ENCODING 750
SWIDTH 360 0
DWIDTH 7 0
BBX 6 5 1 8
BITMAP
D8
DC
44
48
88
ENDCHAR
STARTCHAR 02EF
ENCODING 751
SWIDTH 257 0
DWIDTH 5 0
BBX 3 2 1 -4
BITMAP
A0
60
ENDCHAR
STARTCHAR 02F0
ENCODING 752
SWIDTH 257 0
DWIDTH 5 0
BBX 4 3 1 -4
BITMAP
40
60
90
ENDCHAR
STARTCHAR 02F1
ENCODING 753
SWIDTH 205 0
DWIDTH 4 0
BBX 3 4 1 -5
BITMAP
20
C0
40
20
ENDCHAR
STARTCHAR 02F2
ENCODING 754
SWIDTH 205 0
DWIDTH 4 0
BBX 2 4 1 -5
BITMAP
80
40
40
80
ENDCHAR
STARTCHAR 02F3
ENCODING 755
SWIDTH 257 0
DWIDTH 5 0
BBX 3 3 1 -4
BITMAP
E0
A0
E0
ENDCHAR
STARTCHAR 02F4
ENCODING 756
SWIDTH 257 0
DWIDTH 5 0
BBX 3 3 1 5
BITMAP
C0
40
20
ENDCHAR
STARTCHAR 02F5
ENCODING 757
SWIDTH 411 0
DWIDTH 8 0
BBX 6 3 1 5
BITMAP
D8
48
24
ENDCHAR
STARTCHAR 02F6
ENCODING 758
SWIDTH 411 0
DWIDTH 8 0
BBX 6 3 1 5
BITMAP
6C
48
90
ENDCHAR
STARTCHAR 02F7
ENCODING 759
SWIDTH 411 0
DWIDTH 8 0
BBX 7 3 1 -4
BITMAP
62
BC
80
ENDCHAR
STARTCHAR 02F8
ENCODING 760
SWIDTH 154 0
DWIDTH 3 0
BBX 2 9 1 4
BITMAP
C0
C0
00
00
00
00
00
C0
C0
ENDCHAR
STARTCHAR 02F9
ENCODING 761
SWIDTH 308 0
DWIDTH 6 0
BBX 4 6 1 7
BITMAP
F0
F0
80
80
80
80
ENDCHAR
STARTCHAR 02FA
ENCODING 762
SWIDTH 308 0
DWIDTH 6 0
BBX 4 6 1 7
BITMAP
F0
F0
10
10
10
10
ENDCHAR
STARTCHAR 02FB
ENCODING 763
SWIDTH 308 0
DWIDTH 6 0
BBX 4 6 1 0
BITMAP
80
80
80
80
80
F0
ENDCHAR
STARTCHAR 02FC
ENCODING 764
SWIDTH 308 0
DWIDTH 6 0
BBX 4 6 1 0
BITMAP
10
10
10
10
10
F0
ENDCHAR
STARTCHAR 02FD
ENCODING 765
SWIDTH 308 0
DWIDTH 6 0
BBX 5 3 1 -3
BITMAP
88
88
F8
ENDCHAR
STARTCHAR 02FE
ENCODING 766
SWIDTH 308 0
DWIDTH 6 0
BBX 5 3 1 -3
BITMAP
80
80
F8
ENDCHAR
STARTCHAR 02FF
ENCODING 767
SWIDTH 462 0
DWIDTH 9 0
BBX 7 4 1 -4
BITMAP
20
40
FE
20
ENDCHAR
STARTCHAR 0300
ENCODING 768
SWIDTH 0 0
DWIDTH 0 0
BBX 3 3 -2 10
BITMAP
C0
40
20
ENDCHAR
STARTCHAR 0301
ENCODING 769
SWIDTH 0 0
DWIDTH 0 0
BBX 3 3 -1 10
BITMAP
60
40
80
ENDCHAR
STARTCHAR 0302
ENCODING 770
SWIDTH 0 0
DWIDTH 0 0
BBX 4 3 -2 10
BITMAP
60
60
90
ENDCHAR
STARTCHAR 0303
ENCODING 771
SWIDTH 0 0
DWIDTH 0 0
BBX 6 2 -3 10
BITMAP
E4
9C
ENDCHAR
STARTCHAR 0304
ENCODING 772
SWIDTH 0 0
DWIDTH 0 0
BBX 4 2 -2 10
BITMAP
F0
F0
ENDCHAR
STARTCHAR 0306
ENCODING 774
SWIDTH 0 0
DWIDTH 0 0
BBX 6 3 -3 10
BITMAP
84
48
78
ENDCHAR
STARTCHAR 0307
ENCODING 775
SWIDTH 0 0
DWIDTH 0 0
BBX 2 2 -1 10
BITMAP
C0
C0
ENDCHAR
STARTCHAR 0308
ENCODING 776
SWIDTH 0 0
DWIDTH 0 0
BBX 6 2 -3 10
BITMAP
CC
48
ENDCHAR
STARTCHAR 0309
ENCODING 777
SWIDTH 0 0
DWIDTH 0 0
BBX 4 4 -2 9
BITMAP
60
90
20
20
ENDCHAR
STARTCHAR 030A
ENCODING 778
SWIDTH 0 0
DWIDTH 0 0
BBX 4 3 -2 9
BITMAP
60
90
F0
ENDCHAR
STARTCHAR 030B
ENCODING 779
SWIDTH 0 0
DWIDTH 0 0
BBX 6 3 -2 10
BITMAP
6C
48
90
ENDCHAR
STARTCHAR 030C
ENCODING 780
SWIDTH 0 0
DWIDTH 0 0
BBX 4 2 -2 11
BITMAP
90
60
ENDCHAR
STARTCHAR 030D
ENCODING 781
SWIDTH 0 0
DWIDTH 0 0
BBX 1 4 0 10
BITMAP
80
80
80
80
ENDCHAR
STARTCHAR 030E
ENCODING 782
SWIDTH 0 0
DWIDTH 0 0
BBX 2 4 -1 10
BITMAP
C0
C0
C0
C0
ENDCHAR
STARTCHAR 030F
ENCODING 783
SWIDTH 0 0
DWIDTH 0 0
BBX 6 3 -4 10
BITMAP
D8
48
24
ENDCHAR
STARTCHAR 0310
ENCODING 784
SWIDTH 0 0
DWIDTH 0 0
BBX 6 3 -3 11
BITMAP
B4
48
78
ENDCHAR
STARTCHAR 0311
ENCODING 785
SWIDTH 0 0
DWIDTH 0 0
BBX 6 2 -3 11
BITMAP
78
CC
ENDCHAR
STARTCHAR 0312
ENCODING 786
SWIDTH 0 0
DWIDTH 0 0
BBX 2 5 -1 10
BITMAP
80
80
80
C0
40
ENDCHAR
STARTCHAR 0313
ENCODING 787
SWIDTH 0 0
DWIDTH 0 0
BBX 2 4 -1 9
BITMAP
C0
40
40
80
ENDCHAR
STARTCHAR 0314
ENCODING 788
SWIDTH 0 0
DWIDTH 0 0
BBX 2 4 -1 9
BITMAP
C0
80
80
40
ENDCHAR
STARTCHAR 0315
ENCODING 789
SWIDTH 0 0
DWIDTH 0 0
BBX 2 5 2 8
BITMAP
C0
C0
40
40
80
ENDCHAR
STARTCHAR 0316
ENCODING 790
SWIDTH 0 0
DWIDTH 0 0
BBX 3 3 -2 -4
BITMAP
C0
60
20
ENDCHAR
STARTCHAR 0317
ENCODING 791
SWIDTH 0 0
DWIDTH 0 0
BBX 3 3 -1 -4
BITMAP
60
C0
80
ENDCHAR
STARTCHAR 0318
ENCODING 792
SWIDTH 0 0
DWIDTH 0 0
BBX 2 4 -2 -6
BITMAP
40
40
C0
40
ENDCHAR
STARTCHAR 0319
ENCODING 793
SWIDTH 0 0
DWIDTH 0 0
BBX 2 4 0 -6
BITMAP
80
80
C0
80
ENDCHAR
STARTCHAR 031A
ENCODING 794
SWIDTH 0 0
DWIDTH 0 0
BBX 4 3 -2 10
BITMAP
F0
10
10
ENDCHAR
STARTCHAR 031B
ENCODING 795
SWIDTH 0 0
DWIDTH 0 0
BBX 3 5 -1 5
BITMAP
C0
E0
20
40
80
ENDCHAR
STARTCHAR 031C
ENCODING 796
SWIDTH 0 0
DWIDTH 0 0
BBX 2 4 -1 -4
BITMAP
40
80
80
40
ENDCHAR
STARTCHAR 031D
ENCODING 797
SWIDTH 0 0
DWIDTH 0 0
BBX 4 3 -2 -4
BITMAP
40
40
F0
ENDCHAR
STARTCHAR 031E
ENCODING 798
SWIDTH 0 0
DWIDTH 0 0
BBX 4 2 -2 -6
BITMAP
F0
40
ENDCHAR
STARTCHAR 031F
ENCODING 799
SWIDTH 0 0
DWIDTH 0 0
BBX 4 4 -2 -6
BITMAP
40
40
F0
40
ENDCHAR
STARTCHAR 0320
ENCODING 800
SWIDTH 0 0
DWIDTH 0 0
BBX 4 1 -2 -4
BITMAP
F0
ENDCHAR
STARTCHAR 0321
ENCODING 801
SWIDTH 0 0
DWIDTH 0 0
BBX 4 7 -5 -4
BITMAP
10
10
10
10
10
B0
E0
ENDCHAR
STARTCHAR 0322
ENCODING 802
SWIDTH 0 0
DWIDTH 0 0
BBX 4 7 -2 -4
BITMAP
80
80
80
80
80
C0
70
ENDCHAR
STARTCHAR 0323
ENCODING 803
SWIDTH 0 0
DWIDTH 0 0
BBX 2 2 -1 -3
BITMAP
C0
C0
ENDCHAR
STARTCHAR 0324
ENCODING 804
SWIDTH 0 0
DWIDTH 0 0
BBX 6 2 -3 -3
BITMAP
48
CC
ENDCHAR
STARTCHAR 0325
ENCODING 805
SWIDTH 0 0
DWIDTH 0 0
BBX 4 3 -2 -4
BITMAP
60
90
60
ENDCHAR
STARTCHAR 0326
ENCODING 806
SWIDTH 0 0
DWIDTH 0 0
BBX 2 5 -1 -6
BITMAP
C0
C0
40
40
80
ENDCHAR
STARTCHAR 0327
ENCODING 807
SWIDTH 0 0
DWIDTH 0 0
BBX 4 4 -2 -4
BITMAP
40
30
10
E0
ENDCHAR
STARTCHAR 0328
ENCODING 808
SWIDTH 0 0
DWIDTH 0 0
BBX 4 4 -1 -3
BITMAP
80
C0
60
30
ENDCHAR
STARTCHAR 0329
ENCODING 809
SWIDTH 0 0
DWIDTH 0 0
BBX 1 4 0 -6
BITMAP
80
80
80
80
ENDCHAR
STARTCHAR 032A
ENCODING 810
SWIDTH 0 0
DWIDTH 0 0
BBX 4 2 -2 -3
BITMAP
F0
90
ENDCHAR
STARTCHAR 032B
ENCODING 811
SWIDTH 0 0
DWIDTH 0 0
BBX 6 3 -3 -4
BITMAP
84
A4
78
ENDCHAR
STARTCHAR 032C
ENCODING 812
SWIDTH 0 0
DWIDTH 0 0
BBX 4 3 -2 -4
BITMAP
90
F0
60
ENDCHAR
STARTCHAR 032D
ENCODING 813
SWIDTH 0 0
DWIDTH 0 0
BBX 4 2 -2 -4
BITMAP
60
90
ENDCHAR
STARTCHAR 032E
ENCODING 814
SWIDTH 0 0
DWIDTH 0 0
BBX 6 3 -3 -4
BITMAP
CC
78
30
ENDCHAR
STARTCHAR 032F
ENCODING 815
SWIDTH 0 0
DWIDTH 0 0
BBX 6 3 -3 -4
BITMAP
78
48
84
ENDCHAR
STARTCHAR 0330
ENCODING 816
SWIDTH 0 0
DWIDTH 0 0
BBX 6 3 -3 -4
BITMAP
C4
BC
88
ENDCHAR
STARTCHAR 0331
ENCODING 817
SWIDTH 0 0
DWIDTH 0 0
BBX 4 2 -2 -3
BITMAP
F0
F0
ENDCHAR
STARTCHAR 0334
ENCODING 820
SWIDTH 0 0
DWIDTH 0 0
BBX 6 3 -3 3
BITMAP
44
F4
9C
ENDCHAR
STARTCHAR 0335
ENCODING 821
SWIDTH 0 0
DWIDTH 0 0
BBX 4 1 -2 4
BITMAP
F0
ENDCHAR
STARTCHAR 0336
ENCODING 822
SWIDTH 0 0
DWIDTH 0 0
BBX 14 1 -7 4
BITMAP
FFFC
ENDCHAR
STARTCHAR 0337
ENCODING 823
SWIDTH 0 0
DWIDTH 0 0
BBX 8 11 -4 -1
BITMAP
01
03
06
04
0C
18
10
30
60
C0
80
ENDCHAR
STARTCHAR 0338
ENCODING 824
SWIDTH 0 0
DWIDTH 0 0
BBX 10 13 -5 -3
BITMAP
00C0
0080
0180
0300
0200
0600
0C00
0800
1800
3000
6000
4000
C000
ENDCHAR
STARTCHAR 0339
ENCODING 825
SWIDTH 0 0
DWIDTH 0 0
BBX 2 4 -1 -4
BITMAP
80
40
40
80
ENDCHAR
STARTCHAR 033A
ENCODING 826
SWIDTH 0 0
DWIDTH 0 0
BBX 4 2 -2 -3
BITMAP
90
F0
ENDCHAR
STARTCHAR 033B
ENCODING 827
SWIDTH 0 0
DWIDTH 0 0
BBX 4 3 -2 -4
BITMAP
F0
90
F0
ENDCHAR
STARTCHAR 033C
ENCODING 828
SWIDTH 0 0
DWIDTH 0 0
BBX 6 2 -3 -4
BITMAP
CC
B4
ENDCHAR
STARTCHAR 033D
ENCODING 829
SWIDTH 0 0
DWIDTH 0 0
BBX 4 4 -2 9
BITMAP
90
60
60
90
ENDCHAR
STARTCHAR 033E
ENCODING 830
SWIDTH 0 0
DWIDTH 0 0
BBX 2 6 -1 10
BITMAP
C0
80
80
40
40
C0
ENDCHAR
STARTCHAR 0340
ENCODING 832
SWIDTH 0 0
DWIDTH 0 0
BBX 3 3 -2 10
BITMAP
C0
40
20
ENDCHAR
STARTCHAR 0341
ENCODING 833
SWIDTH 0 0
DWIDTH 0 0
BBX 3 3 -1 10
BITMAP
60
40
80
ENDCHAR
STARTCHAR 0342
ENCODING 834
SWIDTH 0 0
DWIDTH 0 0
BBX 6 2 -3 10
BITMAP
E4
9C
ENDCHAR
STARTCHAR 0343
ENCODING 835
SWIDTH 0 0
DWIDTH 0 0
BBX 2 4 -1 9
BITMAP
C0
40
40
80
ENDCHAR
STARTCHAR 0344
ENCODING 836
SWIDTH 0 0
DWIDTH 0 0
BBX 6 4 -3 10
BITMAP
08
10
CC
C8
ENDCHAR
STARTCHAR 0345
ENCODING 837
SWIDTH 0 0
DWIDTH 0 0
BBX 3 4 -1 -5
BITMAP
C0
C0
E0
60
ENDCHAR
STARTCHAR 0346
ENCODING 838
SWIDTH 0 0
DWIDTH 0 0
BBX 4 2 -2 10
BITMAP
F0
90
ENDCHAR
STARTCHAR 0347
ENCODING 839
SWIDTH 0 0
DWIDTH 0 0
BBX 4 3 -2 -5
BITMAP
F0
00
F0
ENDCHAR
STARTCHAR 0348
ENCODING 840
SWIDTH 0 0
DWIDTH 0 0
BBX 2 5 -1 -6
BITMAP
C0
C0
C0
C0
C0
ENDCHAR
STARTCHAR 0349
ENCODING 841
SWIDTH 0 0
DWIDTH 0 0
BBX 4 4 -2 -5
BITMAP
F0
10
10
10
ENDCHAR
STARTCHAR 034A
ENCODING 842
SWIDTH 0 0
DWIDTH 0 0
BBX 6 4 -3 10
BITMAP
10
F4
BC
20
ENDCHAR
STARTCHAR 034B
ENCODING 843
SWIDTH 0 0
DWIDTH 0 0
BBX 6 6 -3 9
BITMAP
30
30
E4
9C
30
30
ENDCHAR
STARTCHAR 034C
ENCODING 844
SWIDTH 0 0
DWIDTH 0 0
BBX 6 5 -3 9
BITMAP
E4
9C
C4
BC
88
ENDCHAR
STARTCHAR 034D
ENCODING 845
SWIDTH 0 0
DWIDTH 0 0
BBX 6 4 -3 -5
BITMAP
48
FC
84
48
ENDCHAR
STARTCHAR 034E
ENCODING 846
SWIDTH 0 0
DWIDTH 0 0
BBX 4 3 -2 -5
BITMAP
40
60
D0
ENDCHAR
STARTCHAR 034F
ENCODING 847
SWIDTH 0 0
DWIDTH 0 0
BBX 0 0 0 0
BITMAP
ENDCHAR
STARTCHAR 0350
ENCODING 848
SWIDTH 0 0
DWIDTH 0 0
BBX 2 3 -1 10
BITMAP
80
C0
80
ENDCHAR
STARTCHAR 0351
ENCODING 849
SWIDTH 0 0
DWIDTH 0 0
BBX 2 4 -1 9
BITMAP
40
80
80
40
ENDCHAR
STARTCHAR 0352
ENCODING 850
SWIDTH 0 0
DWIDTH 0 0
BBX 6 4 -3 10
BITMAP
30
78
FC
30
ENDCHAR
STARTCHAR 0353
ENCODING 851
SWIDTH 0 0
DWIDTH 0 0
BBX 4 4 -2 -5
BITMAP
90
F0
60
90
ENDCHAR
STARTCHAR 0354
ENCODING 852
SWIDTH 0 0
DWIDTH 0 0
BBX 2 3 -1 -5
BITMAP
40
C0
40
ENDCHAR
STARTCHAR 0355
ENCODING 853
SWIDTH 0 0
DWIDTH 0 0
BBX 2 3 -1 -5
BITMAP
80
C0
80
ENDCHAR
STARTCHAR 0356
ENCODING 854
SWIDTH 0 0
DWIDTH 0 0
BBX 7 4 -3 -5
BITMAP
88
4C
72
80
ENDCHAR
STARTCHAR 0357
ENCODING 855
SWIDTH 0 0
DWIDTH 0 0
BBX 2 4 -1 9
BITMAP
80
40
40
80
ENDCHAR
STARTCHAR 0358
ENCODING 856
SWIDTH 0 0
DWIDTH 0 0
BBX 2 2 1 10
BITMAP
C0
40
ENDCHAR
STARTCHAR 0359
ENCODING 857
SWIDTH 0 0
DWIDTH 0 0
BBX 4 5 -2 -6
BITMAP
60
D0
60
D0
60
ENDCHAR
STARTCHAR 035A
ENCODING 858
SWIDTH 0 0
DWIDTH 0 0
BBX 4 3 -2 -4
BITMAP
F0
D0
F0
ENDCHAR
STARTCHAR 035B
ENCODING 859
SWIDTH 0 0
DWIDTH 0 0
BBX 4 4 -2 10
BITMAP
20
70
A0
40
ENDCHAR
STARTCHAR 035C
ENCODING 860
SWIDTH 0 0
DWIDTH 0 0
BBX 16 3 -8 -7
BITMAP
8001
F81F
1FF8
ENDCHAR
STARTCHAR 035D
ENCODING 861
SWIDTH 0 0
DWIDTH 0 0
BBX 16 2 -8 14
BITMAP
F00F
3FFC
ENDCHAR
STARTCHAR 035E
ENCODING 862
SWIDTH 0 0
DWIDTH 0 0
BBX 16 1 -8 14
BITMAP
FFFF
ENDCHAR
STARTCHAR 035F
ENCODING 863
SWIDTH 0 0
DWIDTH 0 0
BBX 16 1 -8 -6
BITMAP
FFFF
ENDCHAR
STARTCHAR 0360
ENCODING 864
SWIDTH 0 0
DWIDTH 0 0
BBX 16 3 -8 13
BITMAP
7E00
CFC1
80FF
ENDCHAR
STARTCHAR 0361
ENCODING 865
SWIDTH 0 0
DWIDTH 0 0
BBX 16 3 -8 13
BITMAP
0FF0
7FFE
C003
ENDCHAR
STARTCHAR 0362
ENCODING 866
SWIDTH 0 0
DWIDTH 0 0
BBX 16 3 -8 -7
BITMAP
0006
FFFF
0006
ENDCHAR
STARTCHAR 0363
ENCODING 867
SWIDTH 0 0
DWIDTH 0 0
BBX 4 5 -2 9
BITMAP
60
10
F0
F0
20
ENDCHAR
STARTCHAR 0364
ENCODING 868
SWIDTH 0 0
DWIDTH 0 0
BBX 4 4 -2 9
BITMAP
70
F0
80
F0
ENDCHAR
STARTCHAR 0365
ENCODING 869
SWIDTH 0 0
DWIDTH 0 0
BBX 2 6 -1 10
BITMAP
C0
00
80
80
80
80
ENDCHAR
STARTCHAR 0366
ENCODING 870
SWIDTH 0 0
DWIDTH 0 0
BBX 4 4 -2 9
BITMAP
70
90
90
F0
ENDCHAR
STARTCHAR 0367
ENCODING 871
SWIDTH 0 0
DWIDTH 0 0
BBX 4 5 -2 9
BITMAP
90
90
90
F0
40
ENDCHAR
STARTCHAR 0368
ENCODING 872
SWIDTH 0 0
DWIDTH 0 0
BBX 4 5 -2 9
BITMAP
70
80
80
F0
20
ENDCHAR
STARTCHAR 0369
ENCODING 873
SWIDTH 0 0
DWIDTH 0 0
BBX 4 6 -2 9
BITMAP
10
10
70
90
90
F0
ENDCHAR
STARTCHAR 036A
ENCODING 874
SWIDTH 0 0
DWIDTH 0 0
BBX 4 6 -2 10
BITMAP
80
80
F0
90
90
90
ENDCHAR
STARTCHAR 036B
ENCODING 875
SWIDTH 0 0
DWIDTH 0 0
BBX 6 4 -3 10
BITMAP
F8
B4
B4
B4
ENDCHAR
STARTCHAR 036C
ENCODING 876
SWIDTH 0 0
DWIDTH 0 0
BBX 2 4 -1 10
BITMAP
C0
80
80
80
ENDCHAR
STARTCHAR 036D
ENCODING 877
SWIDTH 0 0
DWIDTH 0 0
BBX 2 5 -1 11
BITMAP
40
C0
40
40
40
ENDCHAR
STARTCHAR 036E
ENCODING 878
SWIDTH 0 0
DWIDTH 0 0
BBX 4 4 -2 10
BITMAP
90
D0
60
60
ENDCHAR
STARTCHAR 036F
ENCODING 879
SWIDTH 0 0
DWIDTH 0 0
BBX 4 4 -2 10
BITMAP
90
60
60
F0
ENDCHAR
STARTCHAR 0370
ENCODING 880
SWIDTH 411 0
DWIDTH 8 0
BBX 7 13 1 0
BITMAP
80
80
80
80
80
80
FE
80
80
80
80
80
80
ENDCHAR
STARTCHAR 0371
ENCODING 881
SWIDTH 411 0
DWIDTH 8 0
BBX 6 9 1 0
BITMAP
C0
E0
60
60
7C
60
60
60
60
ENDCHAR
STARTCHAR 0372
ENCODING 882
SWIDTH 617 0
DWIDTH 12 0
BBX 11 13 1 0
BITMAP
FFE0
FFE0
8460
8460
8460
8460
8460
0400
0400
0400
0400
0400
0400
ENDCHAR
STARTCHAR 0373
ENCODING 883
SWIDTH 514 0
DWIDTH 10 0
BBX 8 9 1 0
BITMAP
3C
7F
C9
C9
89
08
08
08
0C
ENDCHAR
STARTCHAR 0374
ENCODING 884
SWIDTH 205 0
DWIDTH 4 0
BBX 2 5 1 8
BITMAP
40
C0
C0
80
80
ENDCHAR
STARTCHAR 0375
ENCODING 885
SWIDTH 205 0
DWIDTH 4 0
BBX 3 6 1 -1
BITMAP
20
20
40
40
40
C0
ENDCHAR
STARTCHAR 0376
ENCODING 886
SWIDTH 565 0
DWIDTH 11 0
BBX 10 13 1 0
BITMAP
80C0
80C0
81C0
83C0
82C0
86C0
8CC0
98C0
98C0
B0C0
E0C0
C0C0
C0C0
ENDCHAR
STARTCHAR 0377
ENCODING 887
SWIDTH 514 0
DWIDTH 10 0
BBX 9 9 1 0
BITMAP
8200
8600
8E00
9A00
9A00
B200
E200
C200
C380
ENDCHAR
STARTCHAR 037A
ENCODING 890
SWIDTH 205 0
DWIDTH 4 0
BBX 3 4 1 -5
BITMAP
80
80
E0
E0
ENDCHAR
STARTCHAR 037B
ENCODING 891
SWIDTH 462 0
DWIDTH 9 0
BBX 7 9 1 0
BITMAP
38
7C
C6
06
02
02
86
CC
78
ENDCHAR
STARTCHAR 037C
ENCODING 892
SWIDTH 462 0
DWIDTH 9 0
BBX 7 9 1 0
BITMAP
38
7E
C6
C0
98
90
C2
66
3C
ENDCHAR
STARTCHAR 037D
ENCODING 893
SWIDTH 462 0
DWIDTH 9 0
BBX 7 9 1 0
BITMAP
38
7C
C6
06
32
12
86
CC
78
ENDCHAR
STARTCHAR 037E
ENCODING 894
SWIDTH 154 0
DWIDTH 3 0
BBX 2 12 1 -3
BITMAP
C0
C0
00
00
00
00
00
C0
C0
40
40
80
ENDCHAR
STARTCHAR 037F
ENCODING 895
SWIDTH 360 0
DWIDTH 7 0
BBX 5 13 1 0
BITMAP
08
08
08
08
08
08
08
08
08
08
08
D8
70
ENDCHAR
STARTCHAR 0384
ENCODING 900
SWIDTH 257 0
DWIDTH 5 0
BBX 3 3 1 10
BITMAP
60
40
80
ENDCHAR
STARTCHAR 0385
ENCODING 901
SWIDTH 360 0
DWIDTH 7 0
BBX 5 4 1 10
BITMAP
18
10
F8
D8
ENDCHAR
STARTCHAR 0386
ENCODING 902
SWIDTH 617 0
DWIDTH 12 0
BBX 10 13 1 0
BITMAP
6400
4C00
8E00
1A00
1A00
1300
3100
3F80
2180
6080
40C0
C040
C040
ENDCHAR
STARTCHAR 0387
ENCODING 903
SWIDTH 154 0
DWIDTH 3 0
BBX 2 2 1 5
BITMAP
C0
C0
ENDCHAR
STARTCHAR 0388
ENCODING 904
SWIDTH 720 0
DWIDTH 14 0
BBX 12 13 1 0
BITMAP
6FF0
4FF0
8C00
0C00
0C00
0C00
0FE0
0C00
0C00
0C00
0C00
0C00
0FF0
ENDCHAR
STARTCHAR 0389
ENCODING 905
SWIDTH 720 0
DWIDTH 14 0
BBX 12 13 1 0
BITMAP
6C10
4C10
8C10
0C10
0C10
0C10
0FF0
0C10
0C10
0C10
0C10
0C10
0C10
ENDCHAR
STARTCHAR 038A
ENCODING 906
SWIDTH 514 0
DWIDTH 10 0
BBX 8 13 1 0
BITMAP
6F
4F
82
02
02
02
02
02
02
02
02
02
0F
ENDCHAR
STARTCHAR 038C
ENCODING 908
SWIDTH 720 0
DWIDTH 14 0
BBX 12 13 1 0
BITMAP
6300
4FC0
9860
1030
3030
2010
2010
2010
2010
3030
1820
0CE0
0780
ENDCHAR
STARTCHAR 038E
ENCODING 910
SWIDTH 822 0
DWIDTH 16 0
BBX 14 13 1 0
BITMAP
6C04
4C0C
8618
0330
0120
01E0
00C0
00C0
00C0
00C0
00C0
00C0
00C0
ENDCHAR
STARTCHAR 038F
ENCODING 911
SWIDTH 720 0
DWIDTH 14 0
BBX 13 13 1 0
BITMAP
6380
4FE0
8820
1830
1010
3018
3018
3018
1018
1010
1830
0C60
3C78
ENDCHAR
STARTCHAR 0390
ENCODING 912
SWIDTH 205 0
DWIDTH 4 0
BBX 5 14 -1 0
BITMAP
18
10
F8
D8
00
20
20
20
20
20
20
20
20
38
ENDCHAR
STARTCHAR 0391
ENCODING 913
SWIDTH 617 0
DWIDTH 12 0
BBX 10 13 1 0
BITMAP
0400
0C00
0E00
1A00
1A00
1300
3100
3F80
2180
6080
40C0
C040
C040
ENDCHAR
STARTCHAR 0392
ENCODING 914
SWIDTH 462 0
DWIDTH 9 0
BBX 8 13 1 0
BITMAP
F0
FE
82
82
82
86
FE
82
83
83
83
86
FC
ENDCHAR
STARTCHAR 0393
ENCODING 915
SWIDTH 462 0
DWIDTH 9 0
BBX 8 13 1 0
BITMAP
FF
FF
80
80
80
80
80
80
80
80
80
80
80
ENDCHAR
STARTCHAR 0394
ENCODING 916
SWIDTH 617 0
DWIDTH 12 0
BBX 10 13 1 0
BITMAP
0400
0C00
0E00
1A00
1A00
1300
3100
2180
2180
6080
40C0
C040
FFC0
ENDCHAR
STARTCHAR 0395
ENCODING 917
SWIDTH 462 0
DWIDTH 9 0
BBX 8 13 1 0
BITMAP
FF
FF
80
80
80
80
FE
80
80
80
80
80
FF
ENDCHAR
STARTCHAR 0396
ENCODING 918
SWIDTH 514 0
DWIDTH 10 0
BBX 8 13 1 0
BITMAP
FF
FF
03
02
06
0C
08
18
30
60
40
C0
FF
ENDCHAR
STARTCHAR 0397
ENCODING 919
SWIDTH 462 0
DWIDTH 9 0
BBX 8 13 1 0
BITMAP
83
83
83
83
83
83
FF
83
83
83
83
83
83
ENDCHAR
STARTCHAR 0398
ENCODING 920
SWIDTH 617 0
DWIDTH 12 0
BBX 10 13 1 0
BITMAP
0E00
3F00
6180
40C0
C040
8040
9F40
8040
C040
C0C0
6080
3380
1F00
ENDCHAR
STARTCHAR 0399
ENCODING 921
SWIDTH 308 0
DWIDTH 6 0
BBX 4 13 1 0
BITMAP
F0
F0
60
60
60
60
60
60
60
60
60
60
F0
ENDCHAR
STARTCHAR 039A
ENCODING 922
SWIDTH 514 0
DWIDTH 10 0
BBX 8 13 1 0
BITMAP
83
86
8C
88
98
B0
B0
F8
C8
8C
86
83
83
ENDCHAR
STARTCHAR 039B
ENCODING 923
SWIDTH 617 0
DWIDTH 12 0
BBX 10 13 1 0
BITMAP
0400
0C00
0E00
1A00
1A00
1300
3100
2180
2180
6080
40C0
C040
C040
ENDCHAR
STARTCHAR 039C
ENCODING 924
SWIDTH 617 0
DWIDTH 12 0
BBX 11 13 1 0
BITMAP
8060
C060
C0E0
E0E0
E0E0
A1E0
B160
9160
9360
9A60
8E60
8E60
8C60
ENDCHAR
STARTCHAR 039D
ENCODING 925
SWIDTH 565 0
DWIDTH 11 0
BBX 10 13 1 0
BITMAP
80C0
C0C0
E0C0
B0C0
B0C0
98C0
8CC0
84C0
86C0
83C0
81C0
81C0
80C0
ENDCHAR
STARTCHAR 039E
ENCODING 926
SWIDTH 462 0
DWIDTH 9 0
BBX 8 13 1 0
BITMAP
FF
FF
00
00
00
00
7E
00
00
00
00
00
FF
ENDCHAR
STARTCHAR 039F
ENCODING 927
SWIDTH 617 0
DWIDTH 12 0
BBX 10 13 1 0
BITMAP
0E00
3F00
6180
40C0
C040
8040
8040
8040
C040
C0C0
6080
3380
1F00
ENDCHAR
STARTCHAR 03A0
ENCODING 928
SWIDTH 462 0
DWIDTH 9 0
BBX 8 13 1 0
BITMAP
FF
FF
83
83
83
83
83
83
83
83
83
83
83
ENDCHAR
STARTCHAR 03A1
ENCODING 929
SWIDTH 462 0
DWIDTH 9 0
BBX 7 13 1 0
BITMAP
F0
FC
86
82
82
86
FC
F8
80
80
80
80
80
ENDCHAR
STARTCHAR 03A3
ENCODING 931
SWIDTH 462 0
DWIDTH 9 0
BBX 8 13 1 0
BITMAP
FF
FF
C0
60
30
30
18
18
30
60
40
C0
FF
ENDCHAR
STARTCHAR 03A4
ENCODING 932
SWIDTH 462 0
DWIDTH 9 0
BBX 8 13 1 0
BITMAP
FF
FF
18
18
18
18
18
18
18
18
18
18
18
ENDCHAR
STARTCHAR 03A5
ENCODING 933
SWIDTH 617 0
DWIDTH 12 0
BBX 10 13 1 0
BITMAP
C040
40C0
6180
3100
1B00
1E00
0C00
0C00
0C00
0C00
0C00
0C00
0C00
ENDCHAR
STARTCHAR 03A6
ENCODING 934
SWIDTH 565 0
DWIDTH 11 0
BBX 9 13 1 0
BITMAP
1E00
1E00
0800
3E00
7B80
C880
8880
C880
C980
7F00
0800
0800
1E00
ENDCHAR
STARTCHAR 03A7
ENCODING 935
SWIDTH 617 0
DWIDTH 12 0
BBX 10 13 1 0
BITMAP
C040
40C0
6180
3100
1B00
1E00
0C00
0E00
1A00
3300
2180
6080
C0C0
ENDCHAR
STARTCHAR 03A8
ENCODING 936
SWIDTH 565 0
DWIDTH 11 0
BBX 9 13 1 0
BITMAP
8880
8880
8880
8880
C880
6980
3F00
0800
0800
0800
0800
0800
0800
ENDCHAR
STARTCHAR 03A9
ENCODING 937
SWIDTH 617 0
DWIDTH 12 0
BBX 10 13 1 0
BITMAP
0E00
3F00
6180
40C0
C040
8040
8040
8040
C040
C0C0
6080
3380
F3C0
ENDCHAR
STARTCHAR 03AA
ENCODING 938
SWIDTH 308 0
DWIDTH 6 0
BBX 6 16 0 0
BITMAP
C8
CC
00
78
78
30
30
30
30
30
30
30
30
30
30
78
ENDCHAR
STARTCHAR 03AB
ENCODING 939
SWIDTH 617 0
DWIDTH 12 0
BBX 10 16 1 0
BITMAP
1300
1B00
0000
C040
40C0
6180
3100
1B00
1E00
0C00
0C00
0C00
0C00
0C00
0C00
0C00
ENDCHAR
STARTCHAR 03AC
ENCODING 940
SWIDTH 565 0
DWIDTH 11 0
BBX 9 13 1 0
BITMAP
0600
0400
0800
0000
3880
7F80
C780
C300
8300
8300
C380
6780
3C80
ENDCHAR
STARTCHAR 03AD
ENCODING 941
SWIDTH 360 0
DWIDTH 7 0
BBX 6 13 1 0
BITMAP
18
10
20
00
70
78
C8
60
60
C0
8C
C8
78
ENDCHAR
STARTCHAR 03AE
ENCODING 942
SWIDTH 462 0
DWIDTH 9 0
BBX 8 17 1 -4
BITMAP
0C
08
10
00
BC
FE
C2
C2
83
83
83
83
83
03
03
03
03
ENDCHAR
STARTCHAR 03AF
ENCODING 943
SWIDTH 205 0
DWIDTH 4 0
BBX 3 13 1 0
BITMAP
60
C0
80
00
80
80
80
80
80
80
80
80
E0
ENDCHAR
STARTCHAR 03B0
ENCODING 944
SWIDTH 462 0
DWIDTH 9 0
BBX 8 14 1 0
BITMAP
0C
08
7C
6C
00
83
83
83
83
83
83
C2
66
3C
ENDCHAR
STARTCHAR 03B1
ENCODING 945
SWIDTH 565 0
DWIDTH 11 0
BBX 9 9 1 0
BITMAP
3880
7F80
C780
C300
8300
8300
C380
6780
3C80
ENDCHAR
STARTCHAR 03B2
ENCODING 946
SWIDTH 462 0
DWIDTH 9 0
BBX 7 17 1 -4
BITMAP
38
7C
C4
86
86
8C
9C
86
86
82
86
CC
F8
80
80
80
80
ENDCHAR
STARTCHAR 03B3
ENCODING 947
SWIDTH 514 0
DWIDTH 10 0
BBX 8 13 1 -4
BITMAP
81
C3
62
22
26
34
1C
1C
18
1C
1C
1C
18
ENDCHAR
STARTCHAR 03B4
ENCODING 948
SWIDTH 462 0
DWIDTH 9 0
BBX 8 13 1 0
BITMAP
0C
3E
32
30
38
7C
C6
C2
83
82
C2
66
3C
ENDCHAR
STARTCHAR 03B5
ENCODING 949
SWIDTH 360 0
DWIDTH 7 0
BBX 6 9 1 0
BITMAP
70
78
C8
60
60
C0
8C
C8
78
ENDCHAR
STARTCHAR 03B6
ENCODING 950
SWIDTH 411 0
DWIDTH 8 0
BBX 6 17 1 -4
BITMAP
FC
FC
60
C0
C0
80
80
80
C0
C0
40
60
3C
04
04
1C
18
ENDCHAR
STARTCHAR 03B7
ENCODING 951
SWIDTH 462 0
DWIDTH 9 0
BBX 8 13 1 -4
BITMAP
BC
FE
C2
C2
83
83
83
83
83
03
03
03
03
ENDCHAR
STARTCHAR 03B8
ENCODING 952
SWIDTH 462 0
DWIDTH 9 0
BBX 8 13 1 0
BITMAP
18
3C
46
C2
C2
82
FF
83
C2
C2
46
64
38
ENDCHAR
STARTCHAR 03B9
ENCODING 953
SWIDTH 205 0
DWIDTH 4 0
BBX 3 9 1 0
BITMAP
80
80
80
80
80
80
80
80
E0
ENDCHAR
STARTCHAR 03BA
ENCODING 954
SWIDTH 411 0
DWIDTH 8 0
BBX 6 9 1 0
BITMAP
88
98
B0
A0
E0
F0
98
8C
84
ENDCHAR
STARTCHAR 03BB
ENCODING 955
SWIDTH 462 0
DWIDTH 9 0
BBX 8 13 1 0
BITMAP
C0
70
30
10
18
18
38
2C
24
66
46
C2
C3
ENDCHAR
STARTCHAR 03BC
ENCODING 956
SWIDTH 462 0
DWIDTH 9 0
BBX 8 13 1 -4
BITMAP
83
83
83
83
83
83
C3
E7
BF
80
80
80
80
ENDCHAR
STARTCHAR 03BD
ENCODING 957
SWIDTH 411 0
DWIDTH 8 0
BBX 7 9 1 0
BITMAP
DC
CC
46
66
64
2C
3C
18
18
ENDCHAR
STARTCHAR 03BE
ENCODING 958
SWIDTH 411 0
DWIDTH 8 0
BBX 6 17 1 -4
BITMAP
FC
FC
40
C0
40
60
78
C0
C0
80
C0
60
3C
04
04
1C
18
ENDCHAR
STARTCHAR 03BF
ENCODING 959
SWIDTH 462 0
DWIDTH 9 0
BBX 8 9 1 0
BITMAP
38
7E
C6
C2
83
82
C2
66
3C
ENDCHAR
STARTCHAR 03C0
ENCODING 960
SWIDTH 462 0
DWIDTH 9 0
BBX 8 9 1 0
BITMAP
FF
FF
66
66
66
66
66
46
86
ENDCHAR
STARTCHAR 03C1
ENCODING 961
SWIDTH 462 0
DWIDTH 9 0
BBX 8 13 1 -4
BITMAP
38
7E
C6
C2
83
82
C2
E6
BC
80
80
80
80
ENDCHAR
STARTCHAR 03C2
ENCODING 962
SWIDTH 462 0
DWIDTH 9 0
BBX 7 13 1 -4
BITMAP
3E
7C
C0
C0
80
80
C0
60
3C
04
04
1C
18
ENDCHAR
STARTCHAR 03C3
ENCODING 963
SWIDTH 514 0
DWIDTH 10 0
BBX 9 9 1 0
BITMAP
3F80
7F00
C600
C200
8300
8200
C200
6600
3C00
ENDCHAR
STARTCHAR 03C4
ENCODING 964
SWIDTH 360 0
DWIDTH 7 0
BBX 6 9 1 0
BITMAP
FC
FC
30
30
30
30
30
30
38
ENDCHAR
STARTCHAR 03C5
ENCODING 965
SWIDTH 462 0
DWIDTH 9 0
BBX 8 9 1 0
BITMAP
83
83
83
83
83
83
C2
66
3C
ENDCHAR
STARTCHAR 03C6
ENCODING 966
SWIDTH 565 0
DWIDTH 11 0
BBX 9 13 1 -4
BITMAP
0300
6780
CC80
C880
8880
8880
C980
6B00
3E00
0800
0800
0800
0800
ENDCHAR
STARTCHAR 03C7
ENCODING 967
SWIDTH 360 0
DWIDTH 7 0
BBX 6 13 1 -4
BITMAP
CC
CC
48
78
70
30
30
30
30
78
48
CC
CC
ENDCHAR
STARTCHAR 03C8
ENCODING 968
SWIDTH 462 0
DWIDTH 9 0
BBX 8 13 1 -4
BITMAP
93
93
93
93
93
93
D2
76
3C
10
10
10
10
ENDCHAR
STARTCHAR 03C9
ENCODING 969
SWIDTH 565 0
DWIDTH 11 0
BBX 10 9 1 0
BITMAP
2100
6180
C0C0
80C0
80C0
8CC0
CCC0
5C80
7380
ENDCHAR
STARTCHAR 03CA
ENCODING 970
SWIDTH 205 0
DWIDTH 4 0
BBX 5 12 -1 0
BITMAP
D8
D8
00
20
20
20
20
20
20
20
20
38
ENDCHAR
STARTCHAR 03CB
ENCODING 971
SWIDTH 462 0
DWIDTH 9 0
BBX 8 12 1 0
BITMAP
6C
64
00
83
83
83
83
83
83
C2
66
3C
ENDCHAR
STARTCHAR 03CC
ENCODING 972
SWIDTH 462 0
DWIDTH 9 0
BBX 8 13 1 0
BITMAP
0C
08
10
00
38
7E
C6
C2
83
82
C2
66
3C
ENDCHAR
STARTCHAR 03CD
ENCODING 973
SWIDTH 462 0
DWIDTH 9 0
BBX 8 13 1 0
BITMAP
0C
08
10
00
83
83
83
83
83
83
C2
66
3C
ENDCHAR
STARTCHAR 03CE
ENCODING 974
SWIDTH 565 0
DWIDTH 11 0
BBX 10 13 1 0
BITMAP
0600
0400
0800
0000
2100
6180
C0C0
80C0
80C0
8CC0
CCC0
5C80
7380
ENDCHAR
STARTCHAR 03CF
ENCODING 975
SWIDTH 514 0
DWIDTH 10 0
BBX 8 16 1 -3
BITMAP
83
86
8C
88
98
B0
B0
F8
C8
8C
86
83
83
07
0C
18
ENDCHAR
STARTCHAR 03D0
ENCODING 976
SWIDTH 462 0
DWIDTH 9 0
BBX 7 13 1 0
BITMAP
38
7C
C4
86
86
8C
9C
86
86
82
86
CC
78
ENDCHAR
STARTCHAR 03D1
ENCODING 977
SWIDTH 617 0
DWIDTH 12 0
BBX 10 13 1 0
BITMAP
0600
0F00
0900
0980
C8C0
ECC0
27C0
2080
2080
3180
3180
1B00
0E00
ENDCHAR
STARTCHAR 03D2
ENCODING 978
SWIDTH 514 0
DWIDTH 10 0
BBX 9 13 1 0
BITMAP
8080
E380
3600
1C00
1C00
0800
0800
0800
0800
0800
0800
0800
0800
ENDCHAR
STARTCHAR 03D3
ENCODING 979
SWIDTH 771 0
DWIDTH 15 0
BBX 13 13 1 0
BITMAP
6C08
4E38
8360
01C0
00C0
00C0
0080
0080
0080
0080
0080
0080
0080
ENDCHAR
STARTCHAR 03D4
ENCODING 980
SWIDTH 514 0
DWIDTH 10 0
BBX 9 16 1 0
BITMAP
3600
3600
0000
8080
E380
3600
1C00
1C00
0800
0800
0800
0800
0800
0800
0800
0800
ENDCHAR
STARTCHAR 03D5
ENCODING 981
SWIDTH 462 0
DWIDTH 9 0
BBX 8 17 1 -4
BITMAP
10
10
10
10
38
7E
D6
D2
93
92
D2
76
3C
10
10
10
10
ENDCHAR
STARTCHAR 03D6
ENCODING 982
SWIDTH 565 0
DWIDTH 11 0
BBX 10 9 1 0
BITMAP
FFC0
FFC0
C0C0
80C0
80C0
8CC0
CCC0
5C80
7380
ENDCHAR
STARTCHAR 03D7
ENCODING 983
SWIDTH 617 0
DWIDTH 12 0
BBX 11 13 1 -4
BITMAP
E0E0
71C0
1300
1700
1700
1F00
1B00
3100
E1E0
0060
0060
00E0
00C0
ENDCHAR
STARTCHAR 03D8
ENCODING 984
SWIDTH 617 0
DWIDTH 12 0
BBX 10 17 1 -4
BITMAP
0E00
3F00
6180
40C0
C040
8040
8040
8040
C040
C0C0
6080
3380
1F00
0C00
0C00
0C00
0C00
ENDCHAR
STARTCHAR 03D9
ENCODING 985
SWIDTH 462 0
DWIDTH 9 0
BBX 8 13 1 -4
BITMAP
38
7E
C6
C2
83
82
C2
66
3C
10
10
10
10
ENDCHAR
STARTCHAR 03DA
ENCODING 986
SWIDTH 565 0
DWIDTH 11 0
BBX 9 17 1 -4
BITMAP
0E00
3F00
6180
C080
C000
8000
8000
C000
6000
3000
1C00
0700
0180
6080
2180
3B00
1E00
ENDCHAR
STARTCHAR 03DB
ENCODING 987
SWIDTH 514 0
DWIDTH 10 0
BBX 7 13 1 -4
BITMAP
38
7E
C6
C0
80
80
C0
60
3C
04
04
1C
18
ENDCHAR
STARTCHAR 03DC
ENCODING 988
SWIDTH 462 0
DWIDTH 9 0
BBX 8 13 1 0
BITMAP
FF
FF
80
80
FC
FC
80
80
80
80
80
80
80
ENDCHAR
STARTCHAR 03DD
ENCODING 989
SWIDTH 360 0
DWIDTH 7 0
BBX 6 13 1 -4
BITMAP
FC
FC
80
80
FC
80
80
80
80
80
80
80
80
ENDCHAR
STARTCHAR 03DE
ENCODING 990
SWIDTH 462 0
DWIDTH 9 0
BBX 7 13 1 0
BITMAP
C0
E0
30
30
20
60
7E
04
04
0C
08
0C
06
ENDCHAR
STARTCHAR 03DF
ENCODING 991
SWIDTH 360 0
DWIDTH 7 0
BBX 6 13 1 0
BITMAP
30
30
20
60
60
40
FC
08
18
18
10
30
20
ENDCHAR
STARTCHAR 03E0
ENCODING 992
SWIDTH 565 0
DWIDTH 11 0
BBX 10 13 1 0
BITMAP
1C00
7E00
C300
8780
0C80
3980
63C0
C6C0
0C80
1880
7180
6300
0E00
ENDCHAR
STARTCHAR 03E1
ENCODING 993
SWIDTH 360 0
DWIDTH 7 0
BBX 6 13 1 -4
BITMAP
70
F8
08
1C
3C
EC
0C
1C
3C
2C
08
18
30
ENDCHAR
STARTCHAR 03E2
ENCODING 994
SWIDTH 771 0
DWIDTH 15 0
BBX 14 17 1 -4
BITMAP
830C
830C
830C
830C
830C
830C
830C
830C
830C
830C
C30C
679C
3CFC
000C
0F08
19F8
00F0
ENDCHAR
STARTCHAR 03E3
ENCODING 995
SWIDTH 565 0
DWIDTH 11 0
BBX 11 13 0 -4
BITMAP
4660
4660
4660
4660
4660
4660
4660
6660
39E0
0060
7860
CEC0
0780
ENDCHAR
STARTCHAR 03E4
ENCODING 996
SWIDTH 462 0
DWIDTH 9 0
BBX 7 13 1 0
BITMAP
12
72
C2
C2
82
82
C2
46
7E
02
02
02
02
ENDCHAR
STARTCHAR 03E5
ENCODING 997
SWIDTH 462 0
DWIDTH 9 0
BBX 7 13 1 -4
BITMAP
32
72
C2
C2
82
82
C2
66
3E
02
02
02
02
ENDCHAR
STARTCHAR 03E6
ENCODING 998
SWIDTH 462 0
DWIDTH 9 0
BBX 7 13 1 0
BITMAP
80
80
80
80
B8
FC
C6
82
82
02
06
0C
1C
ENDCHAR
STARTCHAR 03E7
ENCODING 999
SWIDTH 617 0
DWIDTH 12 0
BBX 10 13 1 0
BITMAP
0600
0F00
0900
0980
08C0
0CC0
07C0
0080
0080
3180
3180
7B00
CE00
ENDCHAR
STARTCHAR 03E8
ENCODING 1000
SWIDTH 462 0
DWIDTH 9 0
BBX 8 13 1 0
BITMAP
18
7C
46
C2
06
0C
38
60
C0
83
C2
E6
7C
ENDCHAR
STARTCHAR 03E9
ENCODING 1001
SWIDTH 360 0
DWIDTH 7 0
BBX 6 9 1 0
BITMAP
70
F8
C8
18
70
C0
8C
C8
78
ENDCHAR
STARTCHAR 03EA
ENCODING 1002
SWIDTH 720 0
DWIDTH 14 0
BBX 12 13 1 0
BITMAP
3040
10C0
1980
0D00
0700
0600
0F00
0980
1980
30C0
2060
6020
FFF0
ENDCHAR
STARTCHAR 03EB
ENCODING 1003
SWIDTH 514 0
DWIDTH 10 0
BBX 8 9 1 0
BITMAP
66
34
1C
18
3C
26
62
C3
FF
ENDCHAR
STARTCHAR 03EC
ENCODING 1004
SWIDTH 462 0
DWIDTH 9 0
BBX 8 14 1 0
BITMAP
01
03
7E
40
C0
B8
FE
C6
C2
83
82
C2
66
3C
ENDCHAR
STARTCHAR 03ED
ENCODING 1005
SWIDTH 462 0
DWIDTH 9 0
BBX 8 13 1 0
BITMAP
02
06
3C
60
F8
FE
C6
C2
83
82
C2
66
3C
ENDCHAR
STARTCHAR 03EE
ENCODING 1006
SWIDTH 462 0
DWIDTH 9 0
BBX 8 13 1 0
BITMAP
18
18
FF
FF
18
18
18
18
18
18
18
18
18
ENDCHAR
STARTCHAR 03EF
ENCODING 1007
SWIDTH 360 0
DWIDTH 7 0
BBX 6 13 1 0
BITMAP
30
30
30
30
FC
FC
30
30
30
30
30
30
30
ENDCHAR
STARTCHAR 03F0
ENCODING 1008
SWIDTH 617 0
DWIDTH 12 0
BBX 11 9 1 0
BITMAP
E0E0
71C0
1300
1700
1700
1F00
1B00
3100
E1E0
ENDCHAR
STARTCHAR 03F1
ENCODING 1009
SWIDTH 462 0
DWIDTH 9 0
BBX 8 13 1 -4
BITMAP
38
7E
C6
C2
83
82
C2
E6
BC
80
C0
6E
3C
ENDCHAR
STARTCHAR 03F2
ENCODING 1010
SWIDTH 462 0
DWIDTH 9 0
BBX 7 9 1 0
BITMAP
38
7E
C6
C0
80
80
C2
66
3C
ENDCHAR
STARTCHAR 03F3
ENCODING 1011
SWIDTH 154 0
DWIDTH 3 0
BBX 5 16 -2 -4
BITMAP
18
18
00
10
10
10
10
10
10
10
10
10
10
10
30
E0
ENDCHAR
STARTCHAR 03F4
ENCODING 1012
SWIDTH 617 0
DWIDTH 12 0
BBX 10 13 1 0
BITMAP
0E00
3F00
6180
40C0
C040
8040
FFC0
8040
C040
C0C0
6080
3380
1F00
ENDCHAR
STARTCHAR 03F5
ENCODING 1013
SWIDTH 462 0
DWIDTH 9 0
BBX 7 9 1 0
BITMAP
38
7E
C6
C0
F8
80
C2
66
3C
ENDCHAR
STARTCHAR 03F6
ENCODING 1014
SWIDTH 462 0
DWIDTH 9 0
BBX 7 9 1 0
BITMAP
38
7C
C6
02
3E
02
86
CC
78
ENDCHAR
STARTCHAR 03F7
ENCODING 1015
SWIDTH 462 0
DWIDTH 9 0
BBX 7 13 1 0
BITMAP
80
80
80
F0
FE
82
82
82
86
FC
80
80
80
ENDCHAR
STARTCHAR 03F8
ENCODING 1016
SWIDTH 462 0
DWIDTH 9 0
BBX 8 17 1 -4
BITMAP
80
80
80
80
B8
FE
C6
C2
83
82
C2
E6
BC
80
80
80
80
ENDCHAR
STARTCHAR 03F9
ENCODING 1017
SWIDTH 565 0
DWIDTH 11 0
BBX 9 13 1 0
BITMAP
0E00
3F00
6180
4080
C000
8000
8000
8000
C000
C000
6080
3380
1F00
ENDCHAR
STARTCHAR 03FA
ENCODING 1018
SWIDTH 617 0
DWIDTH 12 0
BBX 10 13 1 0
BITMAP
C040
C0C0
E1C0
B140
9B40
9E40
8C40
8440
8040
8040
8040
8040
8040
ENDCHAR
STARTCHAR 03FB
ENCODING 1019
SWIDTH 462 0
DWIDTH 9 0
BBX 8 13 1 -4
BITMAP
C3
C3
C7
E7
E7
AF
BF
9B
9B
80
80
80
80
ENDCHAR
STARTCHAR 03FC
ENCODING 1020
SWIDTH 462 0
DWIDTH 9 0
BBX 9 13 0 -4
BITMAP
1C00
3F00
6300
6100
4180
4100
6100
7300
5E00
4000
F000
4000
4000
ENDCHAR
STARTCHAR 03FD
ENCODING 1021
SWIDTH 565 0
DWIDTH 11 0
BBX 10 13 1 0
BITMAP
1C00
7E00
C300
8180
0080
0080
00C0
00C0
0080
0080
C180
6300
3E00
ENDCHAR
STARTCHAR 03FE
ENCODING 1022
SWIDTH 565 0
DWIDTH 11 0
BBX 9 13 1 0
BITMAP
0E00
3F00
6180
4080
C000
8000
8C00
8C00
C000
C000
6080
3380
1F00
ENDCHAR
STARTCHAR 03FF
ENCODING 1023
SWIDTH 565 0
DWIDTH 11 0
BBX 10 13 1 0
BITMAP
1C00
7E00
C300
8180
0080
0080
18C0
08C0
0080
0080
C180
6300
3E00
ENDCHAR
STARTCHAR 0400
ENCODING 1024
SWIDTH 462 0
DWIDTH 9 0
BBX 8 16 1 0
BITMAP
30
08
00
FF
FF
80
80
80
80
FE
80
80
80
80
80
FF
ENDCHAR
STARTCHAR 0401
ENCODING 1025
SWIDTH 462 0
DWIDTH 9 0
BBX 8 16 1 0
BITMAP
64
66
00
FF
FF
80
80
80
80
FE
80
80
80
80
80
FF
ENDCHAR
STARTCHAR 0402
ENCODING 1026
SWIDTH 617 0
DWIDTH 12 0
BBX 11 13 1 0
BITMAP
FF00
FF00
1800
1800
1F00
1FC0
1840
1840
1860
1860
1840
18C0
1980
ENDCHAR
STARTCHAR 0403
ENCODING 1027
SWIDTH 462 0
DWIDTH 9 0
BBX 8 16 1 0
BITMAP
0C
10
00
FF
FF
80
80
80
80
80
80
80
80
80
80
80
ENDCHAR
STARTCHAR 0404
ENCODING 1028
SWIDTH 565 0
DWIDTH 11 0
BBX 9 13 1 0
BITMAP
0E00
3F00
6180
4080
C000
8000
FE00
8000
C000
C000
6080
3380
1F00
ENDCHAR
STARTCHAR 0405
ENCODING 1029
SWIDTH 462 0
DWIDTH 9 0
BBX 8 13 1 0
BITMAP
18
7C
46
C2
40
60
38
0E
02
83
C2
66
3C
ENDCHAR
STARTCHAR 0406
ENCODING 1030
SWIDTH 308 0
DWIDTH 6 0
BBX 4 13 1 0
BITMAP
F0
F0
60
60
60
60
60
60
60
60
60
60
F0
ENDCHAR
STARTCHAR 0407
ENCODING 1031
SWIDTH 308 0
DWIDTH 6 0
BBX 6 16 0 0
BITMAP
C8
CC
00
78
78
30
30
30
30
30
30
30
30
30
30
78
ENDCHAR
STARTCHAR 0408
ENCODING 1032
SWIDTH 360 0
DWIDTH 7 0
BBX 5 13 1 0
BITMAP
08
08
08
08
08
08
08
08
08
08
08
D8
70
ENDCHAR
STARTCHAR 0409
ENCODING 1033
SWIDTH 822 0
DWIDTH 16 0
BBX 15 13 1 0
BITMAP
7F00
7F00
6100
6100
6100
6100
61FC
6106
6106
6102
6106
410C
81F8
ENDCHAR
STARTCHAR 040A
ENCODING 1034
SWIDTH 822 0
DWIDTH 16 0
BBX 14 13 1 0
BITMAP
8300
8300
8300
8300
8300
8300
FFF8
830C
8304
8304
8304
831C
83F8
ENDCHAR
STARTCHAR 040B
ENCODING 1035
SWIDTH 617 0
DWIDTH 12 0
BBX 11 13 1 0
BITMAP
FF00
FF00
1800
1800
1B80
1FC0
1840
1860
1860
1860
1860
1860
1860
ENDCHAR
STARTCHAR 040C
ENCODING 1036
SWIDTH 514 0
DWIDTH 10 0
BBX 8 16 1 0
BITMAP
0C
08
10
83
87
8C
88
88
98
F0
F8
88
8C
86
82
83
ENDCHAR
STARTCHAR 040D
ENCODING 1037
SWIDTH 462 0
DWIDTH 9 0
BBX 8 16 1 0
BITMAP
30
08
00
83
83
83
83
87
8F
9B
B3
E3
C3
83
83
83
ENDCHAR
STARTCHAR 040E
ENCODING 1038
SWIDTH 514 0
DWIDTH 10 0
BBX 9 16 1 0
BITMAP
1100
1E00
0000
6180
2180
2100
3300
1300
1200
1E00
0C00
0C00
0C00
0800
D800
7000
ENDCHAR
STARTCHAR 040F
ENCODING 1039
SWIDTH 462 0
DWIDTH 9 0
BBX 8 15 1 -2
BITMAP
83
83
83
83
83
83
83
83
83
83
83
83
FF
18
18
ENDCHAR
STARTCHAR 0410
ENCODING 1040
SWIDTH 617 0
DWIDTH 12 0
BBX 10 13 1 0
BITMAP
0400
0C00
0E00
1A00
1A00
1300
3100
3F80
2180
6080
40C0
C040
C040
ENDCHAR
STARTCHAR 0411
ENCODING 1041
SWIDTH 462 0
DWIDTH 9 0
BBX 8 13 1 0
BITMAP
FE
FE
80
80
80
80
FE
82
83
83
83
86
FC
ENDCHAR
STARTCHAR 0412
ENCODING 1042
SWIDTH 462 0
DWIDTH 9 0
BBX 8 13 1 0
BITMAP
F0
FE
82
82
82
86
FE
82
83
83
83
86
FC
ENDCHAR
STARTCHAR 0413
ENCODING 1043
SWIDTH 462 0
DWIDTH 9 0
BBX 8 13 1 0
BITMAP
FF
FF
80
80
80
80
80
80
80
80
80
80
80
ENDCHAR
STARTCHAR 0414
ENCODING 1044
SWIDTH 668 0
DWIDTH 13 0
BBX 11 15 1 -2
BITMAP
1FC0
1FC0
10C0
10C0
10C0
10C0
10C0
10C0
10C0
10C0
30C0
20C0
FFE0
8020
8020
ENDCHAR
STARTCHAR 0415
ENCODING 1045
SWIDTH 462 0
DWIDTH 9 0
BBX 8 13 1 0
BITMAP
FF
FF
80
80
80
80
FE
80
80
80
80
80
FF
ENDCHAR
STARTCHAR 0416
ENCODING 1046
SWIDTH 874 0
DWIDTH 17 0
BBX 15 13 1 0
BITMAP
4106
710E
1118
1910
1910
0930
0FE0
0FF0
1910
3118
210C
6106
C102
ENDCHAR
STARTCHAR 0417
ENCODING 1047
SWIDTH 514 0
DWIDTH 10 0
BBX 8 13 1 0
BITMAP
1C
7E
43
C1
03
06
1E
03
01
81
C1
63
3E
ENDCHAR
STARTCHAR 0418
ENCODING 1048
SWIDTH 462 0
DWIDTH 9 0
BBX 8 13 1 0
BITMAP
83
83
83
83
87
8F
9B
B3
E3
C3
83
83
83
ENDCHAR
STARTCHAR 0419
ENCODING 1049
SWIDTH 462 0
DWIDTH 9 0
BBX 8 16 1 0
BITMAP
64
3C
00
83
83
83
83
87
8F
9B
B3
E3
C3
83
83
83
ENDCHAR
STARTCHAR 041A
ENCODING 1050
SWIDTH 514 0
DWIDTH 10 0
BBX 8 13 1 0
BITMAP
83
87
8C
88
88
98
F0
F8
88
8C
86
82
83
ENDCHAR
STARTCHAR 041B
ENCODING 1051
SWIDTH 514 0
DWIDTH 10 0
BBX 8 13 1 0
BITMAP
7F
7F
61
61
61
61
61
61
61
61
61
41
81
ENDCHAR
STARTCHAR 041C
ENCODING 1052
SWIDTH 617 0
DWIDTH 12 0
BBX 11 13 1 0
BITMAP
8060
C060
C0E0
E0E0
E0E0
A1E0
B160
9160
9360
9A60
8E60
8E60
8C60
ENDCHAR
STARTCHAR 041D
ENCODING 1053
SWIDTH 462 0
DWIDTH 9 0
BBX 8 13 1 0
BITMAP
83
83
83
83
83
83
FF
83
83
83
83
83
83
ENDCHAR
STARTCHAR 041E
ENCODING 1054
SWIDTH 617 0
DWIDTH 12 0
BBX 10 13 1 0
BITMAP
0E00
3F00
6180
40C0
C040
8040
8040
8040
C040
C0C0
6080
3380
1F00
ENDCHAR
STARTCHAR 041F
ENCODING 1055
SWIDTH 462 0
DWIDTH 9 0
BBX 8 13 1 0
BITMAP
FF
FF
83
83
83
83
83
83
83
83
83
83
83
ENDCHAR
STARTCHAR 0420
ENCODING 1056
SWIDTH 462 0
DWIDTH 9 0
BBX 7 13 1 0
BITMAP
F0
FC
86
82
82
86
FC
F8
80
80
80
80
80
ENDCHAR
STARTCHAR 0421
ENCODING 1057
SWIDTH 565 0
DWIDTH 11 0
BBX 9 13 1 0
BITMAP
0E00
3F00
6180
4080
C000
8000
8000
8000
C000
C000
6080
3380
1F00
ENDCHAR
STARTCHAR 0422
ENCODING 1058
SWIDTH 462 0
DWIDTH 9 0
BBX 8 13 1 0
BITMAP
FF
FF
18
18
18
18
18
18
18
18
18
18
18
ENDCHAR
STARTCHAR 0423
ENCODING 1059
SWIDTH 514 0
DWIDTH 10 0
BBX 9 13 1 0
BITMAP
6180
2180
2100
3300
1300
1200
1E00
0C00
0C00
0C00
0800
D800
7000
ENDCHAR
STARTCHAR 0424
ENCODING 1060
SWIDTH 565 0
DWIDTH 11 0
BBX 10 13 1 0
BITMAP
0C00
0C00
0C00
7F80
DE80
CCC0
8CC0
8CC0
CCC0
7F80
2C00
0C00
0C00
ENDCHAR
STARTCHAR 0425
ENCODING 1061
SWIDTH 617 0
DWIDTH 12 0
BBX 10 13 1 0
BITMAP
C040
40C0
6180
3100
1B00
1E00
0C00
0E00
1A00
3300
2180
6080
C0C0
ENDCHAR
STARTCHAR 0426
ENCODING 1062
SWIDTH 565 0
DWIDTH 11 0
BBX 9 15 1 -2
BITMAP
8300
8300
8300
8300
8300
8300
8300
8300
8300
8300
8300
8300
FF80
0080
0080
ENDCHAR
STARTCHAR 0427
ENCODING 1063
SWIDTH 514 0
DWIDTH 10 0
BBX 8 13 1 0
BITMAP
81
81
81
81
C1
C1
63
3F
01
01
01
01
01
ENDCHAR
STARTCHAR 0428
ENCODING 1064
SWIDTH 720 0
DWIDTH 14 0
BBX 13 13 1 0
BITMAP
8218
8218
8218
8218
8218
8218
8218
8218
8218
8218
8218
8218
FFF8
ENDCHAR
STARTCHAR 0429
ENCODING 1065
SWIDTH 771 0
DWIDTH 15 0
BBX 14 15 1 -2
BITMAP
8218
8218
8218
8218
8218
8218
8218
8218
8218
8218
8218
8218
FFFC
0004
0004
ENDCHAR
STARTCHAR 042A
ENCODING 1066
SWIDTH 617 0
DWIDTH 12 0
BBX 11 13 1 0
BITMAP
F000
F000
1000
1000
1000
1000
1F80
10C0
1060
1060
1060
10C0
1F80
ENDCHAR
STARTCHAR 042B
ENCODING 1067
SWIDTH 617 0
DWIDTH 12 0
BBX 10 13 1 0
BITMAP
8040
8040
8040
8040
8040
8040
FE40
8240
8340
8340
8340
8640
FC40
ENDCHAR
STARTCHAR 042C
ENCODING 1068
SWIDTH 462 0
DWIDTH 9 0
BBX 8 13 1 0
BITMAP
80
80
80
80
80
80
FE
82
83
83
83
86
FC
ENDCHAR
STARTCHAR 042D
ENCODING 1069
SWIDTH 565 0
DWIDTH 11 0
BBX 10 13 1 0
BITMAP
1C00
7E00
C300
8180
0080
0080
1FC0
00C0
0080
0080
C180
6300
3E00
ENDCHAR
STARTCHAR 042E
ENCODING 1070
SWIDTH 771 0
DWIDTH 15 0
BBX 13 13 1 0
BITMAP
8180
87E0
8C30
9818
9818
9008
F008
9008
9008
9818
8810
8E70
83C0
ENDCHAR
STARTCHAR 042F
ENCODING 1071
SWIDTH 514 0
DWIDTH 10 0
BBX 8 13 1 0
BITMAP
0F
3F
61
41
41
61
3F
1F
11
31
61
41
C1
ENDCHAR
STARTCHAR 0430
ENCODING 1072
SWIDTH 360 0
DWIDTH 7 0
BBX 6 9 1 0
BITMAP
38
7C
0C
0C
7C
CC
8C
CC
7C
ENDCHAR
STARTCHAR 0431
ENCODING 1073
SWIDTH 462 0
DWIDTH 9 0
BBX 8 13 1 0
BITMAP
02
06
3C
60
F8
FE
C6
C2
83
82
C2
66
3C
ENDCHAR
STARTCHAR 0432
ENCODING 1074
SWIDTH 411 0
DWIDTH 8 0
BBX 6 9 1 0
BITMAP
F0
F8
8C
FC
F8
8C
84
8C
F8
ENDCHAR
STARTCHAR 0433
ENCODING 1075
SWIDTH 360 0
DWIDTH 7 0
BBX 6 9 1 0
BITMAP
FC
FC
80
80
80
80
80
80
80
ENDCHAR
STARTCHAR 0434
ENCODING 1076
SWIDTH 565 0
DWIDTH 11 0
BBX 9 11 1 -2
BITMAP
1F00
1F00
1100
1100
1100
1100
3100
2100
FF80
8080
8080
ENDCHAR
STARTCHAR 0435
ENCODING 1077
SWIDTH 462 0
DWIDTH 9 0
BBX 8 9 1 0
BITMAP
38
7E
C6
FE
FF
80
C2
66
3C
ENDCHAR
STARTCHAR 0436
ENCODING 1078
SWIDTH 668 0
DWIDTH 13 0
BBX 12 9 1 0
BITMAP
4660
66E0
36C0
3680
1F80
3FC0
6660
4620
C630
ENDCHAR
STARTCHAR 0437
ENCODING 1079
SWIDTH 360 0
DWIDTH 7 0
BBX 6 9 1 0
BITMAP
70
78
C8
38
38
0C
8C
C8
78
ENDCHAR
STARTCHAR 0438
ENCODING 1080
SWIDTH 411 0
DWIDTH 8 0
BBX 7 9 1 0
BITMAP
86
86
8E
9E
B6
E6
C6
86
86
ENDCHAR
STARTCHAR 0439
ENCODING 1081
SWIDTH 411 0
DWIDTH 8 0
BBX 7 13 1 0
BITMAP
44
4C
38
00
86
86
8E
9E
B6
E6
C6
86
86
ENDCHAR
STARTCHAR 043A
ENCODING 1082
SWIDTH 411 0
DWIDTH 8 0
BBX 7 9 1 0
BITMAP
8C
9C
90
90
F0
F8
88
8C
86
ENDCHAR
STARTCHAR 043B
ENCODING 1083
SWIDTH 462 0
DWIDTH 9 0
BBX 8 9 1 0
BITMAP
7F
7F
63
63
63
63
63
43
83
ENDCHAR
STARTCHAR 043C
ENCODING 1084
SWIDTH 462 0
DWIDTH 9 0
BBX 8 9 1 0
BITMAP
C3
C3
C7
E7
E7
AF
BF
9B
9B
ENDCHAR
STARTCHAR 043D
ENCODING 1085
SWIDTH 411 0
DWIDTH 8 0
BBX 7 9 1 0
BITMAP
86
86
86
86
FE
86
86
86
86
ENDCHAR
STARTCHAR 043E
ENCODING 1086
SWIDTH 462 0
DWIDTH 9 0
BBX 8 9 1 0
BITMAP
38
7E
C6
C2
83
82
C2
66
3C
ENDCHAR
STARTCHAR 043F
ENCODING 1087
SWIDTH 411 0
DWIDTH 8 0
BBX 7 9 1 0
BITMAP
FE
FE
86
86
86
86
86
86
86
ENDCHAR
STARTCHAR 0440
ENCODING 1088
SWIDTH 462 0
DWIDTH 9 0
BBX 8 13 1 -4
BITMAP
B8
FE
C6
C2
83
82
C2
E6
BC
80
80
80
80
ENDCHAR
STARTCHAR 0441
ENCODING 1089
SWIDTH 462 0
DWIDTH 9 0
BBX 7 9 1 0
BITMAP
38
7E
C6
C0
80
80
C2
66
3C
ENDCHAR
STARTCHAR 0442
ENCODING 1090
SWIDTH 360 0
DWIDTH 7 0
BBX 6 9 1 0
BITMAP
FC
FC
30
30
30
30
30
30
30
ENDCHAR
STARTCHAR 0443
ENCODING 1091
SWIDTH 462 0
DWIDTH 9 0
BBX 8 13 1 -4
BITMAP
C3
C2
46
66
64
2C
3C
18
18
10
10
30
60
ENDCHAR
STARTCHAR 0444
ENCODING 1092
SWIDTH 565 0
DWIDTH 11 0
BBX 10 17 1 -4
BITMAP
0C00
0C00
0C00
0C00
3F00
7F80
CCC0
8CC0
8CC0
8CC0
CCC0
5C80
7F80
0C00
0C00
0C00
0C00
ENDCHAR
STARTCHAR 0445
ENCODING 1093
SWIDTH 462 0
DWIDTH 9 0
BBX 8 9 1 0
BITMAP
C3
66
24
3C
18
38
2C
66
C2
ENDCHAR
STARTCHAR 0446
ENCODING 1094
SWIDTH 462 0
DWIDTH 9 0
BBX 8 11 1 -2
BITMAP
86
86
86
86
86
86
86
86
FF
01
01
ENDCHAR
STARTCHAR 0447
ENCODING 1095
SWIDTH 411 0
DWIDTH 8 0
BBX 6 9 1 0
BITMAP
84
84
84
C4
7C
04
04
04
04
ENDCHAR
STARTCHAR 0448
ENCODING 1096
SWIDTH 514 0
DWIDTH 10 0
BBX 9 9 1 0
BITMAP
8880
8880
8880
8880
8880
8880
8880
8880
FF80
ENDCHAR
STARTCHAR 0449
ENCODING 1097
SWIDTH 617 0
DWIDTH 12 0
BBX 10 11 1 -2
BITMAP
8880
8880
8880
8880
8880
8880
8880
8880
FFC0
0040
0040
ENDCHAR
STARTCHAR 044A
ENCODING 1098
SWIDTH 514 0
DWIDTH 10 0
BBX 8 9 1 0
BITMAP
F0
F0
10
1C
1F
11
11
13
1E
ENDCHAR
STARTCHAR 044B
ENCODING 1099
SWIDTH 462 0
DWIDTH 9 0
BBX 8 9 1 0
BITMAP
81
81
81
E1
F9
8D
8D
99
F1
ENDCHAR
STARTCHAR 044C
ENCODING 1100
SWIDTH 360 0
DWIDTH 7 0
BBX 6 9 1 0
BITMAP
80
80
80
E0
F8
8C
8C
98
F0
ENDCHAR
STARTCHAR 044D
ENCODING 1101
SWIDTH 462 0
DWIDTH 9 0
BBX 7 9 1 0
BITMAP
38
7C
C6
02
3E
02
86
CC
78
ENDCHAR
STARTCHAR 044E
ENCODING 1102
SWIDTH 617 0
DWIDTH 12 0
BBX 10 9 1 0
BITMAP
8700
8F80
98C0
9040
F040
9040
9840
8CC0
8780
ENDCHAR
STARTCHAR 044F
ENCODING 1103
SWIDTH 411 0
DWIDTH 8 0
BBX 6 9 1 0
BITMAP
3C
7C
44
44
7C
3C
64
44
C4
ENDCHAR
STARTCHAR 0450
ENCODING 1104
SWIDTH 462 0
DWIDTH 9 0
BBX 8 13 1 0
BITMAP
20
10
10
00
38
7E
C6
FE
FF
80
C2
66
3C
ENDCHAR
STARTCHAR 0451
ENCODING 1105
SWIDTH 462 0
DWIDTH 9 0
BBX 8 12 1 0
BITMAP
6C
64
00
38
7E
C6
FE
FF
80
C2
66
3C
ENDCHAR
STARTCHAR 0452
ENCODING 1106
SWIDTH 565 0
DWIDTH 11 0
BBX 9 17 1 -4
BITMAP
2000
2000
F800
F800
2F00
3F80
3180
2080
2080
2080
2080
2080
2080
0080
0080
0180
0700
ENDCHAR
STARTCHAR 0453
ENCODING 1107
SWIDTH 360 0
DWIDTH 7 0
BBX 6 13 1 0
BITMAP
18
10
20
00
FC
FC
80
80
80
80
80
80
80
ENDCHAR
STARTCHAR 0454
ENCODING 1108
SWIDTH 462 0
DWIDTH 9 0
BBX 7 9 1 0
BITMAP
38
7E
C6
C0
F8
80
C2
66
3C
ENDCHAR
STARTCHAR 0455
ENCODING 1109
SWIDTH 360 0
DWIDTH 7 0
BBX 6 9 1 0
BITMAP
70
F8
C0
60
38
08
8C
C8
78
ENDCHAR
STARTCHAR 0456
ENCODING 1110
SWIDTH 154 0
DWIDTH 3 0
BBX 2 12 1 0
BITMAP
C0
C0
00
80
80
80
80
80
80
80
80
80
ENDCHAR
STARTCHAR 0457
ENCODING 1111
SWIDTH 154 0
DWIDTH 3 0
BBX 5 12 -1 0
BITMAP
D8
D8
00
20
20
20
20
20
20
20
20
20
ENDCHAR
STARTCHAR 0458
ENCODING 1112
SWIDTH 154 0
DWIDTH 3 0
BBX 5 16 -2 -4
BITMAP
18
18
00
10
10
10
10
10
10
10
10
10
10
10
30
E0
ENDCHAR
STARTCHAR 0459
ENCODING 1113
SWIDTH 668 0
DWIDTH 13 0
BBX 12 9 1 0
BITMAP
7F00
7F00
6300
6380
63E0
6330
6330
4330
83E0
ENDCHAR
STARTCHAR 045A
ENCODING 1114
SWIDTH 617 0
DWIDTH 12 0
BBX 11 9 1 0
BITMAP
8600
8600
8600
8700
FFC0
8660
8660
8660
87C0
ENDCHAR
STARTCHAR 045B
ENCODING 1115
SWIDTH 514 0
DWIDTH 10 0
BBX 9 13 1 0
BITMAP
6000
6000
F000
6000
6E00
7F00
7180
6180
6080
6080
6080
6080
6080
ENDCHAR
STARTCHAR 045C
ENCODING 1116
SWIDTH 411 0
DWIDTH 8 0
BBX 7 13 1 0
BITMAP
18
10
20
00
8C
9C
90
90
F0
F8
88
8C
86
ENDCHAR
STARTCHAR 045D
ENCODING 1117
SWIDTH 411 0
DWIDTH 8 0
BBX 7 13 1 0
BITMAP
60
20
10
00
86
86
8E
9E
B6
E6
C6
86
86
ENDCHAR
STARTCHAR 045E
ENCODING 1118
SWIDTH 462 0
DWIDTH 9 0
BBX 8 17 1 -4
BITMAP
46
64
3C
00
C3
C2
46
66
64
2C
3C
18
18
10
10
30
60
ENDCHAR
STARTCHAR 045F
ENCODING 1119
SWIDTH 411 0
DWIDTH 8 0
BBX 7 11 1 -2
BITMAP
86
86
86
86
86
86
86
86
FE
10
10
ENDCHAR
STARTCHAR 0460
ENCODING 1120
SWIDTH 925 0
DWIDTH 18 0
BBX 16 13 1 0
BITMAP
8101
8101
8101
8101
8101
8101
C103
C103
4182
6186
23C4
1E7C
0C30
ENDCHAR
STARTCHAR 0461
ENCODING 1121
SWIDTH 720 0
DWIDTH 14 0
BBX 12 9 1 0
BITMAP
8410
8410
8410
8410
C410
C630
6620
3F40
1880
ENDCHAR
STARTCHAR 0462
ENCODING 1122
SWIDTH 668 0
DWIDTH 13 0
BBX 11 13 1 0
BITMAP
1800
1800
FF00
FF00
1800
1800
1FC0
1860
1820
1820
1860
18C0
1F80
ENDCHAR
STARTCHAR 0463
ENCODING 1123
SWIDTH 462 0
DWIDTH 9 0
BBX 8 13 1 0
BITMAP
30
30
30
30
FC
FC
30
38
3E
33
33
36
3E
ENDCHAR
STARTCHAR 0464
ENCODING 1124
SWIDTH 720 0
DWIDTH 14 0
BBX 12 13 1 0
BITMAP
8180
87E0
8C30
9810
9000
9000
FF80
9000
9000
9800
8830
8E60
83C0
ENDCHAR
STARTCHAR 0465
ENCODING 1125
SWIDTH 565 0
DWIDTH 11 0
BBX 10 9 1 0
BITMAP
8700
8F80
98C0
9000
FF00
9000
9880
8CC0
8780
ENDCHAR
STARTCHAR 0466
ENCODING 1126
SWIDTH 617 0
DWIDTH 12 0
BBX 10 13 1 0
BITMAP
0400
0C00
0E00
1A00
1A00
1300
3100
3F80
2580
6480
44C0
C440
C440
ENDCHAR
STARTCHAR 0467
ENCODING 1127
SWIDTH 462 0
DWIDTH 9 0
BBX 8 9 1 0
BITMAP
18
18
38
2C
24
7E
5E
DA
DB
ENDCHAR
STARTCHAR 0468
ENCODING 1128
SWIDTH 771 0
DWIDTH 15 0
BBX 13 13 1 0
BITMAP
8180
8180
8380
83C0
8240
8660
FC60
87E0
8DB0
89B0
8990
9998
9188
ENDCHAR
STARTCHAR 0469
ENCODING 1129
SWIDTH 565 0
DWIDTH 11 0
BBX 10 9 1 0
BITMAP
8600
8600
8F00
8F00
F900
9F80
9780
9680
B6C0
ENDCHAR
STARTCHAR 046A
ENCODING 1130
SWIDTH 565 0
DWIDTH 11 0
BBX 11 13 0 0
BITMAP
FFE0
7FC0
30C0
1180
1B00
0E00
1F00
3D80
64C0
6440
4440
4440
4440
ENDCHAR
STARTCHAR 046B
ENCODING 1131
SWIDTH 462 0
DWIDTH 9 0
BBX 8 9 1 0
BITMAP
FF
7E
6C
38
3C
76
D2
93
93
ENDCHAR
STARTCHAR 046C
ENCODING 1132
SWIDTH 720 0
DWIDTH 14 0
BBX 13 13 1 0
BITMAP
BFF8
9FF0
8820
8C60
86C0
8380
FFC0
8FE0
9930
9110
9110
9110
9110
ENDCHAR
STARTCHAR 046D
ENCODING 1133
SWIDTH 617 0
DWIDTH 12 0
BBX 10 9 1 0
BITMAP
9FC0
8FC0
8D80
8700
FF80
8EC0
9A40
9240
9240
ENDCHAR
STARTCHAR 046E
ENCODING 1134
SWIDTH 514 0
DWIDTH 10 0
BBX 8 18 1 -4
BITMAP
3C
1C
7E
43
C1
03
06
1E
03
01
01
01
07
7C
C0
80
E7
3E
ENDCHAR
STARTCHAR 046F
ENCODING 1135
SWIDTH 360 0
DWIDTH 7 0
BBX 6 15 1 -4
BITMAP
C8
78
70
78
C8
38
38
0C
0C
18
70
C0
80
D8
70
ENDCHAR
STARTCHAR 0470
ENCODING 1136
SWIDTH 668 0
DWIDTH 13 0
BBX 11 13 1 0
BITMAP
8420
C460
4440
64C0
64C0
24C0
3F80
1F00
0400
0400
0400
0400
0400
ENDCHAR
STARTCHAR 0471
ENCODING 1137
SWIDTH 668 0
DWIDTH 13 0
BBX 11 17 1 -4
BITMAP
0400
0400
0400
0400
C420
C460
44C0
64C0
64C0
24C0
34C0
1580
1F00
0400
0400
0400
0400
ENDCHAR
STARTCHAR 0472
ENCODING 1138
SWIDTH 617 0
DWIDTH 12 0
BBX 10 13 1 0
BITMAP
0E00
3F00
6180
40C0
C040
8040
FFC0
8040
C040
C0C0
6080
3380
1F00
ENDCHAR
STARTCHAR 0473
ENCODING 1139
SWIDTH 462 0
DWIDTH 9 0
BBX 8 9 1 0
BITMAP
38
7E
C6
C2
FF
82
C2
66
3C
ENDCHAR
STARTCHAR 0474
ENCODING 1140
SWIDTH 720 0
DWIDTH 14 0
BBX 13 13 1 0
BITMAP
8030
C078
40C0
6080
6080
2180
3100
1100
1300
1A00
0E00
0E00
0C00
ENDCHAR
STARTCHAR 0475
ENCODING 1141
SWIDTH 565 0
DWIDTH 11 0
BBX 10 9 1 0
BITMAP
C1C0
C3C0
4600
6600
6400
2C00
3C00
1800
1800
ENDCHAR
STARTCHAR 0476
ENCODING 1142
SWIDTH 720 0
DWIDTH 14 0
BBX 13 16 1 0
BITMAP
1B00
0900
0480
8030
C078
40C0
6080
6080
2180
3100
1100
1300
1A00
0E00
0E00
0C00
ENDCHAR
STARTCHAR 0477
ENCODING 1143
SWIDTH 565 0
DWIDTH 11 0
BBX 10 13 1 0
BITMAP
6C00
3400
1200
0000
C1C0
C3C0
4600
6600
6400
2C00
3C00
1800
1800
ENDCHAR
STARTCHAR 0478
ENCODING 1144
SWIDTH 1080 0
DWIDTH 21 0
BBX 19 17 1 -4
BITMAP
0E0000
3F0000
618000
40C000
C05820
804860
804C40
804440
C044C0
C0C680
608380
338380
1F0300
000300
000200
000600
000C00
ENDCHAR
STARTCHAR 0479
ENCODING 1145
SWIDTH 771 0
DWIDTH 15 0
BBX 13 13 1 -4
BITMAP
3208
7B08
CB18
8D10
8DB0
8CB0
C8A0
58E0
7060
0040
00C0
0180
0380
ENDCHAR
STARTCHAR 047A
ENCODING 1146
SWIDTH 822 0
DWIDTH 16 0
BBX 14 14 1 -1
BITMAP
0780
1FE0
3030
6018
C00C
C004
8004
8004
C00C
400C
6018
3B70
0FC0
0300
ENDCHAR
STARTCHAR 047B
ENCODING 1147
SWIDTH 565 0
DWIDTH 11 0
BBX 9 11 1 -1
BITMAP
0800
1E00
7F00
C180
C080
8080
8080
C180
6F00
3E00
0C00
ENDCHAR
STARTCHAR 047C
ENCODING 1148
SWIDTH 1080 0
DWIDTH 21 0
BBX 19 16 1 0
BITMAP
01E000
013800
001800
08E300
386380
6020C0
404060
C08020
800020
800020
804020
C06020
C0E060
60B040
3399C0
1F0F80
ENDCHAR
STARTCHAR 047D
ENCODING 1149
SWIDTH 771 0
DWIDTH 15 0
BBX 14 15 1 0
BITMAP
0200
0F80
08E0
0260
0300
0100
3130
7238
C008
C00C
800C
830C
C308
6798
3CF0
ENDCHAR
STARTCHAR 047E
ENCODING 1150
SWIDTH 925 0
DWIDTH 18 0
BBX 16 16 1 0
BITMAP
3FFC
2184
2184
8181
8001
8001
8001
8101
8101
C103
C103
4182
6186
23C4
1E7C
0C30
ENDCHAR
STARTCHAR 047F
ENCODING 1151
SWIDTH 720 0
DWIDTH 14 0
BBX 12 13 1 0
BITMAP
7FE0
7FE0
6620
0600
8610
8010
8410
8410
C410
C630
6620
3F40
1880
ENDCHAR
STARTCHAR 0480
ENCODING 1152
SWIDTH 565 0
DWIDTH 11 0
BBX 9 17 1 -4
BITMAP
0E00
3F00
6180
4080
C000
8000
8000
8000
C000
C000
6000
3000
1C00
0C00
0C00
0C00
0C00
ENDCHAR
STARTCHAR 0481
ENCODING 1153
SWIDTH 462 0
DWIDTH 9 0
BBX 7 13 1 -4
BITMAP
38
7E
C6
C0
80
80
C0
60
30
10
10
10
10
ENDCHAR
STARTCHAR 0482
ENCODING 1154
SWIDTH 617 0
DWIDTH 12 0
BBX 10 13 1 -4
BITMAP
0100
0300
3200
3E00
0780
04C0
0C00
CC00
7800
1F00
1300
1000
3000
ENDCHAR
STARTCHAR 0483
ENCODING 1155
SWIDTH 0 0
DWIDTH 0 0
BBX 6 4 -3 9
BITMAP
04
FC
80
80
ENDCHAR
STARTCHAR 0484
ENCODING 1156
SWIDTH 0 0
DWIDTH 0 0
BBX 4 3 0 9
BITMAP
E0
30
10
ENDCHAR
STARTCHAR 0485
ENCODING 1157
SWIDTH 0 0
DWIDTH 0 0
BBX 2 4 -1 9
BITMAP
C0
80
80
40
ENDCHAR
STARTCHAR 0486
ENCODING 1158
SWIDTH 0 0
DWIDTH 0 0
BBX 2 4 -1 9
BITMAP
C0
40
40
80
ENDCHAR
STARTCHAR 0487
ENCODING 1159
SWIDTH 0 0
DWIDTH 0 0
BBX 6 4 -3 9
BITMAP
60
F8
8C
04
ENDCHAR
STARTCHAR 0488
ENCODING 1160
SWIDTH 874 0
DWIDTH 17 0
BBX 15 15 1 -2
BITMAP
0D60
0C60
3008
0000
C006
4000
8002
C002
0000
C006
C006
2008
3008
0D60
0120
ENDCHAR
STARTCHAR 0489
ENCODING 1161
SWIDTH 1028 0
DWIDTH 20 0
BBX 17 19 1 -4
BITMAP
004000
008000
08CC00
060800
000000
500180
200100
000000
000080
A00180
400000
000000
100300
500080
200000
040C00
044400
004000
008000
ENDCHAR
STARTCHAR 048A
ENCODING 1162
SWIDTH 462 0
DWIDTH 9 0
BBX 8 19 1 -4
BITMAP
64
3C
00
83
83
83
83
87
8F
9B
B3
E3
C3
83
83
83
01
01
02
ENDCHAR
STARTCHAR 048B
ENCODING 1163
SWIDTH 411 0
DWIDTH 8 0
BBX 7 17 1 -4
BITMAP
44
4C
38
00
86
86
8E
9E
B6
E6
C6
86
86
02
02
04
04
ENDCHAR
STARTCHAR 048C
ENCODING 1164
SWIDTH 565 0
DWIDTH 11 0
BBX 9 13 1 0
BITMAP
6000
6000
F000
F000
6000
6000
7F00
6180
6080
6080
6080
6380
7E00
ENDCHAR
STARTCHAR 048D
ENCODING 1165
SWIDTH 411 0
DWIDTH 8 0
BBX 7 11 1 0
BITMAP
60
60
F0
F0
60
70
7C
66
66
66
7C
ENDCHAR
STARTCHAR 048E
ENCODING 1166
SWIDTH 462 0
DWIDTH 9 0
BBX 8 13 1 0
BITMAP
F0
FC
86
82
8A
8E
FE
FB
80
80
80
80
80
ENDCHAR
STARTCHAR 048F
ENCODING 1167
SWIDTH 462 0
DWIDTH 9 0
BBX 8 13 1 -4
BITMAP
B8
FE
C6
C2
83
8A
CE
E6
BF
80
80
80
80
ENDCHAR
STARTCHAR 0490
ENCODING 1168
SWIDTH 462 0
DWIDTH 9 0
BBX 8 15 1 0
BITMAP
03
03
FF
FF
80
80
80
80
80
80
80
80
80
80
80
ENDCHAR
STARTCHAR 0491
ENCODING 1169
SWIDTH 360 0
DWIDTH 7 0
BBX 6 11 1 0
BITMAP
0C
0C
FC
FC
80
80
80
80
80
80
80
ENDCHAR
STARTCHAR 0492
ENCODING 1170
SWIDTH 565 0
DWIDTH 11 0
BBX 9 13 1 0
BITMAP
7F80
7F80
6000
6000
6000
6000
F800
6000
6000
6000
6000
6000
6000
ENDCHAR
STARTCHAR 0493
ENCODING 1171
SWIDTH 462 0
DWIDTH 9 0
BBX 7 9 1 0
BITMAP
7E
7E
60
60
F8
60
60
60
60
ENDCHAR
STARTCHAR 0494
ENCODING 1172
SWIDTH 462 0
DWIDTH 9 0
BBX 8 17 1 -4
BITMAP
FF
FF
80
80
BC
FE
C2
C2
83
83
83
83
83
03
03
06
1C
ENDCHAR
STARTCHAR 0495
ENCODING 1173
SWIDTH 360 0
DWIDTH 7 0
BBX 6 13 1 -4
BITMAP
FC
FC
80
F0
D8
88
88
88
88
08
08
18
70
ENDCHAR
STARTCHAR 0496
ENCODING 1174
SWIDTH 874 0
DWIDTH 17 0
BBX 16 15 1 -2
BITMAP
4106
710E
1118
1910
1910
0930
0FE0
0FF0
1910
3118
210C
6106
C103
0003
0003
ENDCHAR
STARTCHAR 0497
ENCODING 1175
SWIDTH 668 0
DWIDTH 13 0
BBX 12 11 1 -2
BITMAP
4660
66E0
36C0
3680
1F80
3FC0
6660
4620
C630
0010
0010
ENDCHAR
STARTCHAR 0498
ENCODING 1176
SWIDTH 514 0
DWIDTH 10 0
BBX 8 15 1 -2
BITMAP
1C
7E
43
C1
03
06
1E
03
01
81
C1
63
3E
08
08
ENDCHAR
STARTCHAR 0499
ENCODING 1177
SWIDTH 360 0
DWIDTH 7 0
BBX 6 11 1 -2
BITMAP
70
78
C8
38
38
0C
8C
C8
78
30
30
ENDCHAR
STARTCHAR 049A
ENCODING 1178
SWIDTH 514 0
DWIDTH 10 0
BBX 8 15 1 -2
BITMAP
83
87
8C
88
88
98
F0
F8
88
8C
86
82
83
01
01
ENDCHAR
STARTCHAR 049B
ENCODING 1179
SWIDTH 411 0
DWIDTH 8 0
BBX 7 11 1 -2
BITMAP
8C
9C
90
90
F0
F8
88
8C
86
02
02
ENDCHAR
STARTCHAR 049C
ENCODING 1180
SWIDTH 514 0
DWIDTH 10 0
BBX 8 13 1 0
BITMAP
83
87
8C
88
A8
B8
F0
F8
A8
8C
86
82
83
ENDCHAR
STARTCHAR 049D
ENCODING 1181
SWIDTH 411 0
DWIDTH 8 0
BBX 7 9 1 0
BITMAP
8C
9C
B0
B0
F0
F8
A8
8C
86
ENDCHAR
STARTCHAR 049E
ENCODING 1182
SWIDTH 514 0
DWIDTH 10 0
BBX 9 13 0 0
BITMAP
4180
4380
F600
4400
4400
4C00
7800
7C00
4400
4600
4300
4100
4180
ENDCHAR
STARTCHAR 049F
ENCODING 1183
SWIDTH 411 0
DWIDTH 8 0
BBX 8 12 0 0
BITMAP
40
40
F0
46
4E
48
48
78
7C
44
46
43
ENDCHAR
STARTCHAR 04A0
ENCODING 1184
SWIDTH 668 0
DWIDTH 13 0
BBX 11 13 1 0
BITMAP
F040
F0C0
1180
1100
1100
1300
1E00
1E00
1300
1180
10C0
1040
1060
ENDCHAR
STARTCHAR 04A1
ENCODING 1185
SWIDTH 565 0
DWIDTH 11 0
BBX 10 9 1 0
BITMAP
F100
F300
1200
1200
1E00
1A00
1300
1180
10C0
ENDCHAR
STARTCHAR 04A2
ENCODING 1186
SWIDTH 565 0
DWIDTH 11 0
BBX 9 15 1 -2
BITMAP
8300
8300
8300
8300
8300
8300
FF00
8300
8300
8300
8300
8300
8380
0080
0080
ENDCHAR
STARTCHAR 04A3
ENCODING 1187
SWIDTH 462 0
DWIDTH 9 0
BBX 8 11 1 -2
BITMAP
86
86
86
86
FE
86
86
86
87
01
01
ENDCHAR
STARTCHAR 04A4
ENCODING 1188
SWIDTH 822 0
DWIDTH 16 0
BBX 14 13 1 0
BITMAP
83FC
83FC
8300
8300
8300
8300
FF00
8300
8300
8300
8300
8300
8300
ENDCHAR
STARTCHAR 04A5
ENCODING 1189
SWIDTH 617 0
DWIDTH 12 0
BBX 11 9 1 0
BITMAP
87E0
87E0
8600
8600
FE00
8600
8600
8600
8600
ENDCHAR
STARTCHAR 04A6
ENCODING 1190
SWIDTH 771 0
DWIDTH 15 0
BBX 14 17 1 -4
BITMAP
FF00
FF00
8300
8300
83C0
83F0
8310
8318
8308
830C
830C
830C
8308
0018
0C18
0770
03C0
ENDCHAR
STARTCHAR 04A7
ENCODING 1191
SWIDTH 617 0
DWIDTH 12 0
BBX 11 13 1 -4
BITMAP
FE00
FE00
8600
8600
8780
86C0
8660
8660
8660
0060
0840
0EC0
0780
ENDCHAR
STARTCHAR 04A8
ENCODING 1192
SWIDTH 720 0
DWIDTH 14 0
BBX 12 13 1 0
BITMAP
0980
3BC0
6660
4420
C420
8420
8420
8420
C620
C660
63C0
3190
1FF0
ENDCHAR
STARTCHAR 04A9
ENCODING 1193
SWIDTH 565 0
DWIDTH 11 0
BBX 10 9 1 0
BITMAP
3600
7F00
C900
C980
9980
8980
C900
6FC0
3F80
ENDCHAR
STARTCHAR 04AA
ENCODING 1194
SWIDTH 565 0
DWIDTH 11 0
BBX 9 15 1 -2
BITMAP
0E00
3F00
6180
4080
C000
8000
8000
8000
C000
C000
6080
3380
1F00
0C00
0C00
ENDCHAR
STARTCHAR 04AB
ENCODING 1195
SWIDTH 462 0
DWIDTH 9 0
BBX 7 11 1 -2
BITMAP
38
7E
C6
C0
80
80
C2
66
3C
10
10
ENDCHAR
STARTCHAR 04AC
ENCODING 1196
SWIDTH 462 0
DWIDTH 9 0
BBX 8 15 1 -2
BITMAP
FF
FF
18
18
18
18
18
18
18
18
18
18
1C
04
04
ENDCHAR
STARTCHAR 04AD
ENCODING 1197
SWIDTH 360 0
DWIDTH 7 0
BBX 6 11 1 -2
BITMAP
FC
FC
30
30
30
30
30
30
38
08
08
ENDCHAR
STARTCHAR 04AE
ENCODING 1198
SWIDTH 617 0
DWIDTH 12 0
BBX 10 13 1 0
BITMAP
C040
40C0
6180
3100
1B00
1E00
0C00
0C00
0C00
0C00
0C00
0C00
0C00
ENDCHAR
STARTCHAR 04AF
ENCODING 1199
SWIDTH 462 0
DWIDTH 9 0
BBX 8 13 1 -4
BITMAP
C3
C2
46
66
64
2C
3C
18
18
18
18
18
18
ENDCHAR
STARTCHAR 04B0
ENCODING 1200
SWIDTH 617 0
DWIDTH 12 0
BBX 10 13 1 0
BITMAP
C040
40C0
6180
3100
1B00
1E00
0C00
0C00
3F80
0C00
0C00
0C00
0C00
ENDCHAR
STARTCHAR 04B1
ENCODING 1201
SWIDTH 462 0
DWIDTH 9 0
BBX 8 13 1 -4
BITMAP
C3
C2
46
66
64
2C
3C
18
18
7E
18
18
18
ENDCHAR
STARTCHAR 04B2
ENCODING 1202
SWIDTH 617 0
DWIDTH 12 0
BBX 11 15 1 -2
BITMAP
C040
40C0
6180
3100
1B00
1E00
0C00
0E00
1A00
3300
2180
6080
C0E0
0060
0060
ENDCHAR
STARTCHAR 04B3
ENCODING 1203
SWIDTH 514 0
DWIDTH 10 0
BBX 8 11 1 -2
BITMAP
C3
66
24
3C
18
38
2C
66
C3
01
01
ENDCHAR
STARTCHAR 04B4
ENCODING 1204
SWIDTH 720 0
DWIDTH 14 0
BBX 13 15 1 -2
BITMAP
FF20
FF20
1820
1820
1820
1820
1820
1820
1820
1820
1820
1820
1FF8
0018
0018
ENDCHAR
STARTCHAR 04B5
ENCODING 1205
SWIDTH 617 0
DWIDTH 12 0
BBX 10 11 1 -2
BITMAP
FD80
FD80
3180
3180
3180
3180
3180
3180
3FC0
0040
0040
ENDCHAR
STARTCHAR 04B6
ENCODING 1206
SWIDTH 565 0
DWIDTH 11 0
BBX 10 15 1 -2
BITMAP
8100
8100
8100
8100
C100
6100
3F00
0100
0100
0100
0100
0100
01C0
00C0
00C0
ENDCHAR
STARTCHAR 04B7
ENCODING 1207
SWIDTH 462 0
DWIDTH 9 0
BBX 8 11 1 -2
BITMAP
84
84
84
C4
7C
04
04
04
07
03
03
ENDCHAR
STARTCHAR 04B8
ENCODING 1208
SWIDTH 514 0
DWIDTH 10 0
BBX 8 13 1 0
BITMAP
81
81
81
81
C1
C9
6B
3F
09
09
01
01
01
ENDCHAR
STARTCHAR 04B9
ENCODING 1209
SWIDTH 411 0
DWIDTH 8 0
BBX 6 9 1 0
BITMAP
84
84
94
D4
7C
14
14
04
04
ENDCHAR
STARTCHAR 04BA
ENCODING 1210
SWIDTH 514 0
DWIDTH 10 0
BBX 8 13 1 0
BITMAP
80
80
80
80
80
BC
EE
83
81
81
81
81
81
ENDCHAR
STARTCHAR 04BB
ENCODING 1211
SWIDTH 462 0
DWIDTH 9 0
BBX 8 13 1 0
BITMAP
80
80
80
80
BC
FE
C2
C2
83
83
83
83
83
ENDCHAR
STARTCHAR 04BC
ENCODING 1212
SWIDTH 822 0
DWIDTH 16 0
BBX 14 13 1 0
BITMAP
00C0
03F0
0618
8C08
8C0C
C804
7FFC
0800
0800
0C00
0410
0730
01E0
ENDCHAR
STARTCHAR 04BD
ENCODING 1213
SWIDTH 617 0
DWIDTH 12 0
BBX 11 9 1 0
BITMAP
0780
CFC0
8840
FFE0
7FE0
1800
0840
0CC0
0780
ENDCHAR
STARTCHAR 04BE
ENCODING 1214
SWIDTH 822 0
DWIDTH 16 0
BBX 14 15 1 -2
BITMAP
00C0
03F0
0618
8C08
8C0C
C804
7FFC
0800
0800
0C00
0410
0730
01E0
00C0
00C0
ENDCHAR
STARTCHAR 04BF
ENCODING 1215
SWIDTH 617 0
DWIDTH 12 0
BBX 11 11 1 -2
BITMAP
0780
CFC0
8840
FFE0
7FE0
1800
0840
0CC0
0780
0300
0300
ENDCHAR
STARTCHAR 04C0
ENCODING 1216
SWIDTH 308 0
DWIDTH 6 0
BBX 4 13 1 0
BITMAP
F0
F0
60
60
60
60
60
60
60
60
60
60
F0
ENDCHAR
STARTCHAR 04C1
ENCODING 1217
SWIDTH 874 0
DWIDTH 17 0
BBX 15 16 1 0
BITMAP
0440
03C0
0000
4106
710E
1118
1910
1910
0930
0FE0
0FF0
1910
3118
210C
6106
C102
ENDCHAR
STARTCHAR 04C2
ENCODING 1218
SWIDTH 668 0
DWIDTH 13 0
BBX 12 13 1 0
BITMAP
1180
1900
0F00
0000
4660
66E0
36C0
3680
1F80
3FC0
6660
4620
C630
ENDCHAR
STARTCHAR 04C3
ENCODING 1219
SWIDTH 462 0
DWIDTH 9 0
BBX 10 17 -1 -4
BITMAP
20C0
21C0
2300
2200
2200
2700
3D00
3980
2080
2080
20C0
2080
2080
0180
C100
7700
3C00
ENDCHAR
STARTCHAR 04C4
ENCODING 1220
SWIDTH 360 0
DWIDTH 7 0
BBX 7 13 0 -4
BITMAP
46
4E
48
48
78
7C
44
46
46
06
84
DC
78
ENDCHAR
STARTCHAR 04C5
ENCODING 1221
SWIDTH 514 0
DWIDTH 10 0
BBX 9 16 1 -4
BITMAP
7F00
7F00
6100
6100
6100
6100
6100
6100
6100
6100
6100
4100
8100
0080
0100
0100
ENDCHAR
STARTCHAR 04C6
ENCODING 1222
SWIDTH 462 0
DWIDTH 9 0
BBX 8 13 1 -4
BITMAP
7F
7F
63
63
63
63
63
43
83
01
02
02
02
ENDCHAR
STARTCHAR 04C7
ENCODING 1223
SWIDTH 462 0
DWIDTH 9 0
BBX 8 17 1 -4
BITMAP
83
83
83
83
83
83
FF
83
83
83
83
83
83
03
03
0B
0E
ENDCHAR
STARTCHAR 04C8
ENCODING 1224
SWIDTH 411 0
DWIDTH 8 0
BBX 7 13 1 -4
BITMAP
86
86
86
86
FE
86
86
86
86
06
06
1C
38
ENDCHAR
STARTCHAR 04C9
ENCODING 1225
SWIDTH 462 0
DWIDTH 9 0
BBX 8 16 1 -4
BITMAP
83
83
83
83
83
83
FF
83
83
83
83
83
83
01
01
02
ENDCHAR
STARTCHAR 04CA
ENCODING 1226
SWIDTH 411 0
DWIDTH 8 0
BBX 7 13 1 -4
BITMAP
86
86
86
86
FE
86
86
86
86
02
04
04
04
ENDCHAR
STARTCHAR 04CB
ENCODING 1227
SWIDTH 565 0
DWIDTH 11 0
BBX 8 15 1 -2
BITMAP
81
81
81
81
C1
61
3F
01
01
01
01
01
03
02
02
ENDCHAR
STARTCHAR 04CC
ENCODING 1228
SWIDTH 411 0
DWIDTH 8 0
BBX 6 11 1 -2
BITMAP
84
84
84
C4
7C
04
04
04
1C
18
18
ENDCHAR
STARTCHAR 04CD
ENCODING 1229
SWIDTH 617 0
DWIDTH 12 0
BBX 11 17 1 -4
BITMAP
8060
C060
C0E0
E0E0
E0E0
A1E0
B160
9160
9360
9A60
8E60
8E60
8C60
0020
0040
0040
0040
ENDCHAR
STARTCHAR 04CE
ENCODING 1230
SWIDTH 462 0
DWIDTH 9 0
BBX 8 13 1 -4
BITMAP
C3
C3
C7
E7
E7
AF
BF
9B
9B
01
01
02
02
ENDCHAR
STARTCHAR 04CF
ENCODING 1231
SWIDTH 154 0
DWIDTH 3 0
BBX 1 13 1 0
BITMAP
80
80
80
80
80
80
80
80
80
80
80
80
80
ENDCHAR
STARTCHAR 04D0
ENCODING 1232
SWIDTH 617 0
DWIDTH 12 0
BBX 10 16 1 0
BITMAP
1100
1E00
0000
0400
0C00
0E00
1A00
1A00
1300
3100
3F80
2180
6080
40C0
C040
C040
ENDCHAR
STARTCHAR 04D1
ENCODING 1233
SWIDTH 360 0
DWIDTH 7 0
BBX 6 13 1 0
BITMAP
8C
C8
78
00
38
7C
0C
0C
7C
CC
8C
CC
7C
ENDCHAR
STARTCHAR 04D2
ENCODING 1234
SWIDTH 617 0
DWIDTH 12 0
BBX 10 16 1 0
BITMAP
1B00
1B00
0000
0400
0C00
0E00
1A00
1A00
1300
3100
3F80
2180
6080
40C0
C040
C040
ENDCHAR
STARTCHAR 04D3
ENCODING 1235
SWIDTH 360 0
DWIDTH 7 0
BBX 6 12 1 0
BITMAP
CC
C8
00
38
7C
0C
0C
7C
CC
8C
CC
7C
ENDCHAR
STARTCHAR 04D4
ENCODING 1236
SWIDTH 720 0
DWIDTH 14 0
BBX 12 13 1 0
BITMAP
07F0
0FF0
0B00
1B00
1B00
1300
3FE0
2300
2300
6300
4300
C300
C3F0
ENDCHAR
STARTCHAR 04D5
ENCODING 1237
SWIDTH 720 0
DWIDTH 14 0
BBX 12 9 1 0
BITMAP
39C0
7FE0
0E30
0FF0
7FF0
CC00
8C20
CE60
7BC0
ENDCHAR
STARTCHAR 04D6
ENCODING 1238
SWIDTH 462 0
DWIDTH 9 0
BBX 8 16 1 0
BITMAP
64
3C
00
FF
FF
80
80
80
80
FE
80
80
80
80
80
FF
ENDCHAR
STARTCHAR 04D7
ENCODING 1239
SWIDTH 462 0
DWIDTH 9 0
BBX 8 13 1 0
BITMAP
44
64
38
00
38
7E
C6
FE
FF
80
C2
66
3C
ENDCHAR
STARTCHAR 04D8
ENCODING 1240
SWIDTH 617 0
DWIDTH 12 0
BBX 10 13 1 0
BITMAP
0E00
3F00
2180
00C0
0040
0040
FFC0
8040
C040
C0C0
6080
3380
1F00
ENDCHAR
STARTCHAR 04D9
ENCODING 1241
SWIDTH 462 0
DWIDTH 9 0
BBX 8 9 1 0
BITMAP
38
7E
C6
02
FF
FE
C2
66
3C
ENDCHAR
STARTCHAR 04DA
ENCODING 1242
SWIDTH 617 0
DWIDTH 12 0
BBX 10 16 1 0
BITMAP
1300
1B00
0000
0E00
3F00
2180
00C0
0040
0040
FFC0
8040
C040
C0C0
6080
3380
1F00
ENDCHAR
STARTCHAR 04DB
ENCODING 1243
SWIDTH 462 0
DWIDTH 9 0
BBX 8 12 1 0
BITMAP
6C
64
00
38
7E
C6
02
FF
FE
C2
66
3C
ENDCHAR
STARTCHAR 04DC
ENCODING 1244
SWIDTH 874 0
DWIDTH 17 0
BBX 15 16 1 0
BITMAP
0640
06C0
0000
4106
710E
1118
1910
1910
0930
0FE0
0FF0
1910
3118
210C
6106
C102
ENDCHAR
STARTCHAR 04DD
ENCODING 1245
SWIDTH 668 0
DWIDTH 13 0
BBX 12 12 1 0
BITMAP
1900
1900
0000
4660
66E0
36C0
3680
1F80
3FC0
6660
4620
C630
ENDCHAR
STARTCHAR 04DE
ENCODING 1246
SWIDTH 514 0
DWIDTH 10 0
BBX 9 16 0 0
BITMAP
3600
3600
0000
1C00
3F00
6100
4180
0100
0700
0F00
0300
0180
C080
4180
6300
3E00
ENDCHAR
STARTCHAR 04DF
ENCODING 1247
SWIDTH 360 0
DWIDTH 7 0
BBX 6 12 1 0
BITMAP
D8
C8
00
70
78
C8
38
38
0C
8C
C8
78
ENDCHAR
STARTCHAR 04E0
ENCODING 1248
SWIDTH 514 0
DWIDTH 10 0
BBX 8 13 1 0
BITMAP
FF
FF
03
02
06
0C
07
03
01
01
C1
67
3E
ENDCHAR
STARTCHAR 04E1
ENCODING 1249
SWIDTH 411 0
DWIDTH 8 0
BBX 7 13 1 -4
BITMAP
FE
FE
0C
08
18
38
0C
04
06
06
04
DC
78
ENDCHAR
STARTCHAR 04E2
ENCODING 1250
SWIDTH 462 0
DWIDTH 9 0
BBX 8 15 1 0
BITMAP
3C
00
83
83
83
83
87
8F
9B
B3
E3
C3
83
83
83
ENDCHAR
STARTCHAR 04E3
ENCODING 1251
SWIDTH 411 0
DWIDTH 8 0
BBX 7 12 1 0
BITMAP
7C
7C
00
86
86
8E
9E
B6
E6
C6
86
86
ENDCHAR
STARTCHAR 04E4
ENCODING 1252
SWIDTH 462 0
DWIDTH 9 0
BBX 8 16 1 0
BITMAP
64
66
00
83
83
83
83
87
8F
9B
B3
E3
C3
83
83
83
ENDCHAR
STARTCHAR 04E5
ENCODING 1253
SWIDTH 411 0
DWIDTH 8 0
BBX 7 12 1 0
BITMAP
6C
6C
00
86
86
8E
9E
B6
E6
C6
86
86
ENDCHAR
STARTCHAR 04E6
ENCODING 1254
SWIDTH 617 0
DWIDTH 12 0
BBX 10 16 1 0
BITMAP
1300
1B00
0000
0E00
3F00
6180
40C0
C040
8040
8040
8040
C040
C0C0
6080
3380
1F00
ENDCHAR
STARTCHAR 04E7
ENCODING 1255
SWIDTH 462 0
DWIDTH 9 0
BBX 8 12 1 0
BITMAP
6C
64
00
38
7E
C6
C2
83
82
C2
66
3C
ENDCHAR
STARTCHAR 04E8
ENCODING 1256
SWIDTH 617 0
DWIDTH 12 0
BBX 10 13 1 0
BITMAP
0E00
3F00
6180
40C0
C040
8040
FFC0
8040
C040
C0C0
6080
3380
1F00
ENDCHAR
STARTCHAR 04E9
ENCODING 1257
SWIDTH 462 0
DWIDTH 9 0
BBX 8 9 1 0
BITMAP
38
7E
C6
C2
FF
82
C2
66
3C
ENDCHAR
STARTCHAR 04EA
ENCODING 1258
SWIDTH 617 0
DWIDTH 12 0
BBX 10 16 1 0
BITMAP
1300
1B00
0000
0E00
3F00
6180
40C0
C040
8040
FFC0
8040
C040
C0C0
6080
3380
1F00
ENDCHAR
STARTCHAR 04EB
ENCODING 1259
SWIDTH 462 0
DWIDTH 9 0
BBX 8 12 1 0
BITMAP
6C
64
00
38
7E
C6
C2
FF
82
C2
66
3C
ENDCHAR
STARTCHAR 04EC
ENCODING 1260
SWIDTH 565 0
DWIDTH 11 0
BBX 10 16 1 0
BITMAP
3600
3600
0000
1C00
7E00
C300
8180
0080
0080
1FC0
00C0
0080
0080
C180
6300
3E00
ENDCHAR
STARTCHAR 04ED
ENCODING 1261
SWIDTH 462 0
DWIDTH 9 0
BBX 7 12 1 0
BITMAP
6C
6C
00
38
7C
C6
02
3E
02
86
CC
78
ENDCHAR
STARTCHAR 04EE
ENCODING 1262
SWIDTH 514 0
DWIDTH 10 0
BBX 9 15 1 0
BITMAP
1F00
0000
6180
2180
2100
3300
1300
1200
1E00
0C00
0C00
0C00
0800
D800
7000
ENDCHAR
STARTCHAR 04EF
ENCODING 1263
SWIDTH 462 0
DWIDTH 9 0
BBX 8 16 1 -4
BITMAP
3C
3C
00
C3
C2
46
66
64
2C
3C
18
18
10
10
30
60
ENDCHAR
STARTCHAR 04F0
ENCODING 1264
SWIDTH 514 0
DWIDTH 10 0
BBX 9 16 1 0
BITMAP
1300
1300
0000
6180
2180
2100
3300
1300
1200
1E00
0C00
0C00
0C00
0800
D800
7000
ENDCHAR
STARTCHAR 04F1
ENCODING 1265
SWIDTH 462 0
DWIDTH 9 0
BBX 8 16 1 -4
BITMAP
66
24
00
C3
C2
46
66
64
2C
3C
18
18
10
10
30
60
ENDCHAR
STARTCHAR 04F2
ENCODING 1266
SWIDTH 514 0
DWIDTH 10 0
BBX 9 16 1 0
BITMAP
0D00
1200
0000
6180
2180
2100
3300
1300
1200
1E00
0C00
0C00
0C00
0800
D800
7000
ENDCHAR
STARTCHAR 04F3
ENCODING 1267
SWIDTH 462 0
DWIDTH 9 0
BBX 8 17 1 -4
BITMAP
1B
12
24
00
C3
C2
46
66
64
2C
3C
18
18
10
10
30
60
ENDCHAR
STARTCHAR 04F4
ENCODING 1268
SWIDTH 514 0
DWIDTH 10 0
BBX 8 16 1 0
BITMAP
26
36
00
81
81
81
81
C1
C1
63
3F
01
01
01
01
01
ENDCHAR
STARTCHAR 04F5
ENCODING 1269
SWIDTH 411 0
DWIDTH 8 0
BBX 6 12 1 0
BITMAP
CC
48
00
84
84
84
C4
7C
04
04
04
04
ENDCHAR
STARTCHAR 04F6
ENCODING 1270
SWIDTH 462 0
DWIDTH 9 0
BBX 8 15 1 -2
BITMAP
FF
FF
80
80
80
80
80
80
80
80
80
80
E0
60
60
ENDCHAR
STARTCHAR 04F7
ENCODING 1271
SWIDTH 360 0
DWIDTH 7 0
BBX 6 11 1 -2
BITMAP
FC
FC
80
80
80
80
80
80
E0
60
60
ENDCHAR
STARTCHAR 04F8
ENCODING 1272
SWIDTH 617 0
DWIDTH 12 0
BBX 10 16 1 0
BITMAP
1300
1B00
0000
8040
8040
8040
8040
8040
8040
FE40
8240
8340
8340
8340
8640
FC40
ENDCHAR
STARTCHAR 04F9
ENCODING 1273
SWIDTH 462 0
DWIDTH 9 0
BBX 8 12 1 0
BITMAP
66
24
00
81
81
81
E1
F9
8D
8D
99
F1
ENDCHAR
STARTCHAR 04FA
ENCODING 1274
SWIDTH 565 0
DWIDTH 11 0
BBX 9 17 1 -4
BITMAP
7F80
7F80
6000
6000
6000
6000
F800
6000
6000
6000
6000
6000
7000
1000
1000
3000
E000
ENDCHAR
STARTCHAR 04FB
ENCODING 1275
SWIDTH 462 0
DWIDTH 9 0
BBX 7 13 1 -4
BITMAP
7E
7E
60
60
F8
60
60
60
70
10
10
30
E0
ENDCHAR
STARTCHAR 04FC
ENCODING 1276
SWIDTH 617 0
DWIDTH 12 0
BBX 11 17 1 -4
BITMAP
C040
40C0
6180
3100
1B00
1E00
0C00
0E00
1A00
3300
2180
6080
C0C0
0060
0060
00C0
0080
ENDCHAR
STARTCHAR 04FD
ENCODING 1277
SWIDTH 462 0
DWIDTH 9 0
BBX 8 13 1 -4
BITMAP
C3
66
24
3C
18
38
2C
66
C2
03
01
07
06
ENDCHAR
STARTCHAR 04FE
ENCODING 1278
SWIDTH 617 0
DWIDTH 12 0
BBX 10 13 1 0
BITMAP
C040
40C0
6180
3100
1B00
1E00
FFC0
0E00
1A00
3300
2180
6080
C0C0
ENDCHAR
STARTCHAR 04FF
ENCODING 1279
SWIDTH 462 0
DWIDTH 9 0
BBX 8 9 1 0
BITMAP
C3
66
24
3C
FF
38
2C
66
C2
ENDCHAR
STARTCHAR 0500
ENCODING 1280
SWIDTH 462 0
DWIDTH 9 0
BBX 8 13 1 0
BITMAP
01
01
01
01
3D
7F
C3
C1
81
81
C1
67
3F
ENDCHAR
STARTCHAR 0501
ENCODING 1281
SWIDTH 462 0
DWIDTH 9 0
BBX 8 13 1 0
BITMAP
03
03
03
03
3B
7F
C7
C3
83
83
C3
67
3F
ENDCHAR
STARTCHAR 0502
ENCODING 1282
SWIDTH 771 0
DWIDTH 15 0
BBX 13 13 1 0
BITMAP
0100
0100
0100
0100
3D00
7F00
C300
C178
8178
8130
C130
67B0
3CE0
ENDCHAR
STARTCHAR 0503
ENCODING 1283
SWIDTH 720 0
DWIDTH 14 0
BBX 13 13 1 0
BITMAP
0300
0300
0300
0300
3B00
7F00
C700
C3F8
83F8
8320
C320
6760
3DC0
ENDCHAR
STARTCHAR 0504
ENCODING 1284
SWIDTH 771 0
DWIDTH 15 0
BBX 13 13 1 0
BITMAP
3800
7E00
C200
8300
0200
0E00
1E00
0678
0378
0130
0130
01B0
00E0
ENDCHAR
STARTCHAR 0505
ENCODING 1285
SWIDTH 617 0
DWIDTH 12 0
BBX 10 9 1 0
BITMAP
7000
F800
9800
3BC0
3BC0
0880
0880
0D80
0700
ENDCHAR
STARTCHAR 0506
ENCODING 1286
SWIDTH 565 0
DWIDTH 11 0
BBX 9 15 1 -2
BITMAP
3800
7E00
C200
8300
0200
0E00
1E00
0600
0300
0100
0100
0100
0180
0080
0080
ENDCHAR
STARTCHAR 0507
ENCODING 1287
SWIDTH 411 0
DWIDTH 8 0
BBX 7 11 1 -2
BITMAP
70
F8
98
38
38
08
08
08
0E
06
06
ENDCHAR
STARTCHAR 0508
ENCODING 1288
SWIDTH 771 0
DWIDTH 15 0
BBX 14 13 1 0
BITMAP
7F00
7F00
6100
6100
6100
6100
6100
617C
617C
6110
6190
41B0
80E0
ENDCHAR
STARTCHAR 0509
ENCODING 1289
SWIDTH 720 0
DWIDTH 14 0
BBX 13 9 1 0
BITMAP
7F00
7F00
6300
63F8
63F8
6320
6320
4360
81C0
ENDCHAR
STARTCHAR 050A
ENCODING 1290
SWIDTH 771 0
DWIDTH 15 0
BBX 13 13 1 0
BITMAP
8300
8300
8300
8300
8300
8300
FF00
8378
8378
8330
8130
8120
81E0
ENDCHAR
STARTCHAR 050B
ENCODING 1291
SWIDTH 668 0
DWIDTH 13 0
BBX 12 9 1 0
BITMAP
8600
8600
8600
86F0
FEF0
8640
8640
86C0
8380
ENDCHAR
STARTCHAR 050C
ENCODING 1292
SWIDTH 617 0
DWIDTH 12 0
BBX 11 13 1 0
BITMAP
0E00
3F00
6180
4080
C000
8000
81E0
81E0
C0C0
C0C0
6080
3380
1F00
ENDCHAR
STARTCHAR 050D
ENCODING 1293
SWIDTH 514 0
DWIDTH 10 0
BBX 9 9 1 0
BITMAP
3800
7E00
C600
C000
8F80
8F80
C200
6600
3C00
ENDCHAR
STARTCHAR 050E
ENCODING 1294
SWIDTH 565 0
DWIDTH 11 0
BBX 10 13 1 0
BITMAP
FF00
FF00
1800
1800
1800
1800
1800
1BC0
1BC0
1900
1900
0B00
0E00
ENDCHAR
STARTCHAR 050F
ENCODING 1295
SWIDTH 514 0
DWIDTH 10 0
BBX 9 9 1 0
BITMAP
FC00
FC00
3000
3F80
3F80
3200
3200
3600
1C00
ENDCHAR
STARTCHAR 0510
ENCODING 1296
SWIDTH 462 0
DWIDTH 9 0
BBX 9 13 0 0
BITMAP
1C00
3F00
6100
4180
6000
3000
3C00
6000
4000
C080
4180
6300
3E00
ENDCHAR
STARTCHAR 0511
ENCODING 1297
SWIDTH 360 0
DWIDTH 7 0
BBX 6 9 1 0
BITMAP
70
78
C8
60
60
C0
8C
C8
78
ENDCHAR
STARTCHAR 0512
ENCODING 1298
SWIDTH 514 0
DWIDTH 10 0
BBX 8 17 1 -4
BITMAP
7F
7F
61
61
61
61
61
61
61
61
61
41
81
01
01
03
0E
ENDCHAR
STARTCHAR 0513
ENCODING 1299
SWIDTH 462 0
DWIDTH 9 0
BBX 8 13 1 -4
BITMAP
7F
7F
63
63
63
63
63
43
83
03
03
06
1C
ENDCHAR
STARTCHAR 0514
ENCODING 1300
SWIDTH 874 0
DWIDTH 17 0
BBX 15 13 1 0
BITMAP
7C06
7E04
630C
6118
6190
60F0
6060
60E0
60F0
6198
6308
420C
8606
ENDCHAR
STARTCHAR 0515
ENCODING 1301
SWIDTH 668 0
DWIDTH 13 0
BBX 12 9 1 0
BITMAP
7C30
7E60
6240
63C0
6180
6380
62C0
4660
8C20
ENDCHAR
STARTCHAR 0516
ENCODING 1302
SWIDTH 617 0
DWIDTH 12 0
BBX 11 13 1 0
BITMAP
F060
FCC0
8680
8380
8300
8600
FE00
FE00
8300
8100
8180
80C0
8060
ENDCHAR
STARTCHAR 0517
ENCODING 1303
SWIDTH 617 0
DWIDTH 12 0
BBX 11 13 1 -4
BITMAP
B860
FEC0
C680
C380
8300
8300
C380
E6C0
BC60
8000
8000
8000
8000
ENDCHAR
STARTCHAR 0518
ENCODING 1304
SWIDTH 822 0
DWIDTH 16 0
BBX 15 13 1 0
BITMAP
0FFE
3FFE
6100
4100
6100
3100
1FFC
1900
1100
3100
6100
4100
C1FE
ENDCHAR
STARTCHAR 0519
ENCODING 1305
SWIDTH 720 0
DWIDTH 14 0
BBX 12 9 1 0
BITMAP
3DC0
7FE0
4630
67F0
3FF0
3400
6620
4360
C3E0
ENDCHAR
STARTCHAR 051A
ENCODING 1306
SWIDTH 617 0
DWIDTH 12 0
BBX 12 14 1 -1
BITMAP
0E00
3F00
6180
40C0
C040
8040
8040
8040
C040
DEC0
6380
3380
1F80
00F0
ENDCHAR
STARTCHAR 051B
ENCODING 1307
SWIDTH 462 0
DWIDTH 9 0
BBX 8 13 1 -4
BITMAP
3B
7F
C7
C3
83
83
C3
67
3F
03
03
03
03
ENDCHAR
STARTCHAR 051C
ENCODING 1308
SWIDTH 822 0
DWIDTH 16 0
BBX 15 13 1 0
BITMAP
8106
C306
C384
4384
628C
668C
26C8
2448
3458
3C70
1870
1830
1830
ENDCHAR
STARTCHAR 051D
ENCODING 1309
SWIDTH 617 0
DWIDTH 12 0
BBX 11 9 1 0
BITMAP
C460
CC40
4E40
4AC0
6AC0
7B80
3380
3180
3180
ENDCHAR
STARTCHAR 051E
ENCODING 1310
SWIDTH 514 0
DWIDTH 10 0
BBX 8 13 1 0
BITMAP
83
9F
8C
8E
88
98
F0
F8
88
8C
86
82
83
ENDCHAR
STARTCHAR 051F
ENCODING 1311
SWIDTH 411 0
DWIDTH 8 0
BBX 7 9 1 0
BITMAP
AC
BC
98
9C
F0
F8
88
8C
86
ENDCHAR
STARTCHAR 0520
ENCODING 1312
SWIDTH 822 0
DWIDTH 16 0
BBX 14 17 1 -4
BITMAP
7F00
7F00
6100
6100
61E0
61F0
6118
610C
610C
6104
6104
4104
810C
040C
0618
0330
01E0
ENDCHAR
STARTCHAR 0521
ENCODING 1313
SWIDTH 668 0
DWIDTH 13 0
BBX 12 13 1 -4
BITMAP
7F00
7F00
6300
6300
63C0
6360
6320
4330
8330
0030
0420
0760
03C0
ENDCHAR
STARTCHAR 0522
ENCODING 1314
SWIDTH 771 0
DWIDTH 15 0
BBX 14 17 1 -4
BITMAP
8300
8300
8300
8300
83C0
83F0
FF10
8318
8308
830C
830C
830C
8308
0018
0C18
0770
03C0
ENDCHAR
STARTCHAR 0523
ENCODING 1315
SWIDTH 617 0
DWIDTH 12 0
BBX 11 13 1 -4
BITMAP
8600
8600
8600
8600
FF80
86C0
8660
8660
8660
0060
0840
0EC0
0780
ENDCHAR
STARTCHAR 0524
ENCODING 1316
SWIDTH 565 0
DWIDTH 11 0
BBX 9 15 1 -2
BITMAP
FF00
FF00
8300
8300
8300
8300
8300
8300
8300
8300
8300
8300
8380
0080
0080
ENDCHAR
STARTCHAR 0525
ENCODING 1317
SWIDTH 462 0
DWIDTH 9 0
BBX 8 11 1 -2
BITMAP
FE
FE
86
86
86
86
86
86
87
01
01
ENDCHAR
STARTCHAR 0526
ENCODING 1318
SWIDTH 565 0
DWIDTH 11 0
BBX 10 15 1 -2
BITMAP
8000
8000
8000
8000
8000
BC00
EE00
8300
8100
8100
8100
8100
81C0
00C0
00C0
ENDCHAR
STARTCHAR 0527
ENCODING 1319
SWIDTH 514 0
DWIDTH 10 0
BBX 9 15 1 -2
BITMAP
8000
8000
8000
8000
BC00
FE00
C200
C200
8300
8300
8300
8300
8380
0080
0080
ENDCHAR
STARTCHAR 0528
ENCODING 1320
SWIDTH 462 0
DWIDTH 9 0
BBX 11 17 -2 -4
BITMAP
1060
1060
1060
1060
1060
1060
1FE0
1060
1060
1060
1060
1060
1060
1000
1000
3000
E000
ENDCHAR
STARTCHAR 0529
ENCODING 1321
SWIDTH 411 0
DWIDTH 8 0
BBX 10 13 -2 -4
BITMAP
10C0
10C0
10C0
10C0
1FC0
10C0
10C0
10C0
10C0
1000
1000
3000
E000
ENDCHAR
STARTCHAR 052A
ENCODING 1322
SWIDTH 1131 0
DWIDTH 22 0
BBX 20 15 1 -2
BITMAP
1FCC10
1FCC70
10CCC0
10CCC0
10CC80
10CC80
10FF80
10FF80
10CCC0
10CC40
30CC60
20CC30
FFEC10
802000
802000
ENDCHAR
STARTCHAR 052B
ENCODING 1323
SWIDTH 977 0
DWIDTH 19 0
BBX 17 11 1 -2
BITMAP
1F3100
1F3300
113600
113600
11FC00
11FE00
313300
213100
FFB180
808000
808000
ENDCHAR
STARTCHAR 052C
ENCODING 1324
SWIDTH 668 0
DWIDTH 13 0
BBX 11 15 1 -2
BITMAP
60C0
61C0
61C0
63C0
26C0
24C0
3CC0
1FC0
10C0
30C0
60C0
C0C0
FFE0
8020
8020
ENDCHAR
STARTCHAR 052D
ENCODING 1325
SWIDTH 565 0
DWIDTH 11 0
BBX 9 11 1 -2
BITMAP
2300
2700
2500
3D00
1F00
1100
3100
6100
FF80
8080
8080
ENDCHAR
STARTCHAR 052E
ENCODING 1326
SWIDTH 565 0
DWIDTH 11 0
BBX 10 15 1 -2
BITMAP
7F00
7F00
6100
6100
6100
6100
6100
6100
6100
6100
6100
4100
81C0
00C0
00C0
ENDCHAR
STARTCHAR 052F
ENCODING 1327
SWIDTH 514 0
DWIDTH 10 0
BBX 9 11 1 -2
BITMAP
7F00
7F00
6300
6300
6300
6300
6300
4300
8380
0080
0080
ENDCHAR
STARTCHAR 0531
ENCODING 1329
SWIDTH 720 0
DWIDTH 14 0
BBX 13 13 1 0
BITMAP
8080
8080
8080
8080
8080
8080
8080
80E0
80F0
C098
C198
6318
3E18
ENDCHAR
STARTCHAR 0532
ENCODING 1330
SWIDTH 411 0
DWIDTH 8 0
BBX 7 13 1 0
BITMAP
10
7C
C4
86
80
80
FE
80
80
80
80
80
80
ENDCHAR
STARTCHAR 0533
ENCODING 1331
SWIDTH 617 0
DWIDTH 12 0
BBX 11 13 1 0
BITMAP
1E00
7E00
C200
8200
C200
E200
7FE0
0200
0200
0200
0200
0200
0200
ENDCHAR
STARTCHAR 0534
ENCODING 1332
SWIDTH 565 0
DWIDTH 11 0
BBX 10 13 1 0
BITMAP
1000
7C00
C400
8600
0700
0780
06C0
06C0
0600
0600
0600
0600
0600
ENDCHAR
STARTCHAR 0535
ENCODING 1333
SWIDTH 565 0
DWIDTH 11 0
BBX 9 13 1 0
BITMAP
8000
8000
8000
8000
FF80
FF80
8000
8000
8080
C080
C180
6300
3E00
ENDCHAR
STARTCHAR 0536
ENCODING 1334
SWIDTH 565 0
DWIDTH 11 0
BBX 9 13 1 0
BITMAP
1C00
3E00
6300
4100
4100
6100
3F00
1D00
0300
8200
8600
9C00
FF80
ENDCHAR
STARTCHAR 0537
ENCODING 1335
SWIDTH 462 0
DWIDTH 9 0
BBX 8 13 1 0
BITMAP
80
80
80
80
FF
FF
80
80
80
80
80
80
FF
ENDCHAR
STARTCHAR 0538
ENCODING 1336
SWIDTH 411 0
DWIDTH 8 0
BBX 7 13 1 0
BITMAP
10
7C
C4
86
80
80
80
80
80
80
80
80
FE
ENDCHAR
STARTCHAR 0539
ENCODING 1337
SWIDTH 462 0
DWIDTH 9 0
BBX 8 13 1 0
BITMAP
10
7C
C4
86
9F
BF
B6
BC
88
80
80
80
80
ENDCHAR
STARTCHAR 053A
ENCODING 1338
SWIDTH 514 0
DWIDTH 10 0
BBX 9 13 1 0
BITMAP
0200
0200
0200
0200
0200
0200
3F80
6200
C200
8200
C200
6200
3E00
ENDCHAR
STARTCHAR 053B
ENCODING 1339
SWIDTH 411 0
DWIDTH 8 0
BBX 7 13 1 0
BITMAP
80
80
80
80
F0
F8
88
8C
86
80
80
80
80
ENDCHAR
STARTCHAR 053C
ENCODING 1340
SWIDTH 462 0
DWIDTH 9 0
BBX 8 13 1 0
BITMAP
80
80
80
80
80
80
80
80
80
80
80
80
FF
ENDCHAR
STARTCHAR 053D
ENCODING 1341
SWIDTH 617 0
DWIDTH 12 0
BBX 11 13 1 0
BITMAP
8000
8000
8000
8000
B860
FC60
C460
8460
8460
8660
83C0
8000
8000
ENDCHAR
STARTCHAR 053E
ENCODING 1342
SWIDTH 822 0
DWIDTH 16 0
BBX 14 13 1 0
BITMAP
8000
8000
FFFC
1CE4
1024
3030
2010
2010
2010
3030
1030
1CE0
07C0
ENDCHAR
STARTCHAR 053F
ENCODING 1343
SWIDTH 514 0
DWIDTH 10 0
BBX 8 13 1 0
BITMAP
80
80
81
81
C1
C1
63
3F
01
01
01
01
01
ENDCHAR
STARTCHAR 0540
ENCODING 1344
SWIDTH 514 0
DWIDTH 10 0
BBX 8 14 1 -1
BITMAP
18
10
30
38
0E
04
0C
18
30
20
60
FF
01
01
ENDCHAR
STARTCHAR 0541
ENCODING 1345
SWIDTH 514 0
DWIDTH 10 0
BBX 8 13 1 0
BITMAP
38
7E
C2
83
83
C2
7E
3A
06
04
FC
B9
FF
ENDCHAR
STARTCHAR 0542
ENCODING 1346
SWIDTH 565 0
DWIDTH 11 0
BBX 10 13 1 0
BITMAP
1000
7C00
C400
8600
0600
0600
0600
0600
0600
0600
0600
0600
07C0
ENDCHAR
STARTCHAR 0543
ENCODING 1347
SWIDTH 514 0
DWIDTH 10 0
BBX 10 13 0 0
BITMAP
0700
DF80
70C0
3000
7800
4C00
4600
4300
4180
4080
4080
4080
7F80
ENDCHAR
STARTCHAR 0544
ENCODING 1348
SWIDTH 720 0
DWIDTH 14 0
BBX 13 13 1 0
BITMAP
80C0
80F0
8098
8098
8098
8080
8080
8080
8080
C080
C180
6300
3E00
ENDCHAR
STARTCHAR 0545
ENCODING 1349
SWIDTH 565 0
DWIDTH 11 0
BBX 9 13 1 0
BITMAP
1C00
7F00
4180
C080
0180
0300
FF00
0180
0080
8080
C080
6380
3E00
ENDCHAR
STARTCHAR 0546
ENCODING 1350
SWIDTH 720 0
DWIDTH 14 0
BBX 13 13 1 0
BITMAP
F800
F800
1800
1800
1800
1800
1800
1800
1818
1818
0810
0E70
03C0
ENDCHAR
STARTCHAR 0547
ENCODING 1351
SWIDTH 617 0
DWIDTH 12 0
BBX 10 13 1 0
BITMAP
3000
F880
BF80
2300
6000
4000
4000
4000
6000
6000
3040
19C0
0F00
ENDCHAR
STARTCHAR 0548
ENCODING 1352
SWIDTH 565 0
DWIDTH 11 0
BBX 9 13 1 0
BITMAP
1C00
3F00
6180
C080
8080
8080
8080
8080
8080
8080
8080
8080
8080
ENDCHAR
STARTCHAR 0549
ENCODING 1353
SWIDTH 565 0
DWIDTH 11 0
BBX 9 13 1 0
BITMAP
1C00
3E00
6300
4100
4100
6100
3F00
1D00
0300
8200
FE00
1F00
0180
ENDCHAR
STARTCHAR 054A
ENCODING 1354
SWIDTH 565 0
DWIDTH 11 0
BBX 9 13 1 0
BITMAP
1C00
3F00
6980
C880
8880
0880
0880
0880
0880
0080
0080
0080
0080
ENDCHAR
STARTCHAR 054B
ENCODING 1355
SWIDTH 565 0
DWIDTH 11 0
BBX 9 13 1 0
BITMAP
1C00
3E00
6300
4100
4100
7100
7900
0D00
0700
8600
8600
9C00
FF80
ENDCHAR
STARTCHAR 054C
ENCODING 1356
SWIDTH 720 0
DWIDTH 14 0
BBX 13 13 1 0
BITMAP
1C00
3F00
6180
C080
80E0
80F0
8098
8098
8098
8080
8080
8080
8080
ENDCHAR
STARTCHAR 054D
ENCODING 1357
SWIDTH 565 0
DWIDTH 11 0
BBX 9 13 1 0
BITMAP
8080
8080
8080
8080
8080
8080
8080
8080
8080
C080
C180
6300
3E00
ENDCHAR
STARTCHAR 054E
ENCODING 1358
SWIDTH 822 0
DWIDTH 16 0
BBX 14 13 1 0
BITMAP
0300
0300
0300
0300
8300
C300
C700
7F00
3B00
0300
0300
0300
03FC
ENDCHAR
STARTCHAR 054F
ENCODING 1359
SWIDTH 462 0
DWIDTH 9 0
BBX 8 13 1 0
BITMAP
18
7C
46
C2
40
60
38
0E
02
83
C2
66
3C
ENDCHAR
STARTCHAR 0550
ENCODING 1360
SWIDTH 411 0
DWIDTH 8 0
BBX 7 13 1 0
BITMAP
30
7C
C4
86
80
80
80
80
80
80
80
80
80
ENDCHAR
STARTCHAR 0551
ENCODING 1361
SWIDTH 565 0
DWIDTH 11 0
BBX 9 13 1 0
BITMAP
1C00
7F00
4180
C080
4180
7300
FF00
0180
0080
8080
C080
6380
3E00
ENDCHAR
STARTCHAR 0552
ENCODING 1362
SWIDTH 462 0
DWIDTH 9 0
BBX 8 13 1 0
BITMAP
80
80
80
80
FF
FF
80
80
80
80
80
80
80
ENDCHAR
STARTCHAR 0553
ENCODING 1363
SWIDTH 565 0
DWIDTH 11 0
BBX 9 13 1 0
BITMAP
0800
0800
0800
3E00
7B80
C880
8880
C880
C980
7F00
0800
0800
0800
ENDCHAR
STARTCHAR 0554
ENCODING 1364
SWIDTH 514 0
DWIDTH 10 0
BBX 9 13 1 0
BITMAP
0C00
3F00
2180
6180
6080
6180
7F00
7E00
6000
6000
FF80
6000
6000
ENDCHAR
STARTCHAR 0555
ENCODING 1365
SWIDTH 617 0
DWIDTH 12 0
BBX 10 13 1 0
BITMAP
0E00
3F00
6180
40C0
C040
8040
8040
8040
C040
C0C0
6080
3380
1F00
ENDCHAR
STARTCHAR 0556
ENCODING 1366
SWIDTH 617 0
DWIDTH 12 0
BBX 10 13 1 0
BITMAP
0400
3C00
2C00
2C00
3E00
0F80
0CC0
0C40
0C40
8C40
CCC0
7D80
3F00
ENDCHAR
STARTCHAR 0559
ENCODING 1369
SWIDTH 154 0
DWIDTH 3 0
BBX 3 4 0 9
BITMAP
40
80
A0
60
ENDCHAR
STARTCHAR 055A
ENCODING 1370
SWIDTH 154 0
DWIDTH 3 0
BBX 2 5 1 8
BITMAP
C0
C0
40
40
80
ENDCHAR
STARTCHAR 055B
ENCODING 1371
SWIDTH 257 0
DWIDTH 5 0
BBX 3 3 1 10
BITMAP
60
40
80
ENDCHAR
STARTCHAR 055C
ENCODING 1372
SWIDTH 411 0
DWIDTH 8 0
BBX 7 2 1 10
BITMAP
F2
9C
ENDCHAR
STARTCHAR 055D
ENCODING 1373
SWIDTH 257 0
DWIDTH 5 0
BBX 3 3 1 10
BITMAP
C0
40
20
ENDCHAR
STARTCHAR 055E
ENCODING 1374
SWIDTH 462 0
DWIDTH 9 0
BBX 7 6 1 7
BITMAP
18
7E
C2
82
1E
08
ENDCHAR
STARTCHAR 055F
ENCODING 1375
SWIDTH 360 0
DWIDTH 7 0
BBX 6 3 1 10
BITMAP
80
80
FC
ENDCHAR
STARTCHAR 0560
ENCODING 1376
SWIDTH 565 0
DWIDTH 11 0
BBX 10 9 1 0
BITMAP
B380
FF80
CCC0
CCC0
8CC0
8CC0
8CC0
8CC0
8CC0
ENDCHAR
STARTCHAR 0561
ENCODING 1377
SWIDTH 565 0
DWIDTH 11 0
BBX 10 9 1 0
BITMAP
8CC0
8CC0
8CC0
8CC0
8CC0
8CC0
8CC0
DDC0
77C0
ENDCHAR
STARTCHAR 0562
ENCODING 1378
SWIDTH 462 0
DWIDTH 9 0
BBX 8 13 1 -4
BITMAP
BC
FE
C2
C2
83
83
80
80
FF
80
80
80
80
ENDCHAR
STARTCHAR 0563
ENCODING 1379
SWIDTH 617 0
DWIDTH 12 0
BBX 11 13 1 -4
BITMAP
3B00
7F00
C700
C300
8300
8300
C300
6700
3FE0
0300
0300
0300
0300
ENDCHAR
STARTCHAR 0564
ENCODING 1380
SWIDTH 617 0
DWIDTH 12 0
BBX 10 13 1 -4
BITMAP
BC00
FE00
C200
C200
8300
8300
8300
8300
83C0
0300
0300
0300
0300
ENDCHAR
STARTCHAR 0565
ENCODING 1381
SWIDTH 462 0
DWIDTH 9 0
BBX 8 13 1 0
BITMAP
80
80
FF
80
80
80
83
83
83
83
C7
4F
7F
ENDCHAR
STARTCHAR 0566
ENCODING 1382
SWIDTH 462 0
DWIDTH 9 0
BBX 11 13 1 -4
BITMAP
3B00
7F00
C700
C300
8300
8300
C300
6700
3F00
0300
0300
03E0
03E0
ENDCHAR
STARTCHAR 0567
ENCODING 1383
SWIDTH 360 0
DWIDTH 7 0
BBX 5 13 1 0
BITMAP
80
80
80
80
F8
F8
80
80
80
80
80
80
F8
ENDCHAR
STARTCHAR 0568
ENCODING 1384
SWIDTH 462 0
DWIDTH 9 0
BBX 8 13 1 -4
BITMAP
BC
FE
C2
C2
83
83
83
83
83
80
80
FF
FF
ENDCHAR
STARTCHAR 0569
ENCODING 1385
SWIDTH 514 0
DWIDTH 10 0
BBX 9 13 1 -4
BITMAP
BC00
FE00
C200
C200
8300
8F80
9B00
9A00
8E00
8000
8000
8000
8000
ENDCHAR
STARTCHAR 056A
ENCODING 1386
SWIDTH 514 0
DWIDTH 10 0
BBX 9 13 1 0
BITMAP
0200
0200
0200
0200
3F80
7F80
C200
C200
8200
8200
C200
6600
3C00
ENDCHAR
STARTCHAR 056B
ENCODING 1387
SWIDTH 462 0
DWIDTH 9 0
BBX 8 17 1 -4
BITMAP
80
80
80
80
BC
FE
C2
C2
83
83
83
83
83
80
80
80
80
ENDCHAR
STARTCHAR 056C
ENCODING 1388
SWIDTH 360 0
DWIDTH 7 0
BBX 5 13 1 -4
BITMAP
80
80
80
80
80
80
80
80
80
80
80
F8
F8
ENDCHAR
STARTCHAR 056D
ENCODING 1389
SWIDTH 565 0
DWIDTH 11 0
BBX 9 17 1 -4
BITMAP
8000
8000
8000
8000
F080
F880
8880
8880
8880
8880
8880
8D80
8780
8000
8000
8000
8000
ENDCHAR
STARTCHAR 056E
ENCODING 1390
SWIDTH 462 0
DWIDTH 9 0
BBX 8 12 1 1
BITMAP
30
70
38
3F
7F
C6
C2
83
82
C2
66
3C
ENDCHAR
STARTCHAR 056F
ENCODING 1391
SWIDTH 462 0
DWIDTH 9 0
BBX 8 17 1 -4
BITMAP
80
80
80
80
83
83
83
83
83
83
C7
4F
7F
03
03
03
03
ENDCHAR
STARTCHAR 0570
ENCODING 1392
SWIDTH 462 0
DWIDTH 9 0
BBX 8 13 1 0
BITMAP
80
80
80
80
BC
FE
C2
C2
83
83
83
83
83
ENDCHAR
STARTCHAR 0571
ENCODING 1393
SWIDTH 514 0
DWIDTH 10 0
BBX 8 13 1 0
BITMAP
20
60
60
30
30
60
FC
E4
86
82
C2
67
3D
ENDCHAR
STARTCHAR 0572
ENCODING 1394
SWIDTH 462 0
DWIDTH 9 0
BBX 11 13 1 -4
BITMAP
BC00
FE00
C200
C200
8300
8300
8300
8300
8300
0300
0300
03E0
03E0
ENDCHAR
STARTCHAR 0573
ENCODING 1395
SWIDTH 565 0
DWIDTH 11 0
BBX 10 13 1 0
BITMAP
0600
0F80
1880
3080
2000
2000
3E00
F300
E100
6180
2180
3380
1EC0
ENDCHAR
STARTCHAR 0574
ENCODING 1396
SWIDTH 462 0
DWIDTH 9 0
BBX 9 13 1 0
BITMAP
0300
0780
0C80
0C00
8400
8600
8300
8300
8300
8300
C700
4F00
7F00
ENDCHAR
STARTCHAR 0575
ENCODING 1397
SWIDTH 154 0
DWIDTH 3 0
BBX 4 13 -2 -4
BITMAP
10
10
10
10
10
10
10
10
10
10
10
30
E0
ENDCHAR
STARTCHAR 0576
ENCODING 1398
SWIDTH 617 0
DWIDTH 12 0
BBX 10 13 1 0
BITMAP
F000
F000
1000
1000
1040
1040
1040
1040
1040
1040
18C0
19C0
0F40
ENDCHAR
STARTCHAR 0577
ENCODING 1399
SWIDTH 411 0
DWIDTH 8 0
BBX 7 13 1 -4
BITMAP
38
7C
C4
06
04
0C
18
30
60
C0
C0
FE
FE
ENDCHAR
STARTCHAR 0578
ENCODING 1400
SWIDTH 462 0
DWIDTH 9 0
BBX 8 9 1 0
BITMAP
BC
FE
C2
C2
83
83
83
83
83
ENDCHAR
STARTCHAR 0579
ENCODING 1401
SWIDTH 411 0
DWIDTH 8 0
BBX 7 13 1 -4
BITMAP
08
18
30
60
60
30
18
30
60
C0
C0
FE
FE
ENDCHAR
STARTCHAR 057A
ENCODING 1402
SWIDTH 565 0
DWIDTH 11 0
BBX 10 13 1 -4
BITMAP
8CC0
8CC0
8CC0
8CC0
8CC0
8CC0
8CC0
DDC0
77C0
00C0
00C0
00C0
0040
ENDCHAR
STARTCHAR 057B
ENCODING 1403
SWIDTH 411 0
DWIDTH 8 0
BBX 7 13 1 -4
BITMAP
38
7C
C4
86
C4
CC
78
30
60
C0
C0
FE
FE
ENDCHAR
STARTCHAR 057C
ENCODING 1404
SWIDTH 514 0
DWIDTH 10 0
BBX 8 9 1 0
BITMAP
B8
FE
C6
C2
83
82
82
86
87
ENDCHAR
STARTCHAR 057D
ENCODING 1405
SWIDTH 462 0
DWIDTH 9 0
BBX 8 9 1 0
BITMAP
83
83
83
83
83
83
C7
4F
7F
ENDCHAR
STARTCHAR 057E
ENCODING 1406
SWIDTH 462 0
DWIDTH 9 0
BBX 11 17 1 -4
BITMAP
0300
0300
0300
0300
8300
8300
8300
8300
8300
8300
C700
4F00
7F00
0300
0300
03E0
03E0
ENDCHAR
STARTCHAR 057F
ENCODING 1407
SWIDTH 771 0
DWIDTH 15 0
BBX 14 9 1 0
BITMAP
8370
83F8
8308
830C
830C
830C
C70C
4F0C
7F0C
ENDCHAR
STARTCHAR 0580
ENCODING 1408
SWIDTH 462 0
DWIDTH 9 0
BBX 8 13 1 -4
BITMAP
BC
FE
C2
C2
83
83
83
83
83
80
80
80
80
ENDCHAR
STARTCHAR 0581
ENCODING 1409
SWIDTH 462 0
DWIDTH 9 0
BBX 8 13 1 -4
BITMAP
3B
7F
C7
C3
83
83
C3
67
3F
03
42
6E
3C
ENDCHAR
STARTCHAR 0582
ENCODING 1410
SWIDTH 360 0
DWIDTH 7 0
BBX 5 9 1 0
BITMAP
80
80
80
80
80
80
80
80
F8
ENDCHAR
STARTCHAR 0583
ENCODING 1411
SWIDTH 771 0
DWIDTH 15 0
BBX 14 17 1 -4
BITMAP
0300
0300
0300
0300
8370
83F8
8308
830C
830C
830C
C70C
4F0C
7F0C
0300
0300
0300
0300
ENDCHAR
STARTCHAR 0584
ENCODING 1412
SWIDTH 462 0
DWIDTH 9 0
BBX 9 13 0 -4
BITMAP
5E00
7F00
6100
4180
4180
6300
7E00
4C00
4000
FF80
4000
4000
4000
ENDCHAR
STARTCHAR 0585
ENCODING 1413
SWIDTH 462 0
DWIDTH 9 0
BBX 8 9 1 0
BITMAP
38
7E
C6
C2
83
82
C2
66
3C
ENDCHAR
STARTCHAR 0586
ENCODING 1414
SWIDTH 462 0
DWIDTH 9 0
BBX 8 17 1 -4
BITMAP
10
30
70
70
38
1E
16
12
13
92
D2
76
3C
10
10
10
10
ENDCHAR
STARTCHAR 0587
ENCODING 1415
SWIDTH 668 0
DWIDTH 13 0
BBX 11 13 1 0
BITMAP
8000
8000
8000
8000
8300
8300
8300
8300
8300
8300
C700
4F00
7FE0
ENDCHAR
STARTCHAR 0588
ENCODING 1416
SWIDTH 308 0
DWIDTH 6 0
BBX 6 13 0 -4
BITMAP
10
10
10
10
7C
10
10
10
10
10
10
30
E0
ENDCHAR
STARTCHAR 0589
ENCODING 1417
SWIDTH 154 0
DWIDTH 3 0
BBX 2 9 1 0
BITMAP
C0
C0
00
00
00
00
00
C0
C0
ENDCHAR
STARTCHAR 058A
ENCODING 1418
SWIDTH 360 0
DWIDTH 7 0
BBX 6 3 1 3
BITMAP
80
C0
7C
ENDCHAR
STARTCHAR 058D
ENCODING 1421
SWIDTH 720 0
DWIDTH 14 0
BBX 13 13 1 0
BITMAP
0700
19C0
7220
5450
95B0
9608
CFE8
BF98
8590
4950
7250
24A0
1F40
ENDCHAR
STARTCHAR 058E
ENCODING 1422
SWIDTH 720 0
DWIDTH 14 0
BBX 13 13 1 0
BITMAP
0700
1CC0
6260
7250
8D50
8698
BB28
CFC8
9610
95B0
5450
3220
0FC0
ENDCHAR
STARTCHAR 058F
ENCODING 1423
SWIDTH 565 0
DWIDTH 11 0
BBX 9 13 1 0
BITMAP
1000
7C00
C400
8600
0600
0600
1F80
1F80
0600
3F00
0600
0600
0600
ENDCHAR
STARTCHAR 0591
ENCODING 1425
SWIDTH 0 0
DWIDTH 0 0
BBX 6 5 -3 -6
BITMAP
20
20
78
CC
84
ENDCHAR
STARTCHAR 0592
ENCODING 1426
SWIDTH 0 0
DWIDTH 0 0
BBX 6 5 -3 10
BITMAP
30
30
00
CC
48
ENDCHAR
STARTCHAR 0593
ENCODING 1427
SWIDTH 0 0
DWIDTH 0 0
BBX 4 6 -2 9
BITMAP
30
E0
70
E0
70
80
ENDCHAR
STARTCHAR 0594
ENCODING 1428
SWIDTH 0 0
DWIDTH 0 0
BBX 2 5 -1 9
BITMAP
C0
C0
00
00
C0
ENDCHAR
STARTCHAR 0595
ENCODING 1429
SWIDTH 0 0
DWIDTH 0 0
BBX 4 5 -2 9
BITMAP
10
B0
80
90
B0
ENDCHAR
STARTCHAR 0596
ENCODING 1430
SWIDTH 0 0
DWIDTH 0 0
BBX 4 3 -2 -4
BITMAP
80
40
30
ENDCHAR
STARTCHAR 0597
ENCODING 1431
SWIDTH 0 0
DWIDTH 0 0
BBX 2 2 -1 11
BITMAP
C0
C0
ENDCHAR
STARTCHAR 0598
ENCODING 1432
SWIDTH 0 0
DWIDTH 0 0
BBX 6 4 -3 9
BITMAP
68
A4
94
48
ENDCHAR
STARTCHAR 0599
ENCODING 1433
SWIDTH 0 0
DWIDTH 0 0
BBX 4 4 -4 9
BITMAP
C0
20
10
10
ENDCHAR
STARTCHAR 059A
ENCODING 1434
SWIDTH 0 0
DWIDTH 0 0
BBX 4 5 -2 -6
BITMAP
30
60
C0
60
30
ENDCHAR
STARTCHAR 059B
ENCODING 1435
SWIDTH 0 0
DWIDTH 0 0
BBX 4 4 -2 -5
BITMAP
D0
50
20
40
ENDCHAR
STARTCHAR 059C
ENCODING 1436
SWIDTH 0 0
DWIDTH 0 0
BBX 4 4 -2 9
BITMAP
30
40
40
80
ENDCHAR
STARTCHAR 059D
ENCODING 1437
SWIDTH 0 0
DWIDTH 0 0
BBX 3 4 2 9
BITMAP
20
40
80
80
ENDCHAR
STARTCHAR 059E
ENCODING 1438
SWIDTH 0 0
DWIDTH 0 0
BBX 6 4 -3 9
BITMAP
24
58
90
90
ENDCHAR
STARTCHAR 059F
ENCODING 1439
SWIDTH 0 0
DWIDTH 0 0
BBX 8 4 -4 9
BITMAP
C3
A5
A5
E7
ENDCHAR
STARTCHAR 05A0
ENCODING 1440
SWIDTH 0 0
DWIDTH 0 0
BBX 3 4 1 9
BITMAP
60
A0
A0
E0
ENDCHAR
STARTCHAR 05A1
ENCODING 1441
SWIDTH 0 0
DWIDTH 0 0
BBX 4 4 -2 10
BITMAP
90
E0
80
80
ENDCHAR
STARTCHAR 05A2
ENCODING 1442
SWIDTH 0 0
DWIDTH 0 0
BBX 6 4 -3 -6
BITMAP
84
48
30
20
ENDCHAR
STARTCHAR 05A3
ENCODING 1443
SWIDTH 0 0
DWIDTH 0 0
BBX 4 4 -2 -5
BITMAP
10
10
10
F0
ENDCHAR
STARTCHAR 05A4
ENCODING 1444
SWIDTH 0 0
DWIDTH 0 0
BBX 4 5 -2 -6
BITMAP
30
60
C0
60
30
ENDCHAR
STARTCHAR 05A5
ENCODING 1445
SWIDTH 0 0
DWIDTH 0 0
BBX 4 3 -2 -4
BITMAP
10
20
C0
ENDCHAR
STARTCHAR 05A6
ENCODING 1446
SWIDTH 0 0
DWIDTH 0 0
BBX 6 3 -3 -4
BITMAP
24
24
D8
ENDCHAR
STARTCHAR 05A7
ENCODING 1447
SWIDTH 0 0
DWIDTH 0 0
BBX 4 6 -2 -7
BITMAP
60
80
60
10
30
40
ENDCHAR
STARTCHAR 05A8
ENCODING 1448
SWIDTH 0 0
DWIDTH 0 0
BBX 4 4 -2 9
BITMAP
C0
20
20
10
ENDCHAR
STARTCHAR 05A9
ENCODING 1449
SWIDTH 0 0
DWIDTH 0 0
BBX 3 4 -4 9
BITMAP
C0
A0
A0
E0
ENDCHAR
STARTCHAR 05AA
ENCODING 1450
SWIDTH 0 0
DWIDTH 0 0
BBX 6 3 -3 -4
BITMAP
CC
78
30
ENDCHAR
STARTCHAR 05AB
ENCODING 1451
SWIDTH 0 0
DWIDTH 0 0
BBX 2 4 -1 10
BITMAP
40
80
80
40
ENDCHAR
STARTCHAR 05AC
ENCODING 1452
SWIDTH 0 0
DWIDTH 0 0
BBX 4 3 -2 10
BITMAP
10
10
F0
ENDCHAR
STARTCHAR 05AD
ENCODING 1453
SWIDTH 0 0
DWIDTH 0 0
BBX 3 3 3 -4
BITMAP
80
80
60
ENDCHAR
STARTCHAR 05AE
ENCODING 1454
SWIDTH 0 0
DWIDTH 0 0
BBX 6 4 -5 9
BITMAP
68
94
D4
48
ENDCHAR
STARTCHAR 05AF
ENCODING 1455
SWIDTH 0 0
DWIDTH 0 0
BBX 4 3 -2 9
BITMAP
60
90
F0
ENDCHAR
STARTCHAR 05B0
ENCODING 1456
SWIDTH 0 0
DWIDTH 0 0
BBX 2 5 -1 -6
BITMAP
C0
C0
00
C0
C0
ENDCHAR
STARTCHAR 05B1
ENCODING 1457
SWIDTH 0 0
DWIDTH 0 0
BBX 8 5 -5 -6
BITMAP
DB
D9
00
33
23
ENDCHAR
STARTCHAR 05B2
ENCODING 1458
SWIDTH 0 0
DWIDTH 0 0
BBX 5 5 -2 -6
BITMAP
D8
08
00
18
18
ENDCHAR
STARTCHAR 05B3
ENCODING 1459
SWIDTH 0 0
DWIDTH 0 0
BBX 5 5 -2 -6
BITMAP
D8
48
40
58
58
ENDCHAR
STARTCHAR 05B4
ENCODING 1460
SWIDTH 0 0
DWIDTH 0 0
BBX 2 2 -1 -3
BITMAP
C0
C0
ENDCHAR
STARTCHAR 05B5
ENCODING 1461
SWIDTH 0 0
DWIDTH 0 0
BBX 6 2 -3 -3
BITMAP
48
CC
ENDCHAR
STARTCHAR 05B6
ENCODING 1462
SWIDTH 0 0
DWIDTH 0 0
BBX 6 5 -3 -6
BITMAP
48
CC
00
30
30
ENDCHAR
STARTCHAR 05B7
ENCODING 1463
SWIDTH 0 0
DWIDTH 0 0
BBX 4 1 -2 -2
BITMAP
F0
ENDCHAR
STARTCHAR 05B8
ENCODING 1464
SWIDTH 0 0
DWIDTH 0 0
BBX 4 4 -2 -5
BITMAP
F0
40
60
60
ENDCHAR
STARTCHAR 05B9
ENCODING 1465
SWIDTH 0 0
DWIDTH 0 0
BBX 2 2 1 10
BITMAP
C0
C0
ENDCHAR
STARTCHAR 05BA
ENCODING 1466
SWIDTH 0 0
DWIDTH 0 0
BBX 2 2 1 10
BITMAP
C0
C0
ENDCHAR
STARTCHAR 05BB
ENCODING 1467
SWIDTH 0 0
DWIDTH 0 0
BBX 8 4 -4 -4
BITMAP
40
D8
1A
03
ENDCHAR
STARTCHAR 05BC
ENCODING 1468
SWIDTH 0 0
DWIDTH 0 0
BBX 2 2 -1 3
BITMAP
C0
C0
ENDCHAR
STARTCHAR 05BD
ENCODING 1469
SWIDTH 0 0
DWIDTH 0 0
BBX 1 4 0 -6
BITMAP
80
80
80
80
ENDCHAR
STARTCHAR 05BE
ENCODING 1470
SWIDTH 308 0
DWIDTH 6 0
BBX 5 2 1 7
BITMAP
F8
F8
ENDCHAR
STARTCHAR 05BF
ENCODING 1471
SWIDTH 0 0
DWIDTH 0 0
BBX 4 1 -2 10
BITMAP
F0
ENDCHAR
STARTCHAR 05C0
ENCODING 1472
SWIDTH 154 0
DWIDTH 3 0
BBX 1 13 1 0
BITMAP
80
80
80
80
80
80
80
80
80
80
80
80
80
ENDCHAR
STARTCHAR 05C1
ENCODING 1473
SWIDTH 0 0
DWIDTH 0 0
BBX 2 2 1 10
BITMAP
C0
40
ENDCHAR
STARTCHAR 05C2
ENCODING 1474
SWIDTH 0 0
DWIDTH 0 0
BBX 2 2 -3 10
BITMAP
C0
80
ENDCHAR
STARTCHAR 05C3
ENCODING 1475
SWIDTH 154 0
DWIDTH 3 0
BBX 2 9 1 0
BITMAP
C0
C0
00
00
00
00
00
C0
C0
ENDCHAR
STARTCHAR 05C4
ENCODING 1476
SWIDTH 0 0
DWIDTH 0 0
BBX 2 2 -1 10
BITMAP
C0
C0
ENDCHAR
STARTCHAR 05C5
ENCODING 1477
SWIDTH 0 0
DWIDTH 0 0
BBX 2 2 -1 -3
BITMAP
C0
C0
ENDCHAR
STARTCHAR 05C6
ENCODING 1478
SWIDTH 257 0
DWIDTH 5 0
BBX 4 9 1 0
BITMAP
30
F0
C0
80
80
80
80
80
F0
ENDCHAR
STARTCHAR 05C7
ENCODING 1479
SWIDTH 0 0
DWIDTH 0 0
BBX 4 6 -2 -7
BITMAP
F0
40
40
40
60
60
ENDCHAR
STARTCHAR 05D0
ENCODING 1488
SWIDTH 462 0
DWIDTH 9 0
BBX 7 9 1 0
BITMAP
C2
62
22
36
7E
4C
4C
C6
C2
ENDCHAR
STARTCHAR 05D1
ENCODING 1489
SWIDTH 462 0
DWIDTH 9 0
BBX 8 9 1 0
BITMAP
E0
F8
0C
04
04
04
04
04
FF
ENDCHAR
STARTCHAR 05D2
ENCODING 1490
SWIDTH 308 0
DWIDTH 6 0
BBX 5 9 1 0
BITMAP
F0
F0
10
10
10
70
50
D8
98
ENDCHAR
STARTCHAR 05D3
ENCODING 1491
SWIDTH 462 0
DWIDTH 9 0
BBX 8 9 1 0
BITMAP
FF
FF
04
04
04
04
04
04
04
ENDCHAR
STARTCHAR 05D4
ENCODING 1492
SWIDTH 462 0
DWIDTH 9 0
BBX 8 9 1 0
BITMAP
F0
FC
06
02
83
83
83
83
83
ENDCHAR
STARTCHAR 05D5
ENCODING 1493
SWIDTH 154 0
DWIDTH 3 0
BBX 1 9 1 0
BITMAP
80
80
80
80
80
80
80
80
80
ENDCHAR
STARTCHAR 05D6
ENCODING 1494
SWIDTH 360 0
DWIDTH 7 0
BBX 6 9 1 0
BITMAP
FC
FC
30
30
30
30
30
30
30
ENDCHAR
STARTCHAR 05D7
ENCODING 1495
SWIDTH 462 0
DWIDTH 9 0
BBX 8 9 1 0
BITMAP
F0
FC
86
82
83
83
83
83
83
ENDCHAR
STARTCHAR 05D8
ENCODING 1496
SWIDTH 462 0
DWIDTH 9 0
BBX 8 9 1 0
BITMAP
8C
8E
82
83
83
83
C2
66
3C
ENDCHAR
STARTCHAR 05D9
ENCODING 1497
SWIDTH 154 0
DWIDTH 3 0
BBX 1 4 1 5
BITMAP
80
80
80
80
ENDCHAR
STARTCHAR 05DA
ENCODING 1498
SWIDTH 411 0
DWIDTH 8 0
BBX 7 13 1 -4
BITMAP
E0
F8
0C
04
06
06
06
06
06
06
06
06
06
ENDCHAR
STARTCHAR 05DB
ENCODING 1499
SWIDTH 411 0
DWIDTH 8 0
BBX 7 9 1 0
BITMAP
F0
F8
0C
04
06
06
04
1C
F8
ENDCHAR
STARTCHAR 05DC
ENCODING 1500
SWIDTH 411 0
DWIDTH 8 0
BBX 7 13 1 0
BITMAP
80
80
80
80
FE
FE
06
04
0C
18
10
10
10
ENDCHAR
STARTCHAR 05DD
ENCODING 1501
SWIDTH 462 0
DWIDTH 9 0
BBX 8 9 1 0
BITMAP
F0
FC
86
82
83
83
83
83
FF
ENDCHAR
STARTCHAR 05DE
ENCODING 1502
SWIDTH 565 0
DWIDTH 11 0
BBX 9 9 1 0
BITMAP
CE00
DF00
7180
6080
6080
6080
4080
C080
C780
ENDCHAR
STARTCHAR 05DF
ENCODING 1503
SWIDTH 154 0
DWIDTH 3 0
BBX 1 13 1 -4
BITMAP
80
80
80
80
80
80
80
80
80
80
80
80
80
ENDCHAR
STARTCHAR 05E0
ENCODING 1504
SWIDTH 257 0
DWIDTH 5 0
BBX 4 9 1 0
BITMAP
C0
E0
30
30
30
30
30
30
F0
ENDCHAR
STARTCHAR 05E1
ENCODING 1505
SWIDTH 462 0
DWIDTH 9 0
BBX 8 9 1 0
BITMAP
38
7E
C6
C2
83
82
C2
66
3C
ENDCHAR
STARTCHAR 05E2
ENCODING 1506
SWIDTH 514 0
DWIDTH 10 0
BBX 8 9 1 0
BITMAP
C1
C3
43
62
66
2C
38
F0
E0
ENDCHAR
STARTCHAR 05E3
ENCODING 1507
SWIDTH 462 0
DWIDTH 9 0
BBX 8 13 1 -4
BITMAP
F8
FC
86
82
E3
03
03
03
03
03
03
03
03
ENDCHAR
STARTCHAR 05E4
ENCODING 1508
SWIDTH 462 0
DWIDTH 9 0
BBX 8 9 1 0
BITMAP
F8
FC
86
82
E3
02
02
0E
7C
ENDCHAR
STARTCHAR 05E5
ENCODING 1509
SWIDTH 514 0
DWIDTH 10 0
BBX 8 13 1 -4
BITMAP
E1
21
31
33
16
1C
18
10
10
10
10
10
10
ENDCHAR
STARTCHAR 05E6
ENCODING 1510
SWIDTH 462 0
DWIDTH 9 0
BBX 7 9 1 0
BITMAP
C2
62
22
36
1E
0C
0C
06
FE
ENDCHAR
STARTCHAR 05E7
ENCODING 1511
SWIDTH 411 0
DWIDTH 8 0
BBX 7 13 1 -4
BITMAP
FE
FE
06
04
8C
98
90
90
90
80
80
80
80
ENDCHAR
STARTCHAR 05E8
ENCODING 1512
SWIDTH 411 0
DWIDTH 8 0
BBX 7 9 1 0
BITMAP
E0
F8
0C
04
06
06
06
06
06
ENDCHAR
STARTCHAR 05E9
ENCODING 1513
SWIDTH 617 0
DWIDTH 12 0
BBX 10 9 1 0
BITMAP
C840
8C40
8C40
8C40
C840
C8C0
7880
3380
1F00
ENDCHAR
STARTCHAR 05EA
ENCODING 1514
SWIDTH 514 0
DWIDTH 10 0
BBX 8 9 1 0
BITMAP
F8
FE
63
61
61
61
61
61
E1
ENDCHAR
STARTCHAR 05EF
ENCODING 1519
SWIDTH 360 0
DWIDTH 7 0
BBX 5 8 1 5
BITMAP
20
20
20
20
88
88
88
88
ENDCHAR
STARTCHAR 05F0
ENCODING 1520
SWIDTH 308 0
DWIDTH 6 0
BBX 4 9 1 0
BITMAP
90
90
90
90
90
90
90
90
90
ENDCHAR
STARTCHAR 05F1
ENCODING 1521
SWIDTH 308 0
DWIDTH 6 0
BBX 4 9 1 0
BITMAP
90
90
90
90
10
10
10
10
10
ENDCHAR
STARTCHAR 05F2
ENCODING 1522
SWIDTH 308 0
DWIDTH 6 0
BBX 4 4 1 5
BITMAP
90
90
90
90
ENDCHAR
STARTCHAR 05F3
ENCODING 1523
SWIDTH 205 0
DWIDTH 4 0
BBX 3 6 1 4
BITMAP
60
40
C0
80
80
80
ENDCHAR
STARTCHAR 05F4
ENCODING 1524
SWIDTH 360 0
DWIDTH 7 0
BBX 6 6 1 4
BITMAP
6C
58
D8
90
90
A0
ENDCHAR
STARTCHAR 0606
ENCODING 1542
SWIDTH 565 0
DWIDTH 11 0
BBX 9 14 1 0
BITMAP
0780
8680
C700
4400
6400
6400
2000
3780
1400
1400
1C00
0C00
0C00
0C00
ENDCHAR
STARTCHAR 0607
ENCODING 1543
SWIDTH 565 0
DWIDTH 11 0
BBX 9 14 1 0
BITMAP
0380
8400
C380
4600
6400
6780
2000
3780
1400
1400
1C00
0C00
0C00
0C00
ENDCHAR
STARTCHAR 0608
ENCODING 1544
SWIDTH 977 0
DWIDTH 19 0
BBX 17 13 1 -4
BITMAP
003880
007C80
00C480
008480
F08480
108480
108480
10E580
103F00
180400
0C0C00
073800
03E000
ENDCHAR
STARTCHAR 0609
ENCODING 1545
SWIDTH 771 0
DWIDTH 15 0
BBX 13 13 1 0
BITMAP
4040
60C0
0180
0100
0300
0600
0400
0C00
1800
3000
2000
6088
C0D8
ENDCHAR
STARTCHAR 060A
ENCODING 1546
SWIDTH 977 0
DWIDTH 19 0
BBX 17 13 1 0
BITMAP
404000
60C000
018000
010000
030000
060000
040000
0C0000
180000
300000
200000
608980
C0D980
ENDCHAR
STARTCHAR 060B
ENCODING 1547
SWIDTH 462 0
DWIDTH 9 0
BBX 8 18 1 -6
BITMAP
0C
0C
00
1C
3E
63
43
43
43
63
33
FE
00
08
08
08
08
08
ENDCHAR
STARTCHAR 060C
ENCODING 1548
SWIDTH 154 0
DWIDTH 3 0
BBX 2 5 1 0
BITMAP
40
80
80
C0
C0
ENDCHAR
STARTCHAR 060D
ENCODING 1549
SWIDTH 205 0
DWIDTH 4 0
BBX 5 9 -1 -4
BITMAP
18
10
30
30
20
60
40
40
C0
ENDCHAR
STARTCHAR 060E
ENCODING 1550
SWIDTH 874 0
DWIDTH 17 0
BBX 15 6 1 0
BITMAP
3C00
6600
C200
8200
8300
FFFE
ENDCHAR
STARTCHAR 060F
ENCODING 1551
SWIDTH 462 0
DWIDTH 9 0
BBX 8 13 1 -4
BITMAP
3F
3F
30
30
10
1E
1E
30
3E
E3
A3
3B
1E
ENDCHAR
STARTCHAR 0615
ENCODING 1557
SWIDTH 0 0
DWIDTH 0 0
BBX 8 6 -4 10
BITMAP
40
40
5E
61
61
FF
ENDCHAR
STARTCHAR 0617
ENCODING 1559
SWIDTH 0 0
DWIDTH 0 0
BBX 2 9 -1 9
BITMAP
40
00
40
40
40
40
40
C0
80
ENDCHAR
STARTCHAR 0618
ENCODING 1560
SWIDTH 0 0
DWIDTH 0 0
BBX 2 2 -1 10
BITMAP
40
80
ENDCHAR
STARTCHAR 0619
ENCODING 1561
SWIDTH 0 0
DWIDTH 0 0
BBX 3 3 -2 10
BITMAP
60
E0
20
ENDCHAR
STARTCHAR 061A
ENCODING 1562
SWIDTH 0 0
DWIDTH 0 0
BBX 2 1 -1 -3
BITMAP
C0
ENDCHAR
STARTCHAR 061B
ENCODING 1563
SWIDTH 154 0
DWIDTH 3 0
BBX 3 12 0 0
BITMAP
20
40
80
60
60
00
00
00
00
00
60
60
ENDCHAR
STARTCHAR 061E
ENCODING 1566
SWIDTH 514 0
DWIDTH 10 0
BBX 8 9 1 0
BITMAP
18
18
00
00
00
00
00
C1
C3
ENDCHAR
STARTCHAR 061F
ENCODING 1567
SWIDTH 411 0
DWIDTH 8 0
BBX 7 13 1 0
BITMAP
30
7C
C4
86
80
C0
60
30
30
10
00
30
30
ENDCHAR
STARTCHAR 0620
ENCODING 1568
SWIDTH 771 0
DWIDTH 15 0
BBX 13 17 1 -8
BITMAP
03C0
03F0
0318
0308
0308
0308
0308
C308
8308
8300
C200
6E00
3C00
1800
2800
2800
1000
ENDCHAR
STARTCHAR 0621
ENCODING 1569
SWIDTH 514 0
DWIDTH 10 0
BBX 8 9 1 0
BITMAP
1C
3E
63
40
40
40
60
30
FF
ENDCHAR
STARTCHAR 0622
ENCODING 1570
SWIDTH 154 0
DWIDTH 3 0
BBX 7 16 -2 0
BITMAP
72
9E
00
10
10
10
10
10
10
10
10
10
10
10
10
10
ENDCHAR
STARTCHAR 0623
ENCODING 1571
SWIDTH 154 0
DWIDTH 3 0
BBX 3 16 0 0
BITMAP
E0
80
E0
40
40
40
40
40
40
40
40
40
40
40
40
40
ENDCHAR
STARTCHAR 0624
ENCODING 1572
SWIDTH 411 0
DWIDTH 8 0
BBX 7 17 1 -4
BITMAP
18
20
30
38
38
7E
C6
C6
86
86
C6
66
3E
06
06
DC
78
ENDCHAR
STARTCHAR 0625
ENCODING 1573
SWIDTH 154 0
DWIDTH 3 0
BBX 3 17 0 -4
BITMAP
40
40
40
40
40
40
40
40
40
40
40
40
40
00
60
80
E0
ENDCHAR
STARTCHAR 0626
ENCODING 1574
SWIDTH 771 0
DWIDTH 15 0
BBX 13 13 1 -4
BITMAP
63C0
83F0
E318
0308
0308
0308
0308
C308
8308
8300
C200
6E00
3C00
ENDCHAR
STARTCHAR 0627
ENCODING 1575
SWIDTH 154 0
DWIDTH 3 0
BBX 1 13 1 0
BITMAP
80
80
80
80
80
80
80
80
80
80
80
80
80
ENDCHAR
STARTCHAR 0628
ENCODING 1576
SWIDTH 720 0
DWIDTH 14 0
BBX 12 12 1 -3
BITMAP
0010
0010
C010
8010
8010
C010
C010
6030
3FE0
0000
0200
0300
ENDCHAR
STARTCHAR 0629
ENCODING 1577
SWIDTH 462 0
DWIDTH 9 0
BBX 8 12 1 0
BITMAP
6C
64
00
38
7E
C6
C2
83
82
C2
66
3C
ENDCHAR
STARTCHAR 062A
ENCODING 1578
SWIDTH 720 0
DWIDTH 14 0
BBX 12 12 1 0
BITMAP
0D80
0D80
0000
0010
0010
C010
8010
8010
C010
C010
6030
3FE0
ENDCHAR
STARTCHAR 062B
ENCODING 1579
SWIDTH 720 0
DWIDTH 14 0
BBX 12 15 1 0
BITMAP
0200
0300
0000
0D80
0D80
0000
0010
0010
C010
8010
8010
C010
C010
6030
3FE0
ENDCHAR
STARTCHAR 062C
ENCODING 1580
SWIDTH 565 0
DWIDTH 11 0
BBX 9 13 1 -6
BITMAP
FF80
FF80
6000
4000
C000
8000
8400
8C00
C000
4080
6180
3F00
1E00
ENDCHAR
STARTCHAR 062D
ENCODING 1581
SWIDTH 565 0
DWIDTH 11 0
BBX 9 13 1 -6
BITMAP
FF80
FF80
6000
4000
C000
8000
8000
8000
C000
4080
6180
3F00
1E00
ENDCHAR
STARTCHAR 062E
ENCODING 1582
SWIDTH 565 0
DWIDTH 11 0
BBX 9 18 1 -6
BITMAP
0C00
0C00
0000
0000
0000
FF80
FF80
6000
4000
C000
8000
8000
8000
C000
4080
6180
3F00
1E00
ENDCHAR
STARTCHAR 062F
ENCODING 1583
SWIDTH 462 0
DWIDTH 9 0
BBX 8 8 1 1
BITMAP
0C
06
02
02
03
03
C2
7E
ENDCHAR
STARTCHAR 0630
ENCODING 1584
SWIDTH 462 0
DWIDTH 9 0
BBX 8 12 1 0
BITMAP
18
18
00
00
0C
06
02
02
03
03
C2
7E
ENDCHAR
STARTCHAR 0631
ENCODING 1585
SWIDTH 308 0
DWIDTH 6 0
BBX 4 13 1 -4
BITMAP
10
10
10
10
10
10
10
10
10
10
10
30
E0
ENDCHAR
STARTCHAR 0632
ENCODING 1586
SWIDTH 308 0
DWIDTH 6 0
BBX 5 16 1 -4
BITMAP
18
10
00
10
10
10
10
10
10
10
10
10
10
10
30
E0
ENDCHAR
STARTCHAR 0633
ENCODING 1587
SWIDTH 977 0
DWIDTH 19 0
BBX 18 13 1 -4
BITMAP
0000C0
000CC0
008CC0
008CC0
808CC0
808CC0
808CC0
809D80
80FF80
C08000
418000
770000
1E0000
ENDCHAR
STARTCHAR 0634
ENCODING 1588
SWIDTH 977 0
DWIDTH 19 0
BBX 18 19 1 -4
BITMAP
000800
000C00
000000
003600
003200
000000
0000C0
000CC0
008CC0
008CC0
808CC0
808CC0
808CC0
809D80
80FF80
C08000
418000
770000
1E0000
ENDCHAR
STARTCHAR 0635
ENCODING 1589
SWIDTH 1131 0
DWIDTH 22 0
BBX 21 13 1 -4
BITMAP
0303E0
030FF0
031818
033018
036018
034018
03C018
C3C018
83FFF8
830000
C20000
6E0000
3C0000
ENDCHAR
STARTCHAR 0636
ENCODING 1590
SWIDTH 1131 0
DWIDTH 22 0
BBX 21 16 1 -4
BITMAP
000300
000300
000000
0303E0
030FF0
031818
033018
036018
034018
03C018
C3C018
83FFF8
830000
C20000
6E0000
3C0000
ENDCHAR
STARTCHAR 0637
ENCODING 1591
SWIDTH 822 0
DWIDTH 16 0
BBX 15 13 1 0
BITMAP
2000
2000
2000
2000
20F0
23FC
2604
2C06
3806
3006
3006
2006
FFFC
ENDCHAR
STARTCHAR 0638
ENCODING 1592
SWIDTH 822 0
DWIDTH 16 0
BBX 15 13 1 0
BITMAP
2000
2080
2080
2000
20F0
23FC
2604
2C06
3806
3006
3006
2006
FFFC
ENDCHAR
STARTCHAR 0639
ENCODING 1593
SWIDTH 462 0
DWIDTH 9 0
BBX 7 13 1 -4
BITMAP
7C
FC
C0
40
60
3C
7C
C0
80
80
C2
6E
38
ENDCHAR
STARTCHAR 063A
ENCODING 1594
SWIDTH 462 0
DWIDTH 9 0
BBX 7 16 1 -4
BITMAP
18
18
00
7C
FC
C0
40
60
3C
7C
C0
80
80
C2
6E
38
ENDCHAR
STARTCHAR 063B
ENCODING 1595
SWIDTH 720 0
DWIDTH 14 0
BBX 13 16 1 0
BITMAP
06C0
06C0
0000
0010
0030
0060
00C0
0180
0300
C180
80C0
8040
C060
C030
6010
3FF8
ENDCHAR
STARTCHAR 063C
ENCODING 1596
SWIDTH 720 0
DWIDTH 14 0
BBX 13 19 1 -6
BITMAP
0010
0030
0060
00C0
0180
0300
C180
80C0
8040
C060
C030
6010
3FF8
0000
0640
06C0
0000
0100
0100
ENDCHAR
STARTCHAR 063D
ENCODING 1597
SWIDTH 771 0
DWIDTH 15 0
BBX 13 17 1 -4
BITMAP
0200
0700
0C80
0000
03C0
03F0
0318
0308
0308
0308
0308
C308
8308
8300
C200
6E00
3C00
ENDCHAR
STARTCHAR 063E
ENCODING 1598
SWIDTH 771 0
DWIDTH 15 0
BBX 13 16 1 -4
BITMAP
0D80
0C80
0000
03C0
03F0
0318
0308
0308
0308
0308
C308
8308
8300
C200
6E00
3C00
ENDCHAR
STARTCHAR 063F
ENCODING 1599
SWIDTH 771 0
DWIDTH 15 0
BBX 13 19 1 -4
BITMAP
0200
0300
0000
0D80
0C80
0000
03C0
03F0
0318
0308
0308
0308
0308
C308
8308
8300
C200
6E00
3C00
ENDCHAR
STARTCHAR 0640
ENCODING 1600
SWIDTH 308 0
DWIDTH 6 0
BBX 7 1 0 0
BITMAP
FE
ENDCHAR
STARTCHAR 0641
ENCODING 1601
SWIDTH 925 0
DWIDTH 18 0
BBX 16 12 1 0
BITMAP
000C
000C
0000
000E
003F
C021
8021
8061
C021
C021
6039
3FFF
ENDCHAR
STARTCHAR 0642
ENCODING 1602
SWIDTH 668 0
DWIDTH 13 0
BBX 12 16 1 -4
BITMAP
0360
0320
0000
01C0
03F0
4630
4630
C430
8430
8630
8330
C1F0
4030
6060
3DC0
0F80
ENDCHAR
STARTCHAR 0643
ENCODING 1603
SWIDTH 720 0
DWIDTH 14 0
BBX 12 13 1 0
BITMAP
0010
0010
0010
0010
0310
0410
C710
8010
8010
C010
C010
6030
3FE0
ENDCHAR
STARTCHAR 0644
ENCODING 1604
SWIDTH 462 0
DWIDTH 9 0
BBX 8 17 1 -4
BITMAP
03
03
03
03
03
03
03
03
03
03
03
C3
83
83
C2
6E
3C
ENDCHAR
STARTCHAR 0645
ENCODING 1605
SWIDTH 565 0
DWIDTH 11 0
BBX 9 13 1 -4
BITMAP
1C00
7F00
C180
C180
8080
8080
C180
6300
7E00
4000
C000
8000
8000
ENDCHAR
STARTCHAR 0646
ENCODING 1606
SWIDTH 720 0
DWIDTH 14 0
BBX 13 16 1 -4
BITMAP
0600
0200
0000
0030
0010
C018
8018
8018
8018
8018
C018
C010
4030
6060
3DC0
0F80
ENDCHAR
STARTCHAR 0647
ENCODING 1607
SWIDTH 462 0
DWIDTH 9 0
BBX 8 9 1 0
BITMAP
38
7E
C6
C2
83
82
C2
66
3C
ENDCHAR
STARTCHAR 0648
ENCODING 1608
SWIDTH 411 0
DWIDTH 8 0
BBX 7 13 1 -4
BITMAP
38
7E
C6
C6
86
86
C6
66
3E
06
06
DC
78
ENDCHAR
STARTCHAR 0649
ENCODING 1609
SWIDTH 771 0
DWIDTH 15 0
BBX 13 13 1 -4
BITMAP
03C0
03F0
0318
0308
0308
0308
0308
C308
8308
8300
C200
6E00
3C00
ENDCHAR
STARTCHAR 064A
ENCODING 1610
SWIDTH 771 0
DWIDTH 15 0
BBX 13 16 1 -7
BITMAP
03C0
03F0
0318
0308
0308
0308
0308
C308
8308
8300
C200
6E00
3C00
0000
6400
6C00
ENDCHAR
STARTCHAR 064B
ENCODING 1611
SWIDTH 0 0
DWIDTH 0 0
BBX 4 4 -2 10
BITMAP
30
C0
70
80
ENDCHAR
STARTCHAR 064C
ENCODING 1612
SWIDTH 0 0
DWIDTH 0 0
BBX 6 4 -3 9
BITMAP
D8
54
7C
08
ENDCHAR
STARTCHAR 064D
ENCODING 1613
SWIDTH 0 0
DWIDTH 0 0
BBX 4 4 -2 -5
BITMAP
30
E0
30
C0
ENDCHAR
STARTCHAR 064E
ENCODING 1614
SWIDTH 0 0
DWIDTH 0 0
BBX 4 2 -2 10
BITMAP
30
C0
ENDCHAR
STARTCHAR 064F
ENCODING 1615
SWIDTH 0 0
DWIDTH 0 0
BBX 4 4 -2 9
BITMAP
30
50
F0
20
ENDCHAR
STARTCHAR 0650
ENCODING 1616
SWIDTH 0 0
DWIDTH 0 0
BBX 4 2 -2 -4
BITMAP
10
E0
ENDCHAR
STARTCHAR 0651
ENCODING 1617
SWIDTH 0 0
DWIDTH 0 0
BBX 6 3 -3 9
BITMAP
84
B4
48
ENDCHAR
STARTCHAR 0652
ENCODING 1618
SWIDTH 0 0
DWIDTH 0 0
BBX 4 3 -2 9
BITMAP
60
90
F0
ENDCHAR
STARTCHAR 0653
ENCODING 1619
SWIDTH 0 0
DWIDTH 0 0
BBX 6 2 -3 10
BITMAP
E4
9C
ENDCHAR
STARTCHAR 0654
ENCODING 1620
SWIDTH 0 0
DWIDTH 0 0
BBX 4 4 -2 9
BITMAP
60
40
40
F0
ENDCHAR
STARTCHAR 0655
ENCODING 1621
SWIDTH 0 0
DWIDTH 0 0
BBX 4 3 -2 -4
BITMAP
60
80
F0
ENDCHAR
STARTCHAR 0656
ENCODING 1622
SWIDTH 0 0
DWIDTH 0 0
BBX 2 7 -1 -8
BITMAP
C0
C0
C0
C0
C0
C0
C0
ENDCHAR
STARTCHAR 0657
ENCODING 1623
SWIDTH 0 0
DWIDTH 0 0
BBX 4 4 -2 10
BITMAP
F0
A0
A0
40
ENDCHAR
STARTCHAR 0658
ENCODING 1624
SWIDTH 0 0
DWIDTH 0 0
BBX 4 3 -2 9
BITMAP
10
90
F0
ENDCHAR
STARTCHAR 0659
ENCODING 1625
SWIDTH 0 0
DWIDTH 0 0
BBX 4 1 -2 11
BITMAP
F0
ENDCHAR
STARTCHAR 065A
ENCODING 1626
SWIDTH 0 0
DWIDTH 0 0
BBX 6 3 -3 9
BITMAP
84
48
30
ENDCHAR
STARTCHAR 065B
ENCODING 1627
SWIDTH 0 0
DWIDTH 0 0
BBX 4 2 -2 10
BITMAP
60
90
ENDCHAR
STARTCHAR 065C
ENCODING 1628
SWIDTH 0 0
DWIDTH 0 0
BBX 2 2 -1 -3
BITMAP
C0
C0
ENDCHAR
STARTCHAR 065D
ENCODING 1629
SWIDTH 0 0
DWIDTH 0 0
BBX 4 4 -2 9
BITMAP
C0
A0
F0
40
ENDCHAR
STARTCHAR 065E
ENCODING 1630
SWIDTH 0 0
DWIDTH 0 0
BBX 4 6 -2 9
BITMAP
80
C0
30
C0
30
10
ENDCHAR
STARTCHAR 065F
ENCODING 1631
SWIDTH 0 0
DWIDTH 0 0
BBX 6 3 -3 -4
BITMAP
1C
D0
BC
ENDCHAR
STARTCHAR 0660
ENCODING 1632
SWIDTH 308 0
DWIDTH 6 0
BBX 4 3 1 4
BITMAP
60
F0
60
ENDCHAR
STARTCHAR 0661
ENCODING 1633
SWIDTH 154 0
DWIDTH 3 0
BBX 1 13 1 0
BITMAP
80
80
80
80
80
80
80
80
80
80
80
80
80
ENDCHAR
STARTCHAR 0662
ENCODING 1634
SWIDTH 360 0
DWIDTH 7 0
BBX 6 13 1 0
BITMAP
FC
FC
80
80
80
80
80
80
80
80
80
80
80
ENDCHAR
STARTCHAR 0663
ENCODING 1635
SWIDTH 462 0
DWIDTH 9 0
BBX 8 13 1 0
BITMAP
99
99
99
9B
FE
80
80
80
80
80
80
80
80
ENDCHAR
STARTCHAR 0664
ENCODING 1636
SWIDTH 411 0
DWIDTH 8 0
BBX 7 13 1 0
BITMAP
1E
7E
40
C0
40
60
7E
C0
C0
80
C0
60
3E
ENDCHAR
STARTCHAR 0665
ENCODING 1637
SWIDTH 462 0
DWIDTH 9 0
BBX 8 13 1 0
BITMAP
18
3C
66
42
42
C3
C3
81
81
83
C3
66
3C
ENDCHAR
STARTCHAR 0666
ENCODING 1638
SWIDTH 360 0
DWIDTH 7 0
BBX 6 13 1 0
BITMAP
FC
FC
0C
0C
0C
0C
0C
0C
0C
0C
0C
0C
0C
ENDCHAR
STARTCHAR 0667
ENCODING 1639
SWIDTH 617 0
DWIDTH 12 0
BBX 11 13 1 0
BITMAP
8060
C040
40C0
6080
6080
2180
3100
1100
1300
1A00
0E00
0E00
0C00
ENDCHAR
STARTCHAR 0668
ENCODING 1640
SWIDTH 617 0
DWIDTH 12 0
BBX 10 13 1 0
BITMAP
0400
0C00
0E00
1A00
1A00
1300
3100
2180
2180
6080
40C0
C040
C040
ENDCHAR
STARTCHAR 0669
ENCODING 1641
SWIDTH 462 0
DWIDTH 9 0
BBX 7 13 1 0
BITMAP
38
7C
C6
82
82
C2
7E
02
02
02
02
02
02
ENDCHAR
STARTCHAR 066A
ENCODING 1642
SWIDTH 617 0
DWIDTH 12 0
BBX 10 13 1 0
BITMAP
4040
60C0
0180
0100
0300
0600
0400
0C00
1800
3000
2000
6080
C0C0
ENDCHAR
STARTCHAR 066B
ENCODING 1643
SWIDTH 154 0
DWIDTH 3 0
BBX 4 6 -2 -4
BITMAP
10
10
10
10
30
E0
ENDCHAR
STARTCHAR 066C
ENCODING 1644
SWIDTH 205 0
DWIDTH 4 0
BBX 3 5 0 -3
BITMAP
20
60
40
C0
C0
ENDCHAR
STARTCHAR 066D
ENCODING 1645
SWIDTH 411 0
DWIDTH 8 0
BBX 6 7 1 6
BITMAP
10
10
94
7C
30
68
48
ENDCHAR
STARTCHAR 066E
ENCODING 1646
SWIDTH 720 0
DWIDTH 14 0
BBX 12 9 1 0
BITMAP
0010
0010
C010
8010
8010
C010
C010
6030
3FE0
ENDCHAR
STARTCHAR 066F
ENCODING 1647
SWIDTH 668 0
DWIDTH 13 0
BBX 12 13 1 -4
BITMAP
01C0
03F0
4630
4630
C430
8430
8630
8330
C1F0
4030
6060
3DC0
0F80
ENDCHAR
STARTCHAR 0670
ENCODING 1648
SWIDTH 0 0
DWIDTH 0 0
BBX 2 6 -1 10
BITMAP
C0
C0
C0
C0
C0
C0
ENDCHAR
STARTCHAR 0671
ENCODING 1649
SWIDTH 154 0
DWIDTH 3 0
BBX 5 16 -1 0
BITMAP
38
48
F8
20
20
20
20
20
20
20
20
20
20
20
20
20
ENDCHAR
STARTCHAR 0672
ENCODING 1650
SWIDTH 154 0
DWIDTH 3 0
BBX 6 16 -1 0
BITMAP
18
D0
BC
20
20
20
20
20
20
20
20
20
20
20
20
20
ENDCHAR
STARTCHAR 0673
ENCODING 1651
SWIDTH 154 0
DWIDTH 3 0
BBX 6 17 -1 -4
BITMAP
20
20
20
20
20
20
20
20
20
20
20
20
20
00
18
D0
BC
ENDCHAR
STARTCHAR 0674
ENCODING 1652
SWIDTH 257 0
DWIDTH 5 0
BBX 3 4 1 9
BITMAP
60
80
80
E0
ENDCHAR
STARTCHAR 0675
ENCODING 1653
SWIDTH 360 0
DWIDTH 7 0
BBX 6 13 1 0
BITMAP
98
90
90
BC
80
80
80
80
80
80
80
80
80
ENDCHAR
STARTCHAR 0676
ENCODING 1654
SWIDTH 617 0
DWIDTH 12 0
BBX 10 17 1 -4
BITMAP
00C0
0100
0180
01C0
3800
7E00
C600
C600
8600
8600
C600
6600
3E00
0600
0600
DC00
7800
ENDCHAR
STARTCHAR 0677
ENCODING 1655
SWIDTH 617 0
DWIDTH 12 0
BBX 10 19 1 -4
BITMAP
1000
1800
18C0
0900
1180
21C0
3800
7E00
C600
C600
8600
8600
C600
6600
3E00
0600
0600
DC00
7800
ENDCHAR
STARTCHAR 0678
ENCODING 1656
SWIDTH 925 0
DWIDTH 18 0
BBX 17 17 1 -4
BITMAP
000100
000200
000200
000380
03C000
03F000
031800
030800
030800
030800
030800
C30800
830800
830000
C20000
6E0000
3C0000
ENDCHAR
STARTCHAR 0679
ENCODING 1657
SWIDTH 720 0
DWIDTH 14 0
BBX 12 14 1 0
BITMAP
0800
0B80
0C80
0C80
0F80
0010
0010
C010
8010
8010
C010
C010
6030
3FE0
ENDCHAR
STARTCHAR 067A
ENCODING 1658
SWIDTH 720 0
DWIDTH 14 0
BBX 12 15 1 0
BITMAP
0200
0300
0000
0300
0200
0000
0010
0010
C010
8010
8010
C010
C010
6030
3FE0
ENDCHAR
STARTCHAR 067B
ENCODING 1659
SWIDTH 720 0
DWIDTH 14 0
BBX 12 15 1 -6
BITMAP
0010
0010
C010
8010
8010
C010
C010
6030
3FE0
0000
0200
0300
0000
0200
0300
ENDCHAR
STARTCHAR 067C
ENCODING 1660
SWIDTH 720 0
DWIDTH 14 0
BBX 12 14 1 -2
BITMAP
0D80
0D80
0000
0010
0010
C010
8010
8010
C010
C010
6030
3FE0
0500
0700
ENDCHAR
STARTCHAR 067D
ENCODING 1661
SWIDTH 720 0
DWIDTH 14 0
BBX 12 15 1 0
BITMAP
0C80
0D80
0000
0300
0200
0000
0010
0010
C010
8010
8010
C010
C010
6030
3FE0
ENDCHAR
STARTCHAR 067E
ENCODING 1662
SWIDTH 720 0
DWIDTH 14 0
BBX 12 15 1 -6
BITMAP
0010
0010
C010
8010
8010
C010
C010
6030
3FE0
0000
0C80
0D80
0000
0300
0200
ENDCHAR
STARTCHAR 067F
ENCODING 1663
SWIDTH 720 0
DWIDTH 14 0
BBX 12 15 1 0
BITMAP
0580
0D80
0000
0D80
0D80
0000
0010
0010
C010
8010
8010
C010
C010
6030
3FE0
ENDCHAR
STARTCHAR 0680
ENCODING 1664
SWIDTH 720 0
DWIDTH 14 0
BBX 12 15 1 -6
BITMAP
0010
0010
C010
8010
8010
C010
C010
6030
3FE0
0000
0580
0D80
0000
0D80
0D80
ENDCHAR
STARTCHAR 0681
ENCODING 1665
SWIDTH 565 0
DWIDTH 11 0
BBX 9 19 1 -6
BITMAP
0C00
0800
0800
0E00
0000
0000
FF80
FF80
6000
4000
C000
8000
8000
8000
C000
4080
6180
3F00
1E00
ENDCHAR
STARTCHAR 0682
ENCODING 1666
SWIDTH 565 0
DWIDTH 11 0
BBX 9 21 1 -6
BITMAP
0C00
0C00
0000
0C00
0C00
0000
0000
0000
FF80
FF80
6000
4000
C000
8000
8000
8000
C000
4080
6180
3F00
1E00
ENDCHAR
STARTCHAR 0683
ENCODING 1667
SWIDTH 565 0
DWIDTH 11 0
BBX 9 13 1 -6
BITMAP
FF80
FF80
6000
4000
C000
8000
8000
9B00
D300
4080
6180
3F00
1E00
ENDCHAR
STARTCHAR 0684
ENCODING 1668
SWIDTH 565 0
DWIDTH 11 0
BBX 9 13 1 -6
BITMAP
FF80
FF80
6000
4000
C000
8000
8C00
8400
CC00
4C80
6180
3F00
1E00
ENDCHAR
STARTCHAR 0685
ENCODING 1669
SWIDTH 565 0
DWIDTH 11 0
BBX 9 21 1 -6
BITMAP
0400
0C00
0000
1B00
1300
0000
0000
0000
FF80
FF80
6000
4000
C000
8000
8000
8000
C000
4080
6180
3F00
1E00
ENDCHAR
STARTCHAR 0686
ENCODING 1670
SWIDTH 565 0
DWIDTH 11 0
BBX 9 13 1 -6
BITMAP
FF80
FF80
6000
4000
C000
8000
9200
9B00
C000
4C80
6D80
3F00
1E00
ENDCHAR
STARTCHAR 0687
ENCODING 1671
SWIDTH 565 0
DWIDTH 11 0
BBX 9 13 1 -6
BITMAP
FF80
FF80
6000
4000
C000
8200
9F00
9200
DA00
5E80
6180
3F00
1E00
ENDCHAR
STARTCHAR 0688
ENCODING 1672
SWIDTH 462 0
DWIDTH 9 0
BBX 8 14 1 0
BITMAP
40
5C
72
62
7E
00
0C
06
02
02
03
03
C2
7E
ENDCHAR
STARTCHAR 0689
ENCODING 1673
SWIDTH 462 0
DWIDTH 9 0
BBX 8 10 1 -1
BITMAP
0C
06
02
02
03
03
C2
7E
24
18
ENDCHAR
STARTCHAR 068A
ENCODING 1674
SWIDTH 462 0
DWIDTH 9 0
BBX 8 11 1 -2
BITMAP
0C
06
02
02
03
03
C2
7E
00
10
18
ENDCHAR
STARTCHAR 068B
ENCODING 1675
SWIDTH 462 0
DWIDTH 9 0
BBX 8 17 1 -3
BITMAP
40
5C
72
62
7E
00
0C
06
02
02
03
03
C2
7E
00
10
18
ENDCHAR
STARTCHAR 068C
ENCODING 1676
SWIDTH 462 0
DWIDTH 9 0
BBX 8 12 1 0
BITMAP
6C
64
00
00
0C
06
02
02
03
03
C2
7E
ENDCHAR
STARTCHAR 068D
ENCODING 1677
SWIDTH 462 0
DWIDTH 9 0
BBX 8 11 1 -2
BITMAP
0C
06
02
02
03
03
C2
7E
00
24
6C
ENDCHAR
STARTCHAR 068E
ENCODING 1678
SWIDTH 462 0
DWIDTH 9 0
BBX 8 15 1 0
BITMAP
10
18
00
6C
64
00
00
0C
06
02
02
03
03
C2
7E
ENDCHAR
STARTCHAR 068F
ENCODING 1679
SWIDTH 462 0
DWIDTH 9 0
BBX 8 15 1 0
BITMAP
24
6C
00
18
18
00
00
0C
06
02
02
03
03
C2
7E
ENDCHAR
STARTCHAR 0690
ENCODING 1680
SWIDTH 462 0
DWIDTH 9 0
BBX 8 15 1 0
BITMAP
2C
6C
00
6C
2C
00
00
0C
06
02
02
03
03
C2
7E
ENDCHAR
STARTCHAR 0691
ENCODING 1681
SWIDTH 308 0
DWIDTH 6 0
BBX 6 18 1 -4
BITMAP
40
5C
64
64
7C
10
10
10
10
10
10
10
10
10
10
10
30
E0
ENDCHAR
STARTCHAR 0692
ENCODING 1682
SWIDTH 308 0
DWIDTH 6 0
BBX 6 17 1 -4
BITMAP
44
2C
18
00
10
10
10
10
10
10
10
10
10
10
10
30
E0
ENDCHAR
STARTCHAR 0693
ENCODING 1683
SWIDTH 308 0
DWIDTH 6 0
BBX 6 14 1 -5
BITMAP
10
10
10
10
10
10
10
10
10
10
10
3C
F4
1C
ENDCHAR
STARTCHAR 0694
ENCODING 1684
SWIDTH 308 0
DWIDTH 6 0
BBX 4 16 1 -7
BITMAP
10
10
10
10
10
10
10
10
10
10
10
30
E0
00
10
30
ENDCHAR
STARTCHAR 0695
ENCODING 1685
SWIDTH 308 0
DWIDTH 6 0
BBX 5 16 1 -8
BITMAP
10
10
10
10
10
10
10
10
10
10
10
30
E0
88
D0
60
ENDCHAR
STARTCHAR 0696
ENCODING 1686
SWIDTH 308 0
DWIDTH 6 0
BBX 4 16 1 -7
BITMAP
10
10
10
10
10
10
D0
D0
10
10
10
30
E0
00
10
30
ENDCHAR
STARTCHAR 0697
ENCODING 1687
SWIDTH 360 0
DWIDTH 7 0
BBX 6 16 1 -4
BITMAP
6C
6C
00
10
10
10
10
10
10
10
10
10
10
10
30
E0
ENDCHAR
STARTCHAR 0698
ENCODING 1688
SWIDTH 308 0
DWIDTH 6 0
BBX 6 19 1 -4
BITMAP
10
18
00
6C
6C
00
10
10
10
10
10
10
10
10
10
10
10
30
E0
ENDCHAR
STARTCHAR 0699
ENCODING 1689
SWIDTH 360 0
DWIDTH 7 0
BBX 6 19 1 -4
BITMAP
2C
6C
00
6C
6C
00
10
10
10
10
10
10
10
10
10
10
10
30
E0
ENDCHAR
STARTCHAR 069A
ENCODING 1690
SWIDTH 977 0
DWIDTH 19 0
BBX 18 16 1 -4
BITMAP
000C00
000C00
000000
0000C0
000CC0
008CC0
008CC0
808CC0
808CC0
808CC0
809D80
80FF80
C08000
418800
770C00
1E0000
ENDCHAR
STARTCHAR 069B
ENCODING 1691
SWIDTH 977 0
DWIDTH 19 0
BBX 18 15 1 -6
BITMAP
0000C0
000CC0
008CC0
008CC0
808CC0
808CC0
808CC0
809D80
80FF80
C08000
419200
773600
1E0000
000C00
000C00
ENDCHAR
STARTCHAR 069C
ENCODING 1692
SWIDTH 977 0
DWIDTH 19 0
BBX 18 21 1 -6
BITMAP
000800
000C00
000000
003600
003200
000000
0000C0
000CC0
008CC0
008CC0
808CC0
808CC0
808CC0
809D80
80FF80
C08000
419200
773600
1E0000
000C00
000C00
ENDCHAR
STARTCHAR 069D
ENCODING 1693
SWIDTH 1131 0
DWIDTH 22 0
BBX 21 13 1 -4
BITMAP
0303E0
030FF0
031818
033018
036018
034018
03C018
C3C018
83FFF8
830000
C20C80
6E0D80
3C0000
ENDCHAR
STARTCHAR 069E
ENCODING 1694
SWIDTH 1131 0
DWIDTH 22 0
BBX 21 19 1 -4
BITMAP
000200
000300
000000
000D80
000D80
000000
0303E0
030FF0
031818
033018
036018
034018
03C018
C3C018
83FFF8
830000
C20000
6E0000
3C0000
ENDCHAR
STARTCHAR 069F
ENCODING 1695
SWIDTH 822 0
DWIDTH 16 0
BBX 15 15 1 0
BITMAP
0080
01C0
2000
2360
2360
2000
20F0
23FC
2604
2C06
3806
3006
3006
2006
FFFC
ENDCHAR
STARTCHAR 06A0
ENCODING 1696
SWIDTH 462 0
DWIDTH 9 0
BBX 7 19 1 -4
BITMAP
10
18
00
6C
64
00
7C
FC
C0
40
60
3C
7C
C0
80
80
C2
6E
38
ENDCHAR
STARTCHAR 06A1
ENCODING 1697
SWIDTH 925 0
DWIDTH 18 0
BBX 16 9 1 0
BITMAP
000E
003F
C021
8021
8061
C021
C021
6039
3FFF
ENDCHAR
STARTCHAR 06A2
ENCODING 1698
SWIDTH 925 0
DWIDTH 18 0
BBX 16 12 1 -3
BITMAP
000E
003F
C021
8021
8061
C021
C021
6039
3FFF
0000
0004
000C
ENDCHAR
STARTCHAR 06A3
ENCODING 1699
SWIDTH 925 0
DWIDTH 18 0
BBX 16 15 1 -3
BITMAP
000C
000C
0000
000E
003F
C021
8021
8061
C021
C021
6039
3FFF
0000
0004
000C
ENDCHAR
STARTCHAR 06A4
ENCODING 1700
SWIDTH 925 0
DWIDTH 18 0
BBX 16 15 1 0
BITMAP
0004
000C
0000
001B
0013
0000
000E
003F
C021
8021
8061
C021
C021
6039
3FFF
ENDCHAR
STARTCHAR 06A5
ENCODING 1701
SWIDTH 925 0
DWIDTH 18 0
BBX 16 15 1 -6
BITMAP
000E
003F
C021
8021
8061
C021
C021
6039
3FFF
0000
0012
001B
0000
000C
000C
ENDCHAR
STARTCHAR 06A6
ENCODING 1702
SWIDTH 925 0
DWIDTH 18 0
BBX 16 15 1 0
BITMAP
001A
001B
0000
001B
001A
0000
000E
003F
C021
8021
8061
C021
C021
6039
3FFF
ENDCHAR
STARTCHAR 06A7
ENCODING 1703
SWIDTH 668 0
DWIDTH 13 0
BBX 12 16 1 -4
BITMAP
00C0
00C0
0000
01C0
03F0
4630
4630
C430
8430
8630
8330
C1F0
4030
6060
3DC0
0F80
ENDCHAR
STARTCHAR 06A8
ENCODING 1704
SWIDTH 668 0
DWIDTH 13 0
BBX 12 19 1 -4
BITMAP
0080
00C0
0000
0360
0320
0000
01C0
03F0
4630
4630
C430
8430
8630
8330
C1F0
4030
6060
3DC0
0F80
ENDCHAR
STARTCHAR 06A9
ENCODING 1705
SWIDTH 720 0
DWIDTH 14 0
BBX 13 13 1 0
BITMAP
0010
0030
0060
00C0
0180
0300
C180
80C0
8040
C060
C030
6010
3FF8
ENDCHAR
STARTCHAR 06AA
ENCODING 1706
SWIDTH 874 0
DWIDTH 17 0
BBX 15 9 1 0
BITMAP
0380
0F80
1800
3000
3FFC
0006
0002
0006
FFFC
ENDCHAR
STARTCHAR 06AB
ENCODING 1707
SWIDTH 720 0
DWIDTH 14 0
BBX 13 13 1 0
BITMAP
0010
0030
0070
00D0
01D0
0320
C180
80C0
8040
C060
C030
6010
3FF8
ENDCHAR
STARTCHAR 06AC
ENCODING 1708
SWIDTH 720 0
DWIDTH 14 0
BBX 12 16 1 0
BITMAP
0200
0300
0000
0010
0010
0010
0010
0310
0410
C710
8010
8010
C010
C010
6030
3FE0
ENDCHAR
STARTCHAR 06AD
ENCODING 1709
SWIDTH 720 0
DWIDTH 14 0
BBX 12 16 1 0
BITMAP
0300
0200
0C80
0D90
0010
0010
0010
0310
0410
C710
8010
8010
C010
C010
6030
3FE0
ENDCHAR
STARTCHAR 06AE
ENCODING 1710
SWIDTH 720 0
DWIDTH 14 0
BBX 12 19 1 -6
BITMAP
0010
0010
0010
0010
0310
0410
C710
8010
8010
C010
C010
6030
3FE0
0000
0C80
0D80
0000
0300
0200
ENDCHAR
STARTCHAR 06AF
ENCODING 1711
SWIDTH 720 0
DWIDTH 14 0
BBX 13 15 1 0
BITMAP
0040
00C0
0190
0330
0660
04C0
0180
0300
C180
80C0
8040
C060
C030
6010
3FF8
ENDCHAR
STARTCHAR 06B0
ENCODING 1712
SWIDTH 720 0
DWIDTH 14 0
BBX 13 15 1 0
BITMAP
0040
00C0
0190
0330
0670
04D0
01D0
0320
C180
80C0
8040
C060
C030
6010
3FF8
ENDCHAR
ENDFONT
